<?xml version="1.0" encoding="UTF-8"?>
<svg version="1.1" xmlns="http://www.w3.org/2000/svg" width="512" height="512">
<path d="M0 0 C0.64598145 0.31340332 1.29196289 0.62680664 1.95751953 0.94970703 C11.04188511 5.41806089 19.1327186 10.57876133 27 17 C27.85706543 17.69681885 27.85706543 17.69681885 28.73144531 18.40771484 C59.97949159 43.97506551 79.24805945 79.8599455 83.58984375 120.015625 C86.14210156 148.0659984 81.34071997 175.71331051 69 201 C68.52989502 201.96897217 68.52989502 201.96897217 68.05029297 202.95751953 C62.01083751 215.23600575 54.37114379 225.70428783 45.04296875 235.74609375 C43.6244739 237.31104887 42.26401964 238.92980725 40.953125 240.5859375 C38.01703534 244.21494432 34.59411343 247.03845054 31 250 C30.06027344 250.77730469 29.12054688 251.55460937 28.15234375 252.35546875 C4.51129398 271.44858045 -26.45959185 284.04561225 -57 285 C-57.63550781 285.02046387 -58.27101563 285.04092773 -58.92578125 285.06201172 C-98.75566589 286.1633408 -137.48085141 273.56391428 -166.81640625 246.0078125 C-169.01608181 243.93597301 -169.01608181 243.93597301 -171.578125 241.95703125 C-175.21174787 239.02082954 -178.03616829 235.59688315 -181 232 C-181.77730469 231.06027344 -182.55460937 230.12054688 -183.35546875 229.15234375 C-189.95416662 220.98511355 -195.24285224 212.35003236 -200 203 C-200.35336426 202.3080957 -200.70672852 201.61619141 -201.07080078 200.90332031 C-218.49091983 166.09523749 -221.05205267 124.11313175 -208.78173828 87.19433594 C-202.20482083 68.73295739 -192.68432923 51.9023789 -180 37 C-179.16339844 36.01 -178.32679688 35.02 -177.46484375 34 C-171.84059034 27.58246837 -165.78959173 22.15506039 -159 17 C-157.96359375 16.19820312 -156.9271875 15.39640625 -155.859375 14.5703125 C-111.32727825 -19.08040029 -49.98347927 -24.39354985 0 0 Z " fill="#000000" transform="translate(322,121)"/>
<path d="M0 0 C4.35671139 2.3415435 7.72339783 5.38655492 11.2109375 8.83984375 C12.06952866 9.6848922 12.06952866 9.6848922 12.94546509 10.54701233 C14.14651461 11.73361623 15.34482555 12.92299779 16.54052734 14.11499023 C18.37802705 15.94050731 20.23337349 17.74653841 22.08984375 19.55273438 C23.25635113 20.7097865 24.42175569 21.86795175 25.5859375 23.02734375 C26.14413177 23.56600571 26.70232605 24.10466766 27.2774353 24.65965271 C28.80615234 26.20678711 28.80615234 26.20678711 31 29 C30.68403315 32.14925653 29.56139754 33.82050438 27.37963867 36.0402832 C26.83204391 36.60378983 26.28444916 37.16729645 25.72026062 37.74787903 C25.1255043 38.34283676 24.53074799 38.93779449 23.91796875 39.55078125 C23.00208733 40.47808296 23.00208733 40.47808296 22.06770325 41.42411804 C20.77614917 42.72646623 19.48060773 44.0248705 18.18139648 45.31958008 C16.19120504 47.30879677 14.22329947 49.31838722 12.25585938 51.33007812 C10.99869827 52.59244424 9.74027641 53.85355632 8.48046875 55.11328125 C7.59744331 56.02089958 7.59744331 56.02089958 6.69657898 56.94685364 C5.00854492 58.60668945 5.00854492 58.60668945 2 61 C-1.18244838 60.70917377 -2.82116449 59.549456 -5.02441406 57.31616211 C-5.86483246 56.47540382 -5.86483246 56.47540382 -6.722229 55.61766052 C-7.31404968 55.01035599 -7.90587036 54.40305145 -8.515625 53.77734375 C-9.13145447 53.15726944 -9.74728394 52.53719513 -10.3817749 51.89833069 C-12.34500635 49.91832095 -14.29754436 47.92813081 -16.25 45.9375 C-17.58003748 44.59241465 -18.91075879 43.24800512 -20.2421875 41.90429688 C-23.50277537 38.61065094 -26.75381188 35.30783661 -30 32 C-28.71977125 29.19030533 -27.39285871 27.1460762 -25.20263672 24.97558594 C-24.64220673 24.41530701 -24.08177673 23.85502808 -23.50436401 23.277771 C-22.90222076 22.68595032 -22.30007751 22.09412964 -21.6796875 21.484375 C-21.06102814 20.86854553 -20.44236877 20.25271606 -19.80496216 19.6182251 C-17.83296186 17.65739664 -15.85411263 15.70364699 -13.875 13.75 C-12.53469836 12.41973201 -11.19484917 11.089008 -9.85546875 9.7578125 C-6.57553411 6.4998985 -3.28944058 3.24831467 0 0 Z " fill="#000000" transform="translate(391,361)"/>
<path d="M0 0 C14.52 0 29.04 0 44 0 C44 14.52 44 29.04 44 44 C29.48 44 14.96 44 0 44 C0 29.48 0 14.96 0 0 Z " fill="#000000" transform="translate(234,426)"/>
<path d="M0 0 C14.52 0 29.04 0 44 0 C44 14.52 44 29.04 44 44 C29.48 44 14.96 44 0 44 C0 29.48 0 14.96 0 0 Z " fill="#000000" transform="translate(426,234)"/>
<path d="M0 0 C14.52 0 29.04 0 44 0 C44 14.52 44 29.04 44 44 C29.48 44 14.96 44 0 44 C0 29.48 0 14.96 0 0 Z " fill="#000000" transform="translate(42,234)"/>
<path d="M0 0 C14.52 0 29.04 0 44 0 C44 14.52 44 29.04 44 44 C29.48 44 14.96 44 0 44 C0 29.48 0 14.96 0 0 Z " fill="#000000" transform="translate(234,42)"/>
<path d="M0 0 C2.80969467 1.28022875 4.8539238 2.60714129 7.02441406 4.79736328 C7.86483246 5.63800827 7.86483246 5.63800827 8.722229 6.49563599 C9.31404968 7.09777924 9.90587036 7.69992249 10.515625 8.3203125 C11.13145447 8.93897186 11.74728394 9.55763123 12.3817749 10.19503784 C14.34260336 12.16703814 16.29635301 14.14588737 18.25 16.125 C19.58026799 17.46530164 20.910992 18.80515083 22.2421875 20.14453125 C25.5001015 23.42446589 28.75168533 26.71055942 32 30 C28.22875755 34.50454825 24.3393403 38.80193876 20.1640625 42.93359375 C19.63984711 43.4563942 19.11563171 43.97919464 18.57553101 44.51783752 C16.9277213 46.16012345 15.27644099 47.7988665 13.625 49.4375 C12.49586045 50.56161467 11.36695222 51.68596174 10.23828125 52.81054688 C7.49484812 55.54305235 4.74830015 58.27239009 2 61 C-2.24690868 59.33898108 -5.15388191 56.18747192 -8.33203125 53.0390625 C-9.22603889 52.15859756 -9.22603889 52.15859756 -10.1381073 51.26034546 C-11.3922274 50.02070156 -12.64358151 48.77825392 -13.89233398 47.53320312 C-15.81110678 45.62638454 -17.7477424 43.73901206 -19.68554688 41.8515625 C-20.90218592 40.6443813 -22.11772004 39.43608526 -23.33203125 38.2265625 C-23.91523636 37.66288971 -24.49844147 37.09921692 -25.09931946 36.51846313 C-26.69848633 34.90087891 -26.69848633 34.90087891 -29 32 C-28.69913541 28.8187005 -27.55026822 27.17963681 -25.31616211 24.97558594 C-24.47540382 24.13516754 -24.47540382 24.13516754 -23.61766052 23.277771 C-23.01035599 22.68595032 -22.40305145 22.09412964 -21.77734375 21.484375 C-21.15726944 20.86854553 -20.53719513 20.25271606 -19.89833069 19.6182251 C-17.91832095 17.65499365 -15.92813081 15.70245564 -13.9375 13.75 C-12.59241465 12.41996252 -11.24800512 11.08924121 -9.90429688 9.7578125 C-6.61065094 6.49722463 -3.30783661 3.24618812 0 0 Z " fill="#000000" transform="translate(119,361)"/>
<path d="M0 0 C4.24690868 1.66101892 7.15388191 4.81252808 10.33203125 7.9609375 C10.92803635 8.54791412 11.52404144 9.13489075 12.1381073 9.73965454 C13.3922274 10.97929844 14.64358151 12.22174608 15.89233398 13.46679688 C17.81110678 15.37361546 19.7477424 17.26098794 21.68554688 19.1484375 C22.90218592 20.3556187 24.11772004 21.56391474 25.33203125 22.7734375 C25.91523636 23.33711029 26.49844147 23.90078308 27.09931946 24.48153687 C28.69848633 26.09912109 28.69848633 26.09912109 31 29 C30.69913541 32.1812995 29.55026822 33.82036319 27.31616211 36.02441406 C26.47540382 36.86483246 26.47540382 36.86483246 25.61766052 37.722229 C25.01035599 38.31404968 24.40305145 38.90587036 23.77734375 39.515625 C23.15726944 40.13145447 22.53719513 40.74728394 21.89833069 41.3817749 C19.91832095 43.34500635 17.92813081 45.29754436 15.9375 47.25 C14.59241465 48.58003748 13.24800512 49.91075879 11.90429688 51.2421875 C8.61065094 54.50277537 5.30783661 57.75381188 2 61 C-0.80969467 59.71977125 -2.8539238 58.39285871 -5.02441406 56.20263672 C-5.58469299 55.64220673 -6.14497192 55.08177673 -6.722229 54.50436401 C-7.31404968 53.90222076 -7.90587036 53.30007751 -8.515625 52.6796875 C-9.13145447 52.06102814 -9.74728394 51.44236877 -10.3817749 50.80496216 C-12.34260336 48.83296186 -14.29635301 46.85411263 -16.25 44.875 C-17.58026799 43.53469836 -18.910992 42.19484917 -20.2421875 40.85546875 C-23.5001015 37.57553411 -26.75168533 34.28944058 -30 31 C-26.22875755 26.49545175 -22.3393403 22.19806124 -18.1640625 18.06640625 C-17.63984711 17.5436058 -17.11563171 17.02080536 -16.57553101 16.48216248 C-14.9277213 14.83987655 -13.27644099 13.2011335 -11.625 11.5625 C-10.49586045 10.43838533 -9.36695222 9.31403826 -8.23828125 8.18945312 C-5.49484812 5.45694765 -2.74830015 2.72760991 0 0 Z " fill="#000000" transform="translate(391,90)"/>
<path d="M0 0 C2.20348174 0.89071719 3.36905553 1.80966452 5.03213501 3.49542236 C5.87255341 4.33618065 5.87255341 4.33618065 6.72994995 5.19392395 C7.32177063 5.80122849 7.91359131 6.40853302 8.52334595 7.03424072 C9.13917542 7.65431503 9.75500488 8.27438934 10.38949585 8.91325378 C12.35272729 10.89326352 14.30526531 12.88345367 16.25772095 14.87408447 C17.58775842 16.21916982 18.91847973 17.56357935 20.24990845 18.9072876 C23.51049632 22.20093353 26.76153282 25.50374786 30.00772095 28.81158447 C28.7274922 31.62127914 27.40057966 33.66550827 25.21035767 35.83599854 C24.64992767 36.39627747 24.08949768 36.9565564 23.51208496 37.53381348 C22.90994171 38.12563416 22.30779846 38.71745483 21.68740845 39.32720947 C21.06874908 39.94303894 20.45008972 40.55886841 19.81268311 41.19335938 C17.84068281 43.15418783 15.86183358 45.10793748 13.88272095 47.06158447 C12.54241931 48.39185246 11.20257012 49.72257647 9.8631897 51.05377197 C6.58325506 54.31168597 3.29716153 57.56326981 0.00772095 60.81158447 C-4.4968273 57.04034203 -8.79421781 53.15092477 -12.9258728 48.97564697 C-13.44867325 48.45143158 -13.97147369 47.92721619 -14.51011658 47.38711548 C-16.15240251 45.73930577 -17.79114555 44.08802546 -19.42977905 42.43658447 C-20.55389372 41.30744492 -21.67824079 40.1785367 -22.80282593 39.04986572 C-25.5353314 36.30643259 -28.26466914 33.55988462 -30.99227905 30.81158447 C-29.33126014 26.56467579 -26.17975098 23.65770256 -23.03134155 20.47955322 C-22.44436493 19.88354813 -21.85738831 19.28754303 -21.25262451 18.67347717 C-20.01298061 17.41935708 -18.77053297 16.16800296 -17.52548218 14.91925049 C-15.61866359 13.00047769 -13.73129111 11.06384207 -11.84384155 9.1260376 C-10.63666035 7.90939855 -9.42836432 6.69386443 -8.21884155 5.47955322 C-7.65516876 4.89634811 -7.09149597 4.31314301 -6.51074219 3.71226501 C-2.5151219 -0.23786227 -2.5151219 -0.23786227 0 0 Z " fill="#000000" transform="translate(120.99227905273438,90.18841552734375)"/>
</svg>
