<?xml version="1.0" encoding="UTF-8"?>
<svg version="1.1" xmlns="http://www.w3.org/2000/svg" width="512" height="512">
<path d="M0 0 C13.36165807 11.70032774 24.00482266 25.51745781 31.96484375 41.4375 C33.88714426 42.15142332 33.88714426 42.15142332 36.2421875 42.6640625 C37.58772705 42.99809082 37.58772705 42.99809082 38.96044922 43.33886719 C39.93127441 43.57766602 40.90209961 43.81646484 41.90234375 44.0625 C64.43320853 49.94265761 83.87138016 60.64268511 100.96484375 76.4375 C101.48030762 76.90913574 101.99577148 77.38077148 102.52685547 77.86669922 C110.54054069 85.27804042 116.90602896 93.37608673 122.96484375 102.4375 C124.22683594 102.27894531 125.48882812 102.12039062 126.7890625 101.95703125 C156.24733606 98.71966876 185.6327948 104.8163362 209.4765625 123.0390625 C212.78135892 125.69042809 215.90186805 128.51197195 218.96484375 131.4375 C220.38216797 132.79101562 220.38216797 132.79101562 221.828125 134.171875 C242.21407139 155.0480068 252.42374773 183.70514911 252.11328125 212.640625 C250.94557355 242.50935878 238.76144872 269.78429991 216.96484375 290.4375 C194.95900406 310.21480952 166.68632335 319.57279464 137.31347656 318.56933594 C117.931865 317.48138685 96.99433728 311.56478547 81.45703125 299.48828125 C78.87341322 298.05796205 78.87341322 298.05796205 75.86328125 299.6484375 C74.67899703 300.35357865 73.50509002 301.07632455 72.33984375 301.8125 C55.5291227 311.53708751 35.46332013 317.76993447 15.96484375 318.4375 C15.33239746 318.46328125 14.69995117 318.4890625 14.04833984 318.515625 C-17.28258586 319.64594025 -46.8966271 311.80161124 -73.03515625 294.4375 C-73.98390625 295.283125 -74.93265625 296.12875 -75.91015625 297 C-89.41977535 308.50618861 -105.9260082 317.65014574 -124.03515625 318.4375 C-125.535625 318.51484375 -125.535625 318.51484375 -127.06640625 318.59375 C-140.87137262 318.9668572 -153.58647074 316.54337064 -166.03515625 310.4375 C-166.82277344 310.05722656 -167.61039063 309.67695313 -168.421875 309.28515625 C-174.56332671 306.1018907 -179.80811772 301.94025774 -185.03515625 297.4375 C-185.65261719 296.91671875 -186.27007812 296.3959375 -186.90625 295.859375 C-200.44691064 283.4757685 -208.92111038 263.53230562 -210.03515625 245.4375 C-210.08800781 244.5815625 -210.14085937 243.725625 -210.1953125 242.84375 C-210.73333185 225.43999363 -205.60162521 209.54962333 -196.390625 194.8984375 C-194.79393006 192.46779539 -194.79393006 192.46779539 -195.03515625 189.4375 C-196.48122372 187.26543555 -197.963016 185.20196375 -199.53515625 183.125 C-214.97022717 161.97900752 -225.13716096 136.85352811 -226.03515625 110.4375 C-226.08671875 109.30054688 -226.13828125 108.16359375 -226.19140625 106.9921875 C-227.03226943 72.30658131 -215.5811503 39.76238948 -193.03515625 13.4375 C-192.29910156 12.55578125 -191.56304687 11.6740625 -190.8046875 10.765625 C-142.04985136 -45.54501771 -55.19702133 -46.60134619 0 0 Z M-161.03515625 17.4375 C-161.84855469 18.12199219 -162.66195312 18.80648437 -163.5 19.51171875 C-185.8334016 38.67921442 -198.54332265 66.27381785 -201.03515625 95.4375 C-202.92458835 124.20990458 -192.88980543 151.24317914 -175.03515625 173.4375 C-171.6409793 172.11855067 -168.37440086 170.64785872 -165.09765625 169.0625 C-154.51995029 164.24928883 -143.51906453 161.88729573 -132.03515625 160.4375 C-131.88820313 159.73109375 -131.74125 159.0246875 -131.58984375 158.296875 C-122.75514923 117.88068627 -103.5414695 84.06159976 -68.10888672 61.19433594 C-47.30277308 48.17663536 -24.26118661 42.43878077 -0.03515625 40.4375 C-0.03515625 33.60467306 -8.15146969 27.16266323 -12.66015625 22.4375 C-33.82064104 1.85763827 -62.85843448 -9.19784743 -92.27783203 -8.91601562 C-117.17193552 -8.15820426 -142.43852824 0.57079087 -161.03515625 17.4375 Z M-82.03515625 105.4375 C-98.45843869 125.08292817 -106.5763736 148.93650113 -108.53515625 174.25 C-108.86274342 177.98192443 -109.55328547 180.49602353 -112.03515625 183.4375 C-115.94580046 186.28429138 -120.31445662 185.531615 -124.91015625 185.375 C-141.9339223 185.12562685 -156.3273274 189.24283906 -168.86962891 201.05883789 C-179.04344209 211.16658736 -184.85447813 224.43246441 -185.34765625 238.8125 C-185.12422221 253.64852041 -179.44064035 266.97659 -169.34765625 277.75 C-157.72593142 288.73588578 -144.07832373 293.84389713 -128.24609375 293.6484375 C-111.32857615 292.53706773 -98.41967967 283.84712907 -87.41015625 271.5 C-84.83088174 268.82001073 -84.83088174 268.82001073 -85.03515625 266.4375 C-80.51635799 264.67406653 -76.88178274 263.92732879 -72.03515625 264.4375 C-67.57708022 266.49507355 -63.95169489 269.24430232 -60.03515625 272.1875 C-36.25263011 289.59566199 -7.26375781 296.1181784 21.83984375 292.8125 C41.00010434 289.585974 58.02989252 282.20505888 74.11962891 271.41259766 C77.59640904 269.57530474 80.0875675 269.87466958 83.96484375 270.4375 C86.83984375 272 86.83984375 272 89.96484375 274.4375 C109.08100988 288.79239055 130.76396039 296.03943934 154.81640625 292.94140625 C177.49673092 288.78569459 196.71629525 277.6860563 210.96484375 259.4375 C224.16076033 240.21388945 229.59945705 217.7210759 225.64453125 194.75 C222.43384512 179.10251819 215.69297758 165.30155388 204.96484375 153.4375 C204.32804687 152.73109375 203.69125 152.0246875 203.03515625 151.296875 C189.25756828 136.79997521 168.85823959 126.95109552 148.75 126.234375 C147.17590456 126.20922811 145.60162652 126.19402503 144.02734375 126.1875 C142.77969238 126.18157837 142.77969238 126.18157837 141.50683594 126.17553711 C134.81758656 126.23756935 128.72987432 127.23259968 122.26171875 128.87890625 C117.24782893 129.72841602 113.56515083 129.45858291 109.234375 126.6953125 C106.89203563 124.36506783 105.32316558 122.15662848 103.65234375 119.3125 C87.63605918 93.3846389 62.47369661 74.98300302 32.96484375 67.4375 C-10.2217854 57.63196792 -52.93876295 72.42319521 -82.03515625 105.4375 Z " fill="#4C4C4C" transform="translate(243.03515625,148.5625)"/>
<path d="M0 0 C4.06264781 2.10655812 6.2977237 3.77525973 8 8 C8.3359375 10.1484375 8.3359375 10.1484375 8.375 12.375 C8.40335937 13.10460937 8.43171875 13.83421875 8.4609375 14.5859375 C7.11305826 21.64516943 0.35951372 26.94685257 -4.4921875 31.79296875 C-5.31574738 32.62081375 -6.13930725 33.44865875 -6.98782349 34.30158997 C-8.72517453 36.04466741 -10.46512992 37.78515248 -12.20751953 39.52319336 C-14.86769378 42.18020247 -17.51425567 44.85027006 -20.16015625 47.52148438 C-21.85335551 49.21695629 -23.54733985 50.91164462 -25.2421875 52.60546875 C-26.02987518 53.40236618 -26.81756287 54.19926361 -27.62911987 55.02030945 C-36.29124331 63.6102456 -36.29124331 63.6102456 -42.37890625 64.25 C-46.61667059 63.76481768 -48.58826868 63.33453169 -52 60.5625 C-54.54056826 57.30739692 -55.24798908 55.44497636 -55.5 51.375 C-55.5721875 50.55773437 -55.644375 49.74046875 -55.71875 48.8984375 C-53.8363388 41.30740971 -44.9794209 34.81958225 -39.58203125 29.4140625 C-38.80236496 28.63106781 -38.02269867 27.84807312 -37.21940613 27.04135132 C-35.58450849 25.40142587 -33.94828533 23.7628209 -32.31079102 22.12548828 C-29.80391683 19.61640928 -27.30517197 17.09941482 -24.80664062 14.58203125 C-23.21142687 12.98388638 -21.61574038 11.38621321 -20.01953125 9.7890625 C-19.27467972 9.03702545 -18.52982819 8.2849884 -17.7624054 7.51016235 C-16.71562874 6.46800064 -16.71562874 6.46800064 -15.64770508 5.40478516 C-15.03816483 4.79381989 -14.42862457 4.18285461 -13.8006134 3.55337524 C-9.62765086 -0.04660724 -5.43452434 -0.85698268 0 0 Z " fill="#4C4C4C" transform="translate(315,74)"/>
<path d="M0 0 C4.1185067 2.09669432 6.23936908 3.77418997 8 8 C9.15946494 16.45258795 5.91644125 23.48132071 2.72045898 31.13110352 C1.81086669 33.31642406 0.93444124 35.51308756 0.06054688 37.71289062 C-0.51369516 39.11797775 -1.08980348 40.5223039 -1.66796875 41.92578125 C-1.92652145 42.57686356 -2.18507416 43.22794586 -2.45146179 43.89875793 C-4.55179816 48.83912442 -7.21927077 51.60963538 -12 54 C-18.10465114 54.50872093 -21.11952826 54.06705978 -26 50 C-28.91075039 45.63387442 -28.67489855 42.12989389 -28 37 C-26.76332505 32.75961755 -25.20872949 28.69236589 -23.52001953 24.61230469 C-22.74833947 22.74598397 -22.00322644 20.87067365 -21.26171875 18.9921875 C-12.79020268 -2.01717235 -12.79020268 -2.01717235 0 0 Z " fill="#4C4C4C" transform="translate(234,48)"/>
<path d="M0 0 C4.45723375 2.31433291 6.78968953 4.52801353 9 9 C9.61088321 13.46147754 9.46367079 17.93850356 9.4375 22.4375 C9.4674707 24.25991211 9.4674707 24.25991211 9.49804688 26.11914062 C9.4919399 37.26437439 9.4919399 37.26437439 5 42 C0.73755081 44.8416328 -2.99967088 44.50403317 -8 44 C-11.35111484 42.71659432 -12.56848108 41.61840546 -14.60546875 38.69921875 C-16.69801854 33.14839339 -16.43344776 27.81799391 -16.375 21.9375 C-16.38660156 20.76638672 -16.39820313 19.59527344 -16.41015625 18.38867188 C-16.40628906 17.25880859 -16.40242187 16.12894531 -16.3984375 14.96484375 C-16.39505371 13.9399585 -16.39166992 12.91507324 -16.38818359 11.85913086 C-15.75314295 7.18179692 -13.81022545 4.68132594 -10.25 1.6875 C-6.38396703 -0.31986327 -4.30179863 -0.61454266 0 0 Z " fill="#4C4C4C" transform="translate(160,45)"/>
</svg>
