<?xml version="1.0" encoding="UTF-8"?>
<svg version="1.1" xmlns="http://www.w3.org/2000/svg" width="512" height="512">
<path d="M0 0 C2.73052916 1.1182167 5.03729106 2.22599421 7.5625 3.6875 C8.28518066 4.08759277 9.00786133 4.48768555 9.75244141 4.89990234 C12.17840407 6.24936002 14.58919388 7.62366933 17 9 C18.75595187 9.98927332 20.51248021 10.97752399 22.26953125 11.96484375 C26.10916962 14.12669686 29.94266564 16.29904147 33.7734375 18.4765625 C40.32528999 22.19394042 46.91135623 25.848355 53.5 29.5 C55.76307633 30.75901484 58.02609742 32.01812897 60.2890625 33.27734375 C64.73168216 35.74754345 69.18576647 38.19514302 73.6484375 40.62890625 C75.72412023 41.77314387 77.79964834 42.91766201 79.875 44.0625 C81.30102539 44.83013672 81.30102539 44.83013672 82.75585938 45.61328125 C83.63822266 46.103125 84.52058594 46.59296875 85.4296875 47.09765625 C86.19522949 47.51539307 86.96077148 47.93312988 87.74951172 48.36352539 C94.56819836 53.32183051 96.06517356 58.57372072 97.5871582 66.54760742 C97.80246689 67.59705032 98.01777557 68.64649323 98.23960876 69.72773743 C98.94408657 73.18371569 99.62263026 76.64423679 100.30078125 80.10546875 C100.78537948 82.51139596 101.27150059 84.91701689 101.75907898 87.32234192 C103.03622114 93.64566 104.29101335 99.97322056 105.54168701 106.30181885 C106.5682564 111.47677229 107.61056095 116.6484957 108.65372944 121.82012463 C109.89534934 127.97671774 111.13046065 134.13460817 112.36328125 140.29296875 C112.59930872 141.47175283 112.83533619 142.65053692 113.07851601 143.86504173 C113.7424177 147.18954265 114.40196762 150.51487248 115.05981445 153.84057617 C115.35660599 155.32507767 115.35660599 155.32507767 115.65939331 156.83956909 C115.8372789 157.74375076 116.01516449 158.64793243 116.19844055 159.57951355 C116.35418202 160.3653844 116.5099235 161.15125525 116.67038441 161.96094036 C117 164 117 164 117 167 C117.55015054 166.99723462 118.10030107 166.99446924 118.66712284 166.99162006 C132.07193815 166.92528094 145.47672458 166.87587262 158.88166904 166.84456348 C165.36429019 166.82891309 171.84679278 166.80768586 178.3293457 166.77368164 C184.58630983 166.74106644 190.84315998 166.72314227 197.10020256 166.71536827 C199.4863966 166.70982869 201.87258446 166.69901128 204.25872993 166.68280983 C207.6030433 166.66100735 210.94688667 166.65803433 214.29125977 166.65942383 C215.2759726 166.648638 216.26068542 166.63785217 217.27523804 166.6267395 C222.9382644 166.65217016 227.08060578 167.08048611 232 170 C234.62858286 173.56502703 235.35923889 175.91752101 235.12171745 180.31273651 C235.07395546 181.34280964 235.02619347 182.37288278 234.97698414 183.43417025 C234.90932028 184.53769948 234.84165642 185.64122872 234.77194214 186.77819824 C234.71368472 187.93495292 234.6554273 189.0917076 234.59540451 190.28351545 C234.41196135 193.85666498 234.20689993 197.42814167 234 201 C233.89219259 203.04542046 233.78576652 205.09091435 233.68094254 207.13648987 C233.36084661 213.27536539 233.00621069 219.41202241 232.64892578 225.54882812 C232.51553657 227.87137334 232.3823332 230.19392923 232.2492981 232.51649475 C231.81839741 240.02163279 231.382119 247.52645373 230.9453125 255.03125 C230.79398765 257.63568523 230.64268036 260.24012147 230.49139023 262.84455872 C229.86218025 273.66989518 229.23168975 284.4951553 228.59718513 295.3201828 C228.43407746 298.10326546 228.2709819 300.88634883 228.10791016 303.66943359 C228.0471359 304.70660793 228.0471359 304.70660793 227.98513387 305.76473528 C227.3260544 317.01732485 226.67704022 328.2704721 226.03204717 339.52387697 C225.36638076 351.13502839 224.69143713 362.74561092 224.00805652 374.35573339 C223.62590465 380.85215273 223.2477231 387.34874505 222.87936783 393.84596252 C222.53363532 399.94042786 222.17649772 406.0341191 221.81064987 412.12740898 C221.67869325 414.3579899 221.55082436 416.58881709 221.42741394 418.81988716 C221.25793511 421.87236194 221.07354002 424.92359409 220.88552856 427.97497559 C220.84047593 428.8502668 220.7954233 429.72555802 220.74900544 430.62737322 C220.07560365 440.9471436 217.67863332 448.88161031 210 456 C202.83251405 461.79498864 195.10260197 462.29979951 186.25439453 462.2746582 C185.31343933 462.27976913 184.37248413 462.28488007 183.40301514 462.29014587 C180.31288169 462.30397078 177.22297307 462.30309041 174.1328125 462.30078125 C171.97101764 462.30467214 169.80922354 462.30900762 167.64743042 462.31376648 C163.12348957 462.32121348 158.59962678 462.32094847 154.07568359 462.31567383 C148.29688328 462.30988202 142.51840376 462.32681084 136.73965645 462.3500185 C132.27678581 462.36479652 127.8139917 462.36562199 123.35110092 462.36250877 C121.22138712 462.36301996 119.09166882 462.36821945 116.96197891 462.37832069 C113.9759093 462.39074643 110.99045532 462.38385662 108.00439453 462.37231445 C107.13654327 462.37995819 106.26869202 462.38760193 105.37454224 462.39547729 C96.52397538 462.32038935 87.48421332 460.40150651 81 454 C74.86499936 446.24966675 73.71714749 438.22402776 73.19003296 428.62738037 C73.12707082 427.59602187 73.06410869 426.56466338 72.99923861 425.50205159 C72.79065033 422.05352936 72.5933388 418.60445609 72.39599609 415.15527344 C72.24858858 412.67946957 72.100495 410.20370646 71.95176697 407.72798157 C71.59177083 401.70504183 71.23908988 395.68171417 70.88978623 389.6581482 C70.48223899 382.63579679 70.06627889 375.61395123 69.64996798 368.59211484 C68.90701285 356.05608777 68.17157943 343.51963081 67.44042969 330.98291016 C66.73191769 318.83447861 66.01829078 306.68636225 65.29882812 294.53857422 C65.23240889 293.41709715 65.23240889 293.41709715 65.16464786 292.27296397 C65.12044195 291.52657232 65.07623604 290.78018068 65.03069055 290.0111711 C64.94167365 288.508138 64.85265915 287.00510476 64.76364708 285.50207138 C64.71974266 284.76071886 64.67583825 284.01936633 64.6306034 283.25554858 C63.9440455 271.6588716 63.26230384 260.06191089 62.58099949 248.46492426 C62.33454299 244.27091651 62.08735697 240.07695248 61.83962987 235.8830196 C61.40949312 228.60077495 60.98265967 221.31834648 60.55943489 214.03569603 C60.41864167 211.62140939 60.27676732 209.20718551 60.13371468 206.79303169 C59.93813604 203.4890398 59.74657008 200.18483823 59.55599976 196.8805542 C59.49899977 195.93296037 59.44199979 194.98536655 59.38327253 194.00905776 C58.40046225 176.69281248 58.40046225 176.69281248 60.0625 172 C63.58193074 168.36703923 67.15197428 167.14286084 72.10131836 166.76025391 C75.71783584 166.70507854 79.32135641 166.73854636 82.9375 166.8125 C84.19369141 166.82603516 85.44988281 166.83957031 86.74414062 166.85351562 C89.82989591 166.88871435 92.91464503 166.94058563 96 167 C95.7359285 166.04867187 95.7359285 166.04867187 95.46652222 165.078125 C93.319168 156.96198609 91.85713294 148.80241072 90.45437622 140.53125 C89.303406 133.74684685 88.05453657 126.98092323 86.80093575 120.21484375 C85.85717504 115.09787575 84.94736181 109.97926567 84.10986328 104.84375 C81.53809286 81.33853915 81.53809286 81.33853915 70.1484375 61.83740234 C65.84381854 59.02479668 61.37758238 57.25121074 56.46502686 55.7845459 C52.93223959 54.66016311 50.09609621 52.95149627 46.921875 51.0390625 C44.86524076 49.89985399 42.80795457 48.76182163 40.75 47.625 C38.46206105 46.35709294 36.17430521 45.08885542 33.88671875 43.8203125 C32.75024902 43.1902832 31.6137793 42.56025391 30.44287109 41.91113281 C24.81026349 38.7844804 19.18512759 35.64455692 13.5625 32.5 C12.57540039 31.94908691 11.58830078 31.39817383 10.57128906 30.83056641 C8.67270187 29.76796276 6.77663529 28.70084107 4.88330078 27.62890625 C2.84696151 26.47848664 0.80286487 25.34174672 -1.24658203 24.21484375 C-2.31118652 23.61800781 -3.37579102 23.02117188 -4.47265625 22.40625 C-5.4356665 21.87322266 -6.39867676 21.34019531 -7.39086914 20.79101562 C-10.72729666 18.50075341 -13.49795128 15.94913032 -14.53125 11.9375 C-14.45268119 7.06623398 -13.64203894 4.53492015 -10 1 C-6.77794943 -0.61102529 -3.49718028 -0.41664858 0 0 Z M80 188 C80.66 196.58 81.32 205.16 82 214 C86.29 214.33 90.58 214.66 95 215 C100 218 100 218 101.375 220.3125 C102.35308491 224.51826509 101.82923372 227.60537966 99.625 231.3125 C96.6136834 234.43963647 92.93400586 234.25227913 88.8125 234.5625 C87.72582031 234.64628906 86.63914062 234.73007813 85.51953125 234.81640625 C84.68808594 234.87699219 83.85664063 234.93757813 83 235 C84.72085344 271.31196774 86.94043591 307.5970609 89.09595048 343.88515997 C89.51426084 350.9303534 89.93011478 357.97569027 90.34541565 365.02106166 C90.7509876 371.90017029 91.15791825 378.77919761 91.56595558 385.65816045 C91.8075854 389.73180873 92.04875069 393.80548297 92.28863716 397.87923431 C92.51281074 401.68499652 92.73869871 405.4906533 92.96586609 409.29623795 C93.04829096 410.68163923 93.13013832 412.06707502 93.21133232 413.45254898 C93.39187187 416.53052774 93.58068608 419.60749921 93.78531075 422.68398285 C93.92595749 424.8563646 94.04438424 427.03032546 94.13807487 429.20523834 C94.44479505 434.66750897 94.44479505 434.66750897 96.48730469 439.65515137 C100.34166762 441.7180894 103.89332451 441.55736821 108.203125 441.51757812 C109.13362671 441.5245874 110.06412842 441.53159668 111.02282715 441.53881836 C114.09885493 441.55642461 117.17396285 441.54476606 120.25 441.53125 C122.38704607 441.53394415 124.52409094 441.53782593 126.66113281 441.54284668 C131.14009267 441.5487453 135.61873347 441.54016683 140.09765625 441.52148438 C145.84142452 441.49869487 151.5844452 441.51181597 157.32818604 441.53577423 C161.74110557 441.55022221 166.1538476 441.54563076 170.56677246 441.53526306 C172.68469328 441.53259302 174.80263017 441.53587524 176.92053223 441.54518127 C179.87974795 441.55533018 182.83774979 441.5398686 185.796875 441.51757812 C186.67388062 441.52567505 187.55088623 441.53377197 188.45446777 441.54211426 C192.11959381 441.49091769 194.35669188 441.39635236 197.51834106 439.44841003 C199.52328944 436.13527528 199.7420548 433.08399995 199.90966797 429.30786133 C199.9592547 428.52773713 200.00884144 427.74761293 200.0599308 426.94384861 C200.22186498 424.32397596 200.35690921 421.7034055 200.4921875 419.08203125 C200.60308528 417.19844169 200.71563569 415.31494881 200.82971191 413.43154907 C201.13588326 408.29867894 201.41883897 403.16475663 201.69780731 398.03034592 C201.99427297 392.64648489 202.31198041 387.26387888 202.62744141 381.88110352 C203.16080007 372.73096381 203.6807323 363.5801436 204.19140625 354.42871094 C204.94533222 340.92025954 205.72213481 327.41318829 206.50399399 313.9063282 C208.02601782 287.60553092 209.5212294 261.3032619 211 235 C210.15919388 234.99413376 209.31838776 234.98826752 208.45210266 234.98222351 C200.52147158 234.92427754 192.59112157 234.85218994 184.66076374 234.76428509 C180.58383988 234.71959101 176.50701573 234.68033293 172.42993164 234.65356445 C168.49400141 234.62752161 164.55845505 234.58711271 160.62276268 234.53681374 C159.1225481 234.52015157 157.62226714 234.50863322 156.12197304 234.50238609 C154.01751254 234.49273751 151.91403262 234.46467174 149.80981445 234.43237305 C148.61290482 234.42126999 147.41599518 234.41016693 146.18281555 234.39872742 C142.06681836 233.88309561 139.26156926 232.54828955 136.625 229.3125 C135.66542745 225.76208156 136.07444389 222.53667783 137 219 C138.87613927 216.35634921 139.85723843 216.04758719 143 215 C145.22277582 214.88199594 147.44883551 214.82305674 149.67456055 214.79467773 C150.347995 214.78477814 151.02142944 214.77487854 151.715271 214.76467896 C153.93905127 214.73311611 156.1628529 214.70832725 158.38671875 214.68359375 C159.92943372 214.66301971 161.4721431 214.64202312 163.0148468 214.62062073 C167.07377602 214.5654465 171.13275573 214.51601675 175.19177246 214.46777344 C179.33427418 214.41752446 183.47670266 214.36185613 187.61914062 214.30664062 C195.74603181 214.19911591 203.8729843 214.09765834 212 214 C213.1780527 205.2487514 213 196.94867236 213 188 C182.97 188 152.94 188 122 188 C122.59538225 193.95382252 123.1355036 199.29998678 124.33509827 205.05761719 C124.46662637 205.69613995 124.59815447 206.3346627 124.73366827 206.99253464 C125.1679749 209.09501203 125.60948233 211.19590651 126.05102539 213.296875 C126.36690796 214.81895403 126.68230899 216.34113306 126.99726868 217.86340332 C127.67270343 221.12359753 128.35118325 224.38313734 129.03199959 227.64221191 C130.10967805 232.80279026 131.17844989 237.96518856 132.24571228 243.12792969 C135.28068654 257.80237792 138.3278021 272.47429266 141.38305664 287.14453125 C143.07320474 295.26041139 144.75618545 303.37774588 146.43161577 311.4966774 C147.48975022 316.62208267 148.55671871 321.74554126 149.63042271 326.8677063 C150.29774838 330.06158934 150.95673176 333.257152 151.61344719 336.45323181 C151.91796175 337.92686676 152.22583627 339.39981234 152.53744507 340.8719635 C156.48510698 359.54467906 156.48510698 359.54467906 154 367 C149.39450302 369.1930938 145.91091803 369.27320097 141 368 C136.4031829 364.65181029 135.88050607 360.63018134 134.87890625 355.34619141 C134.69824112 354.46087612 134.51757599 353.57556084 134.33143616 352.66341782 C133.72755405 349.68714231 133.14532925 346.70702631 132.5625 343.7265625 C132.13286195 341.59007782 131.70166927 339.45390526 131.26904297 337.31802368 C130.33193285 332.68128357 129.40318734 328.04297024 128.47998047 323.40344238 C126.97120958 315.83511206 125.4286496 308.27390074 123.87890625 300.71386719 C123.61068122 299.40501146 123.34246226 298.09615449 123.07424927 296.7872963 C122.66777105 294.80391355 122.26125265 292.82053909 121.85461998 290.83718801 C120.48107655 284.13682926 119.11285759 277.43538698 117.74554825 270.73375368 C117.33199051 268.70683157 116.91831031 266.67993448 116.50460815 264.65304184 C115.09559703 257.74902326 113.68815571 250.84468768 112.28271484 243.93994141 C111.02699651 237.77085547 109.7686455 231.60231283 108.50729752 225.43437541 C107.84810122 222.21036922 107.19066013 218.98602132 106.53570557 215.76115036 C105.81495827 212.21294826 105.08965618 208.66570598 104.36328125 205.11865234 C104.15241379 204.07484406 103.94154633 203.03103577 103.72428894 201.95559692 C103.52563736 200.99018982 103.32698578 200.02478271 103.12231445 199.03012085 C102.95278763 198.19832495 102.7832608 197.36652905 102.6085968 196.50952721 C101.90937407 193.6263072 100.93818282 190.81454846 100 188 C93.4 188 86.8 188 80 188 Z " fill="#4C4C4C" transform="translate(106,9)"/>
<path d="M0 0 C0.86478071 -0.00445784 1.72956141 -0.00891569 2.62054759 -0.01350862 C4.05412594 -0.01323207 4.05412594 -0.01323207 5.51666546 -0.01294994 C7.03301847 -0.01846498 7.03301847 -0.01846498 8.58000487 -0.02409142 C11.98937265 -0.03516165 15.39870998 -0.03897773 18.80809307 -0.04278088 C21.24359516 -0.04904294 23.67909629 -0.05568951 26.11459637 -0.0626936 C33.43902461 -0.08194512 40.76344477 -0.09252496 48.08789089 -0.10142139 C51.53558237 -0.10580287 54.9832723 -0.11117002 58.43096256 -0.11641026 C69.88914483 -0.13342295 81.34732614 -0.14791783 92.8055191 -0.155159 C95.7796844 -0.15706894 98.75384968 -0.15898927 101.72801495 -0.16094494 C102.83685981 -0.16167055 102.83685981 -0.16167055 103.96810558 -0.16241082 C115.94712191 -0.17071376 127.92603847 -0.19605489 139.90501121 -0.22852562 C152.1985056 -0.26157773 164.49194925 -0.27960606 176.78548831 -0.28280324 C183.68993992 -0.28497001 190.59424601 -0.29374295 197.49865437 -0.31926441 C203.99190509 -0.34321039 210.48496476 -0.3468087 216.97825336 -0.33650303 C219.36436108 -0.33600574 221.75048138 -0.34238264 224.13654995 -0.35605907 C227.38865459 -0.37365972 230.63980558 -0.36672967 233.8919096 -0.35352612 C234.84093633 -0.36449536 235.78996306 -0.37546461 236.76774818 -0.38676625 C241.00804689 -0.34506859 243.28870844 -0.2398447 246.96696281 2.03042793 C249.6658473 4.97569931 249.86280982 7.0029416 250.10570049 10.87640858 C249.77458699 14.42054942 248.19216902 16.50861419 245.89476299 19.13422108 C243.60652515 20.27834 242.33296452 20.26333057 239.78952599 20.27123547 C238.49235493 20.27884728 238.49235493 20.27884728 237.16897839 20.28661287 C236.2132595 20.28711063 235.2575406 20.28760838 234.27286053 20.28812122 C233.26195852 20.29250348 232.25105651 20.29688573 231.20952111 20.30140078 C227.80015656 20.31482465 224.39081787 20.32097565 220.98143291 20.32709217 C218.54593062 20.33499022 216.11042949 20.34325898 213.67492962 20.35187244 C206.3505053 20.37585732 199.02608524 20.39102427 191.70163509 20.40393251 C189.63353833 20.40764367 187.56544225 20.41161696 185.49734616 20.41568518 C172.65957319 20.44091957 159.82179918 20.46297649 146.98400688 20.47541332 C144.00984156 20.4783431 141.03567628 20.48130475 138.06151104 20.48431873 C137.32228113 20.48506478 136.58305122 20.48581083 135.82142041 20.48657949 C123.84237931 20.49923713 111.86348651 20.53246522 99.88451477 20.57412057 C87.5910214 20.61651987 75.29760399 20.64010597 63.00403768 20.64533389 C56.09954776 20.64875017 49.19528965 20.66053067 42.29087162 20.69343662 C35.79759597 20.72433211 29.30461403 20.72986523 22.81127262 20.71805286 C20.42515845 20.71783129 18.03902604 20.72620542 15.65297604 20.7437067 C12.40069663 20.76626736 9.14990147 20.75816327 5.89761639 20.74222279 C4.94858966 20.75610487 3.99956293 20.76998696 3.02177781 20.78428972 C-1.55269889 20.72886813 -3.46909707 20.63541826 -7.16791534 17.72122097 C-10.01525745 13.91902649 -10.56395769 11.90491615 -10.10523701 7.13422108 C-7.24481615 2.0808109 -5.77858292 0.01378246 0 0 Z " fill="#4C4C4C" transform="translate(105.10523700714111,482.86577892303467)"/>
<path d="M0 0 C6.95711665 6.98336992 10.06467328 14.20608869 10.375 24 C10.06527239 33.77500351 6.96934798 41.04372772 0 48 C-8.26497953 54.39340565 -16.7280931 56.92544656 -27.09765625 55.66015625 C-36.23523065 53.58175777 -43.90998683 48.91149679 -49 41 C-53.83242603 32.71996257 -54.50136225 23.44963903 -52.33984375 14.1640625 C-49.26076858 5.49999818 -44.14344918 -0.14736179 -36.0625 -4.4375 C-23.71113132 -10.05454127 -10.69366422 -8.65853781 0 0 Z M-30 17 C-32.46141247 20.6921187 -32.68650207 23.71354805 -32 28 C-29.93110348 31.39890142 -27.88720463 33.88937011 -24 35 C-18.70434916 34.80743088 -15.80229819 33.69046589 -12 30 C-10.39693076 26.79386153 -10.51259539 23.47860003 -11 20 C-13.09942525 16.55094424 -15.1334581 14.2888473 -19 13 C-23.7731822 12.24633965 -26.28767062 14.1126327 -30 17 Z " fill="#4C4C4C" transform="translate(295,388)"/>
<path d="M0 0 C5.57740874 4.8259263 8.49971391 10.53448342 9.31640625 17.82421875 C9.64074562 25.99547825 8.48171663 32.98473937 3.01171875 39.29296875 C-3.24072763 45.22145417 -8.77761477 48.03902568 -17.375 48.4375 C-24.92205722 48.18662829 -31.26895116 45.9414383 -36.875 40.8125 C-43.18532072 33.74136047 -44.74994541 26.85456317 -44.4453125 17.44140625 C-43.54902659 10.51484586 -40.71873325 5.24894311 -35.5625 0.5625 C-24.35887701 -8.02209424 -11.60818407 -7.75883806 0 0 Z " fill="#4C4C4C" transform="translate(302,275)"/>
<path d="M0 0 C5.32713193 2.77286997 8.12996179 6.71801038 9.99609375 12.31640625 C10.41751311 17.79485795 9.67096775 21.50163306 6.99609375 26.31640625 C2.92192886 30.6354663 -0.90742812 32.45644759 -6.81640625 32.62890625 C-11.67005435 32.57238633 -14.28560571 31.59205197 -18.00390625 28.31640625 C-22.6267156 23.06889293 -23.35721625 19.96886235 -23.28515625 13.078125 C-22.76310299 7.95185206 -20.1282709 5.33107679 -16.44140625 2.00390625 C-11.59147735 -1.35373684 -5.58897004 -1.90656873 0 0 Z " fill="#4C4C4C" transform="translate(222.00390625,360.68359375)"/>
<path d="M0 0 C0.71353638 -0.00241196 1.42707275 -0.00482391 2.16223145 -0.00730896 C3.66501444 -0.0063331 5.16783454 0.0069986 6.67041016 0.03198242 C8.96251287 0.06631283 11.25075972 0.05262863 13.54296875 0.03320312 C15.00782881 0.04010207 16.47267897 0.04977492 17.9375 0.0625 C18.61784302 0.05754013 19.29818604 0.05258026 19.99914551 0.04747009 C24.72948346 0.16376139 27.13762226 1.3012776 30.46875 4.62890625 C32.06961627 7.83063879 31.96792089 11.15467684 31.46875 14.62890625 C29.67511089 17.43894085 28.44994065 19.13831093 25.46875 20.62890625 C20.9748164 20.91129629 16.47719388 20.94262132 11.97558594 20.97900391 C10.47803163 20.9955282 8.98055505 21.02277231 7.48339844 21.06103516 C5.31664414 21.11608967 3.15173656 21.13772015 0.984375 21.15234375 C-0.31209961 21.17216309 -1.60857422 21.19198242 -2.94433594 21.21240234 C-7.65044079 20.44684349 -9.22051769 18.99827166 -12.53125 15.62890625 C-13.29296875 13.12890625 -13.29296875 13.12890625 -13.21875 10.62890625 C-13.22261719 9.80390625 -13.22648437 8.97890625 -13.23046875 8.12890625 C-11.34240923 1.37830239 -6.36106908 -0.12396156 0 0 Z " fill="#4C4C4C" transform="translate(388.53125,482.37109375)"/>
</svg>
