<?xml version="1.0" encoding="UTF-8"?>
<svg version="1.1" xmlns="http://www.w3.org/2000/svg" width="512" height="512">
<path d="M0 0 C1.30228043 -0.01283524 2.60456085 -0.02567047 3.94630432 -0.03889465 C5.36255508 -0.04706641 6.77881021 -0.05450931 8.19506836 -0.0612793 C8.91468687 -0.06535482 9.63430538 -0.06943035 10.37573051 -0.07362938 C14.18912335 -0.09444842 18.00248071 -0.10876479 21.81591797 -0.11816406 C25.72378843 -0.12918496 29.63108268 -0.16354594 33.53875065 -0.20333576 C36.56997111 -0.22968707 39.60105847 -0.2378724 42.63238335 -0.24144554 C44.07107852 -0.24626847 45.50976952 -0.25775726 46.94835091 -0.27648354 C59.8600454 -0.43403444 70.74530352 1.26931501 80.27319336 10.53637695 C87.67599001 19.42499247 89.64164115 28.30775626 89.54988098 39.48736572 C89.54458776 40.89919966 89.54458776 40.89919966 89.53918761 42.3395555 C89.53085869 44.40158899 89.52018977 46.46361401 89.50749397 48.52562523 C89.48684657 51.88134025 89.47208459 55.23703649 89.45889282 58.5927887 C89.44462096 62.20800241 89.42996076 65.82321041 89.41353285 69.43841505 C89.37318866 78.40269753 89.35243738 87.36687127 89.34367371 96.33123779 C89.34239009 97.63192271 89.34110648 98.93260762 89.33978397 100.27270722 C89.33490451 105.63820769 89.3307178 111.00370838 89.3269974 116.36920977 C89.32403938 120.49736138 89.32032514 124.62551179 89.31591797 128.75366211 C89.31519536 129.43930582 89.31447274 130.12494953 89.31372824 130.83137032 C89.30082462 141.93793303 89.24849156 153.04399463 89.18251947 164.15035358 C89.11571818 175.56273169 89.09551759 186.97434584 89.11498755 198.38694453 C89.12432797 204.79126807 89.11225796 211.19394747 89.04902077 217.59799957 C88.99001721 223.62340018 88.98712959 229.64623376 89.02701187 235.67176628 C89.03172678 237.8804741 89.0159714 240.08933684 88.97802925 242.29772377 C88.23181024 254.16444094 88.23181024 254.16444094 93.05994225 264.38420868 C96.09909377 266.67984416 99.10863386 268.40769436 102.47241211 270.17700195 C127.17069326 290.09644053 142.11738156 318.10779257 145.72241211 349.48950195 C146.010761 352.38297567 146.25537836 355.27737262 146.47241211 358.17700195 C146.54588867 359.11543945 146.61936523 360.05387695 146.69506836 361.02075195 C147.75542966 390.1576365 136.08912241 419.78356125 116.97241211 441.42700195 C115.48104932 443.01847343 113.98125722 444.60209533 112.47241211 446.17700195 C111.78791992 446.9246582 111.10342773 447.67231445 110.39819336 448.44262695 C89.67233319 470.35610572 59.11215973 481.64675511 29.3449707 482.52856445 C-2.77573358 482.84587127 -33.05281498 470.88984303 -56.59008789 449.08325195 C-79.54733078 426.49628718 -92.56292562 395.39419665 -92.90258789 363.23950195 C-92.54125147 328.9727648 -78.87163542 299.00082074 -54.72460938 275.01074219 C-50.02957446 270.4806488 -45.07665435 266.62200195 -39.52758789 263.17700195 C-38.53758789 262.51700195 -37.54758789 261.85700195 -36.52758789 261.17700195 C-36.22779322 258.11725864 -36.12532533 255.25890356 -36.14904785 252.19616699 C-36.14451772 251.25412965 -36.13998759 250.31209231 -36.13532019 249.34150839 C-36.12363422 246.16479021 -36.13336837 242.98848811 -36.14282227 239.81176758 C-36.13871983 237.54200975 -36.13326092 235.27225403 -36.12654114 233.00250244 C-36.11478601 228.10354807 -36.11234267 223.20470645 -36.11689758 218.30574036 C-36.12368906 210.55683614 -36.10786879 202.80808101 -36.08850098 195.0592041 C-36.06345902 184.19091611 -36.04674405 173.3226589 -36.03881836 162.4543457 C-36.03831118 161.76427718 -36.037804 161.07420866 -36.03728145 160.36322898 C-36.03375605 155.46782015 -36.0306274 150.5724111 -36.02758789 145.67700195 C-36.02412187 140.09887674 -36.02047163 134.52075173 -36.01635742 128.94262695 C-36.0156035 127.91242171 -36.0156035 127.91242171 -36.01483434 126.86140424 C-36.0060768 115.39163675 -35.98548755 103.92192843 -35.95687532 92.45219183 C-35.93852711 84.75269948 -35.93462446 77.05337652 -35.94181061 69.35386753 C-35.94333492 64.55475159 -35.93253221 59.75571992 -35.91843224 54.95662689 C-35.91443677 52.73549976 -35.9155423 50.51435651 -35.92220497 48.29323578 C-35.93062133 45.25318755 -35.9205558 42.21371966 -35.90612793 39.17370605 C-35.91302186 38.3014987 -35.9199158 37.42929135 -35.92701864 36.53065348 C-35.8244639 25.38289382 -32.40810928 17.12923702 -24.60571289 9.23168945 C-17.22746712 2.39680287 -10.02744384 0.08636617 0 0 Z M-11.52758789 26.17700195 C-14.54879312 32.33021744 -14.95502219 38.48413695 -14.89266968 45.2230835 C-14.89734817 46.68102935 -14.89734817 46.68102935 -14.90212119 48.16842866 C-14.9090295 51.40419297 -14.89476808 54.63950877 -14.88061523 57.87524414 C-14.88144654 60.20340562 -14.88366431 62.53156695 -14.88716125 64.85972595 C-14.89210188 69.86225297 -14.88803144 74.86466257 -14.87714767 79.86717987 C-14.8621595 87.10529399 -14.86707727 94.34326817 -14.87876411 101.58138397 C-14.89762878 113.33379795 -14.90687663 125.08619419 -14.90649414 136.83862305 C-14.9064767 137.54099768 -14.90645926 138.24337232 -14.90644129 138.96703103 C-14.90598873 146.80938373 -14.90265307 154.65173005 -14.89556885 162.49407959 C-14.89462027 163.55288407 -14.89462027 163.55288407 -14.89365254 164.63307853 C-14.89270369 165.69090835 -14.89270369 165.69090835 -14.89173567 166.77010846 C-14.89046588 168.19236072 -14.88920047 169.61461297 -14.88793945 171.03686523 C-14.88731126 171.73959166 -14.88668307 172.44231808 -14.88603584 173.16633925 C-14.87608415 184.88152959 -14.88539805 196.59661416 -14.91012347 208.31178212 C-14.92538358 216.17585426 -14.91783749 224.039475 -14.89341331 231.90351915 C-14.88336439 236.7887444 -14.89400871 241.67376102 -14.91052818 246.55896187 C-14.91398834 248.82735359 -14.9088468 251.09577684 -14.89455986 253.36412621 C-14.87628647 256.45624509 -14.88856274 259.54678151 -14.90853882 262.63885498 C-14.88945939 263.99103217 -14.88945939 263.99103217 -14.86999452 265.37052608 C-14.93183487 269.79952326 -15.06268296 271.59337063 -17.90734291 275.16449356 C-20.4442627 277.11300311 -22.96679081 278.85351418 -25.71508789 280.48950195 C-34.50887862 285.9575118 -42.10857231 292.02470527 -48.52758789 300.17700195 C-49.1630957 300.96461914 -49.79860352 301.75223633 -50.45336914 302.5637207 C-67.46983436 324.66860465 -73.23479064 351.25864263 -70.2434082 378.79272461 C-66.48768682 402.61084508 -52.31789621 425.3773217 -33.52758789 440.17700195 C-10.06001853 457.22338362 16.48534032 464.01374256 45.42163086 459.5168457 C72.14936332 454.33225198 94.55386027 437.69507053 109.62475586 415.47827148 C115.82628687 406.02976449 119.42243646 395.98347379 122.47241211 385.17700195 C122.74053711 384.24758789 123.00866211 383.31817383 123.28491211 382.3605957 C127.77209783 362.94728524 124.45436269 341.1193353 116.47241211 323.17700195 C116.03026367 322.17024414 115.58811523 321.16348633 115.13256836 320.1262207 C106.1462892 300.93391813 91.16852187 286.91713438 73.21459961 276.23950195 C70.02932833 273.84374236 69.54700287 272.95970661 68.47241211 269.17700195 C68.18743973 265.96218361 68.20004495 262.76173519 68.21412659 259.53601074 C68.21045088 258.55929743 68.20677518 257.58258412 68.20298809 256.57627344 C68.19300078 253.30055183 68.19716037 250.02499972 68.20117188 246.74926758 C68.19678532 244.40199096 68.19148342 242.0547159 68.18533325 239.70744324 C68.17382776 234.65140328 68.16837344 229.59540526 68.16745186 224.53935242 C68.16567721 217.22373039 68.15100805 209.90817517 68.13195669 202.59258181 C68.10112401 190.71594615 68.07695378 178.83930856 68.05908203 166.96264648 C68.05747301 165.89671968 68.05747301 165.89671968 68.05583148 164.809259 C68.04400924 156.87957525 68.03380369 148.94989073 68.02539062 141.02020264 C68.02231662 138.14392088 68.01922785 135.26763914 68.01611328 132.39135742 C68.01496527 131.32673046 68.01496527 131.32673046 68.01379407 130.24059588 C68.00071468 118.40802146 67.97607946 106.57550244 67.94236988 94.74296904 C67.92027007 86.79540139 67.91253945 78.84795057 67.91476262 70.90035248 C67.91309895 65.96053251 67.89906952 61.02080522 67.88154984 56.08101845 C67.87593829 53.78683965 67.8754761 51.49264173 67.88048744 49.19846153 C67.886603 46.07142556 67.87444355 42.94497784 67.85768127 39.81799316 C67.86389309 38.90603133 67.87010491 37.99406949 67.87650496 37.05447245 C67.82964904 32.27150663 67.59481295 29.05245935 64.47241211 25.17700195 C60.67751741 22.2088329 57.78932284 21.7957807 53.03320312 21.77294922 C51.75159805 21.76026505 50.46999298 21.74758087 49.14955139 21.73451233 C47.75847207 21.73656398 46.36739385 21.73955217 44.97631836 21.7434082 C43.54051975 21.73884369 42.10472333 21.73353731 40.66893005 21.7275238 C37.66379912 21.71860299 34.65893409 21.7210037 31.65380859 21.73095703 C27.81251967 21.74244329 23.97215052 21.72223655 20.1309824 21.69303989 C17.16686727 21.67464743 14.2029713 21.67497635 11.2388134 21.68067741 C9.82309619 21.68083027 8.40736378 21.67481534 6.99170113 21.66238594 C5.00819106 21.64742383 3.02452925 21.66080989 1.04101562 21.67529297 C-0.0852977 21.67545914 -1.21161102 21.67562531 -2.37205505 21.67579651 C-6.48067954 22.32838517 -8.4428958 23.36536946 -11.52758789 26.17700195 Z " fill="#4C4C4C" transform="translate(132.527587890625,14.822998046875)"/>
<path d="M0 0 C7.81131278 6.31552948 12.13063328 13.88331644 13.21145284 23.91862702 C13.31183545 26.60174444 13.32343892 29.26974749 13.29826355 31.95462036 C13.30082682 32.97180204 13.3033901 33.98898372 13.30603105 35.03698909 C13.31094254 38.4195186 13.2945194 41.80159417 13.27807617 45.18408203 C13.27722933 47.61902353 13.27770615 50.0539658 13.27940369 52.48890686 C13.28008516 57.71787975 13.27161815 62.94675145 13.25469017 68.17569351 C13.2302317 75.73570504 13.22248793 83.29566237 13.2187262 90.85570918 C13.21217241 103.12356358 13.19224048 115.39135789 13.16381836 127.65917969 C13.13624994 139.5709605 13.11503001 151.48272494 13.10229492 163.39453125 C13.10150675 164.12969192 13.10071858 164.8648526 13.09990653 165.62229086 C13.0959912 169.31065002 13.09220013 172.99900929 13.08847082 176.68736863 C13.05740834 207.24995543 13.00437772 237.81246935 12.9375 268.375 C14.10877441 268.83205322 14.10877441 268.83205322 15.30371094 269.29833984 C30.21064912 275.39211046 41.38999572 288.90993802 47.8125 303.3125 C55.16692589 322.70375442 54.82559598 342.58026485 46.37890625 361.56640625 C44.00295754 366.19596485 41.15121986 370.29216093 37.9375 374.375 C37.35355469 375.13554687 36.76960938 375.89609375 36.16796875 376.6796875 C24.82076028 390.48744854 8.41341524 397.95352517 -9.0625 400.375 C-30.61330196 402.02233879 -48.42002577 395.2443703 -64.75 381.5625 C-77.54368196 369.82745018 -85.14433055 352.48302677 -86.265625 335.25390625 C-86.56134711 314.33156666 -79.97984643 296.08676836 -65.875 280.625 C-60.1140367 275.21730332 -51.82004415 269.03996199 -44.0625 267.375 C-44.06618717 266.11216784 -44.06987434 264.84933569 -44.07367325 263.54823589 C-44.160378 233.54474396 -44.22629871 203.54128444 -44.26676132 173.53769786 C-44.27176391 169.84161932 -44.27694122 166.14554104 -44.28222656 162.44946289 C-44.2832758 161.71366646 -44.28432505 160.97787002 -44.28540608 160.21977673 C-44.30279272 148.31905829 -44.33432076 136.41841745 -44.37111118 124.51774498 C-44.40856916 112.29887262 -44.4307461 100.08004079 -44.43885398 87.86111337 C-44.44433171 80.32648235 -44.46160791 72.79207071 -44.49416587 65.25750724 C-44.51788747 59.47175169 -44.52030761 53.68613549 -44.51493073 47.90034103 C-44.51602868 45.53287598 -44.5239521 43.1654024 -44.5393219 40.79798698 C-44.55932837 37.55664863 -44.5543998 34.31623627 -44.54351807 31.07487488 C-44.55516943 30.1458519 -44.5668208 29.21682893 -44.57882524 28.25965375 C-44.48690117 18.07599597 -41.26570392 9.60324812 -34.21875 2.25390625 C-23.77322605 -6.84808111 -11.63981355 -6.1762276 0 0 Z M-20.3125 19.6875 C-22.60213538 23.20372576 -23.18752054 25.73231322 -23.18275452 29.83586121 C-23.18412918 30.74871384 -23.18550385 31.66156647 -23.18692017 32.6020813 C-23.18332489 33.60117523 -23.17972961 34.60026917 -23.17602539 35.62963867 C-23.17617142 36.68346237 -23.17631744 37.73728607 -23.1764679 38.82304382 C-23.17577015 42.3130396 -23.16798416 45.80298228 -23.16015625 49.29296875 C-23.15829158 51.71006745 -23.15686791 54.12716653 -23.15586853 56.54426575 C-23.15204721 62.91141805 -23.14222018 69.27854761 -23.13116455 75.64569092 C-23.12094218 82.14074394 -23.11636914 88.63580063 -23.11132812 95.13085938 C-23.10059759 107.87891625 -23.08352575 120.62695624 -23.0625 133.375 C-18.1125 133.375 -13.1625 133.375 -8.0625 133.375 C-7.99296272 119.54486 -7.93966961 105.71476166 -7.90706348 91.88448238 C-7.89141351 85.4623948 -7.87018705 79.04042691 -7.83618164 72.6184082 C-7.80356494 66.41979866 -7.78564196 60.22130418 -7.77786827 54.02261543 C-7.77232896 51.65874991 -7.76151207 49.29489063 -7.74530983 46.93107414 C-7.72350534 43.61789253 -7.72053441 40.30518528 -7.72192383 36.99194336 C-7.711138 36.01658127 -7.70035217 35.04121918 -7.6892395 34.03630066 C-7.71855597 27.56777805 -8.26971989 22.16778011 -13.0625 17.375 C-16.73659441 16.69819314 -17.66388299 16.96531029 -20.3125 19.6875 Z M-23.0625 155.375 C-23.0625 159.335 -23.0625 163.295 -23.0625 167.375 C-18.1125 167.375 -13.1625 167.375 -8.0625 167.375 C-8.0625 163.415 -8.0625 159.455 -8.0625 155.375 C-13.0125 155.375 -17.9625 155.375 -23.0625 155.375 Z M-23.0625 188.375 C-23.0625 192.335 -23.0625 196.295 -23.0625 200.375 C-18.1125 200.375 -13.1625 200.375 -8.0625 200.375 C-8.0625 196.415 -8.0625 192.455 -8.0625 188.375 C-13.0125 188.375 -17.9625 188.375 -23.0625 188.375 Z M-23.0625 222.375 C-23.0625 226.005 -23.0625 229.635 -23.0625 233.375 C-18.1125 233.375 -13.1625 233.375 -8.0625 233.375 C-8.0625 229.745 -8.0625 226.115 -8.0625 222.375 C-13.0125 222.375 -17.9625 222.375 -23.0625 222.375 Z M-23.0625 255.375 C-23.0625 259.335 -23.0625 263.295 -23.0625 267.375 C-18.1125 267.375 -13.1625 267.375 -8.0625 267.375 C-8.0625 263.415 -8.0625 259.455 -8.0625 255.375 C-13.0125 255.375 -17.9625 255.375 -23.0625 255.375 Z M-53.0625 300.375 C-28.9725 300.375 -4.8825 300.375 19.9375 300.375 C12.1423176 291.02354067 12.1423176 291.02354067 1.05712891 287.69628906 C-0.74006716 287.65029319 -2.53816895 287.63303872 -4.3359375 287.640625 C-5.29972321 287.63109802 -6.26350891 287.62157104 -7.25650024 287.61175537 C-9.28522191 287.59964777 -11.31405672 287.60037182 -13.34277344 287.61328125 C-16.42325791 287.62494607 -19.49823952 287.57269636 -22.578125 287.515625 C-36.70194674 287.41862901 -43.94792466 288.98178083 -53.0625 300.375 Z M-64.0625 322.375 C-64.0625 326.335 -64.0625 330.295 -64.0625 334.375 C-32.7125 334.375 -1.3625 334.375 30.9375 334.375 C30.9375 330.415 30.9375 326.455 30.9375 322.375 C-0.4125 322.375 -31.7625 322.375 -64.0625 322.375 Z M-57.0625 355.375 C-53.45371791 362.3879247 -53.45371791 362.3879247 -48.0625 367.375 C-43.42855244 368.17872194 -38.80002945 368.20205467 -34.109375 368.21484375 C-32.72559768 368.23093028 -31.34182874 368.2477524 -29.95806885 368.26527405 C-27.0595736 368.295166 -24.16182202 368.30448116 -21.26318359 368.30151367 C-17.56851848 368.30100665 -13.87868383 368.36913865 -10.18516159 368.45537472 C-7.32628017 368.51130335 -4.46854118 368.52110029 -1.60916901 368.51846504 C0.40782885 368.52714874 2.42446966 368.58116626 4.44073486 368.63621521 C9.82557854 368.56965308 13.47976121 368.49841911 17.83581543 365.14138794 C22.19133857 360.8692028 22.19133857 360.8692028 23.9375 355.375 C-2.7925 355.375 -29.5225 355.375 -57.0625 355.375 Z " fill="#4C4C4C" transform="translate(175.0625,47.625)"/>
<path d="M0 0 C3.52488367 1.96667329 5.70121477 4.10364431 7 8 C7.0845387 10.4410776 7.11605786 12.85259213 7.09765625 15.29296875 C7.09553383 16.35201164 7.09553383 16.35201164 7.09336853 17.43244934 C7.08777764 19.68417626 7.07522688 21.93580321 7.0625 24.1875 C7.05748382 25.71549335 7.05292112 27.24348827 7.04882812 28.77148438 C7.0378112 32.51436135 7.02055287 36.25716373 7 40 C10.3 40.33 13.6 40.66 17 41 C17.12076904 40.28593994 17.24153809 39.57187988 17.3659668 38.83618164 C18.49473248 33.7869437 20.75703309 29.16889664 22.8125 24.4375 C23.25142578 23.39658203 23.69035156 22.35566406 24.14257812 21.28320312 C24.57634766 20.28095703 25.01011719 19.27871094 25.45703125 18.24609375 C25.84866455 17.33529053 26.24029785 16.4244873 26.64379883 15.48608398 C28.12870042 12.76407625 29.628962 10.99149172 32 9 C35.56743957 8.09192447 38.09545559 7.78964083 41.6875 8.625 C44.72196245 10.42927497 46.20363006 11.93951788 48 15 C48.92873133 22.64889106 46.12853689 28.40659699 43.0625 35.3125 C42.13624629 37.45422282 41.21044375 39.59614083 40.28515625 41.73828125 C39.87144775 42.67712158 39.45773926 43.61596191 39.03149414 44.58325195 C37.93159794 47.06926928 37.93159794 47.06926928 37 50 C40.3120164 51.60212482 40.3120164 51.60212482 43.9074707 51.82226562 C46.75233724 50.70436684 48.17105958 49.03182893 50.23046875 46.78125 C51.03419922 45.93175781 51.83792969 45.08226562 52.66601562 44.20703125 C54.3379602 42.41205434 55.99958957 40.60740988 57.65039062 38.79296875 C62.20553123 34.01677518 65.31379335 30.96636665 72.09545898 30.77490234 C76.23318946 31.26394061 78.24837206 33.12310074 80.875 36.1875 C82.45826836 40.1456709 82.55111598 43.08789334 81 47 C78.34498584 50.68276158 75.21907478 53.80887667 72 57 C70.98477397 58.0264513 69.9704753 59.05382051 68.95703125 60.08203125 C66.3245769 62.74193339 63.66855266 65.37633888 61 68 C61.99 69.670625 61.99 69.670625 63 71.375 C65 74.75 65 74.75 65 77 C66.16402344 76.49231079 66.16402344 76.49231079 67.3515625 75.97436523 C70.26027382 74.71633891 73.1755624 73.47543757 76.09619141 72.24536133 C77.3539212 71.7116568 78.60889261 71.17139907 79.86083984 70.62426758 C93.00738486 64.88902184 93.00738486 64.88902184 100 67 C102.85809446 69.44128902 104.57563251 71.2503537 105.4765625 74.96484375 C105.7570957 78.81110159 105.29371352 80.50761734 103.26171875 83.9140625 C99.12036774 88.61449589 92.90306641 90.25527733 87.1875 92.375 C86.01767578 92.82488281 84.84785156 93.27476562 83.64257812 93.73828125 C80.76734655 94.84143132 77.88693518 95.92793702 75 97 C75.33 99.97 75.66 102.94 76 106 C76.85231201 105.98428955 77.70462402 105.9685791 78.58276367 105.95239258 C81.76031226 105.90111038 84.93764913 105.86357518 88.11547852 105.83520508 C89.48794517 105.82016568 90.86036414 105.79972867 92.23266602 105.77368164 C94.21088656 105.73708779 96.18946514 105.72183302 98.16796875 105.70703125 C99.35672607 105.6913208 100.5454834 105.67561035 101.77026367 105.65942383 C105.32931257 106.03472606 107.15013545 106.88018451 110 109 C112.12738138 111.71424521 112.92909561 113.5239277 113.4375 116.9375 C112.88393677 120.8124426 111.40826469 122.95425348 109 126 C106.02640551 127.48679725 103.33700821 127.11112605 100.0234375 127.09765625 C98.99556625 127.09553383 98.99556625 127.09553383 97.94692993 127.09336853 C95.75624239 127.08776675 93.5656567 127.07521406 91.375 127.0625 C89.89062648 127.05748522 88.40625135 127.05292228 86.921875 127.04882812 C83.28121685 127.03779677 79.64061836 127.02053099 76 127 C75.67 130.63 75.34 134.26 75 138 C75.73637695 138.30703857 76.47275391 138.61407715 77.23144531 138.93041992 C80.57722269 140.335045 83.91350495 141.7609744 87.25 143.1875 C88.40886719 143.67025391 89.56773437 144.15300781 90.76171875 144.65039062 C91.87675781 145.13056641 92.99179687 145.61074219 94.140625 146.10546875 C95.68024902 146.75745239 95.68024902 146.75745239 97.25097656 147.42260742 C100.37178101 149.21332834 101.99105138 151.03726357 104 154 C104.76894989 157.09701198 104.67184432 159.8835457 104 163 C101.81840855 165.75569447 100.12822506 167.43588747 97 169 C91.86846306 169.33855642 88.31978635 168.64746865 83.62890625 166.59375 C82.47841797 166.09746094 81.32792969 165.60117188 80.14257812 165.08984375 C78.96115234 164.56519531 77.77972656 164.04054687 76.5625 163.5 C75.35400391 162.97535156 74.14550781 162.45070312 72.90039062 161.91015625 C69.92845955 160.6180123 66.96214332 159.31438953 64 158 C62.50178941 161.37097383 62 163.20442119 62 167 C63.62792424 169.14840874 63.62792424 169.14840874 65.8671875 171.1875 C66.67027344 171.96867188 67.47335937 172.74984375 68.30078125 173.5546875 C69.57501953 174.76511719 69.57501953 174.76511719 70.875 176 C72.54351959 177.59953027 74.20777001 179.20352881 75.8671875 180.8125 C76.61081543 181.52019531 77.35444336 182.22789062 78.12060547 182.95703125 C81.29284654 186.4053702 82.0128056 188.19324692 81.9375 192.9375 C81.4242811 195.98830123 80.80945997 197.29502972 79.0625 200 C75.37162226 202.41036914 73.03851306 202.97188109 68.66796875 202.7265625 C63.20594882 201.23910173 59.80266922 196.98613133 56 193 C54.90442529 191.90675489 53.80531221 190.81704695 52.703125 189.73046875 C49.77878516 186.84275769 46.88369076 183.92828391 44 181 C40.04 182.98 40.04 182.98 36 185 C36.30292969 185.70495605 36.60585938 186.40991211 36.91796875 187.13623047 C38.29726075 190.3749142 39.64868842 193.62454783 41 196.875 C41.47695313 197.98359375 41.95390625 199.0921875 42.4453125 200.234375 C45.12179361 206.73440055 47.42897438 212.90219011 46 220 C43.80977082 222.82424288 42.16982793 224.41508603 39 226 C37.01171875 226.08984375 37.01171875 226.08984375 34.6875 225.9375 C33.92824219 225.90527344 33.16898438 225.87304688 32.38671875 225.83984375 C28.71891623 224.54920948 26.96167155 222.21370702 25 219 C23.01794656 214.82842246 21.34241931 210.5601454 19.6875 206.25 C19.23310547 205.10144531 18.77871094 203.95289063 18.31054688 202.76953125 C15 194.31643562 15 194.31643562 15 192 C14.34 192.33 13.68 192.66 13 193 C11.00039988 193.039992 8.99952758 193.04346799 7 193 C7.02356567 194.40693115 7.02356567 194.40693115 7.04760742 195.84228516 C7.09891965 199.34234205 7.13643872 202.8419957 7.16479492 206.34228516 C7.17982543 207.85341727 7.20025564 209.36450618 7.22631836 210.87548828 C7.26295689 213.05512187 7.27978338 215.23417575 7.29296875 217.4140625 C7.31653442 219.37786865 7.31653442 219.37786865 7.34057617 221.38134766 C6.97054811 225.31292895 6.10620554 227.67840526 4 231 C0.06788587 233.46720886 -2.74215615 234.35899294 -7.25 233.4375 C-9.89277884 232.60939522 -10.93600356 232.06399644 -12.9375 230.0625 C-15.11016009 225.84498336 -15.13144754 222.1128095 -15.09765625 217.48828125 C-15.0962413 216.76005661 -15.09482635 216.03183197 -15.09336853 215.28153992 C-15.08777659 212.95848461 -15.07522562 210.63552612 -15.0625 208.3125 C-15.05748396 206.73632952 -15.05292123 205.16015752 -15.04882812 203.58398438 C-15.0378098 199.72261902 -15.02055074 195.86132592 -15 192 C-17.97 191.34 -20.94 190.68 -24 190 C-24.17656128 191.05078735 -24.17656128 191.05078735 -24.35668945 192.12280273 C-25.59665804 197.66854461 -28.01716881 202.82682622 -30.1875 208.0625 C-30.65736328 209.24650391 -31.12722656 210.43050781 -31.61132812 211.65039062 C-36.11338525 222.49095109 -36.11338525 222.49095109 -42 225 C-45.90628989 225.47971981 -48.21577899 225.34854267 -51.8125 223.75 C-54.2274606 221.81803152 -55.12230435 220.95224902 -56 218 C-56.34931397 212.16676586 -55.62316462 207.99092228 -53.15625 202.65625 C-52.86770142 202.00168823 -52.57915283 201.34712646 -52.28186035 200.67272949 C-51.36824782 198.60873341 -50.43463205 196.55454996 -49.5 194.5 C-48.87234588 193.09174765 -48.24603075 191.68289772 -47.62109375 190.2734375 C-46.09610901 186.84186104 -44.55313181 183.41892355 -43 180 C-44.98 179.34 -46.96 178.68 -49 178 C-49.65073486 178.65597168 -50.30146973 179.31194336 -50.97192383 179.98779297 C-53.39080633 182.42373267 -55.81193581 184.85739348 -58.23461914 187.28955078 C-59.28207706 188.34203287 -60.3286351 189.39541135 -61.37426758 190.44970703 C-62.8786546 191.9662435 -64.38626386 193.4795114 -65.89453125 194.9921875 C-66.80050049 195.90339355 -67.70646973 196.81459961 -68.63989258 197.75341797 C-72.06870378 201.01729721 -74.18953158 202.31644686 -78.875 202.4375 C-82.6190115 202.34458293 -83.82586813 202.11371877 -87.0625 200 C-89.37095561 196.42561713 -90.68906391 193.28148701 -90 189 C-87.36751596 184.65899631 -84.40048109 181.16326619 -80.796875 177.6015625 C-80.3142218 177.1217392 -79.8315686 176.64191589 -79.33428955 176.14755249 C-77.81087521 174.63521944 -76.28061545 173.13004085 -74.75 171.625 C-73.70787007 170.59291548 -72.66619895 169.56036746 -71.625 168.52734375 C-69.08861021 166.01285404 -66.54603674 163.50472561 -64 161 C-64.495 160.21625 -64.99 159.4325 -65.5 158.625 C-67 156 -67 156 -67 154 C-68.14214966 154.48412354 -68.14214966 154.48412354 -69.30737305 154.97802734 C-72.14932627 156.18236592 -74.99146969 157.38625426 -77.83374023 158.58984375 C-79.6620926 159.36423875 -81.49022755 160.13914702 -83.31835938 160.9140625 C-84.47529297 161.40390625 -85.63222656 161.89375 -86.82421875 162.3984375 C-87.88729248 162.84880371 -88.95036621 163.29916992 -90.0456543 163.76318359 C-95.67596751 166.1202753 -99.85814939 167.80813824 -106 167 C-108.87472735 165.75011855 -110.44101438 164.74531416 -112.3125 162.25 C-113.70734074 157.68506668 -113.64493835 154.24060639 -111.43408203 149.98779297 C-108.5833415 146.488559 -105.78953084 145.11761492 -101.6796875 143.5703125 C-100.9798172 143.2902536 -100.2799469 143.0101947 -99.55886841 142.72164917 C-97.33750008 141.83820216 -95.10674504 140.98184359 -92.875 140.125 C-91.36783001 139.52770332 -89.86131115 138.92876081 -88.35546875 138.328125 C-77.40667149 134 -77.40667149 134 -75 134 C-75.495 130.535 -75.495 130.535 -76 127 C-77.1552417 127.02618408 -78.3104834 127.05236816 -79.50073242 127.0793457 C-83.79627026 127.17000348 -88.09172394 127.22730551 -92.38793945 127.2746582 C-94.24550609 127.29976702 -96.10297427 127.33386134 -97.96020508 127.37719727 C-100.63387358 127.43801124 -103.30623365 127.4662452 -105.98046875 127.48828125 C-107.2213752 127.52699089 -107.2213752 127.52699089 -108.48735046 127.56648254 C-112.85267966 127.56859495 -114.47752375 127.41646535 -118.01293945 124.59838867 C-120.95617581 120.7496524 -121 118.82418359 -121 114 C-119.2933485 109.73337125 -117.10189329 107.94134098 -113 106 C-110.0622626 105.74760463 -107.34804233 105.64912763 -104.41796875 105.70703125 C-103.60378983 105.71127609 -102.7896109 105.71552094 -101.95075989 105.71989441 C-99.36266332 105.73662247 -96.77535929 105.77426288 -94.1875 105.8125 C-92.42774566 105.82755447 -90.66797905 105.84124154 -88.90820312 105.85351562 C-84.60516563 105.88650664 -80.30271697 105.9382476 -76 106 C-75.67 103.36 -75.34 100.72 -75 98 C-76.21945312 97.61714844 -77.43890625 97.23429687 -78.6953125 96.83984375 C-84.90613349 94.76592095 -90.87715584 92.17954999 -96.875 89.5625 C-98.00164062 89.08490234 -99.12828125 88.60730469 -100.2890625 88.11523438 C-101.36671875 87.64537109 -102.444375 87.17550781 -103.5546875 86.69140625 C-104.52905762 86.27060791 -105.50342773 85.84980957 -106.50732422 85.41625977 C-109.17777364 83.89899462 -110.42507867 82.61201723 -112 80 C-112.90574338 75.43864369 -112.59262126 71.94819402 -110.125 68 C-106.88413166 64.94977098 -104.40450005 64.50852244 -99.94189453 64.55859375 C-93.27505009 65.55889705 -87.06505684 68.79047424 -80.9375 71.5 C-79.48566953 72.1277923 -78.03319966 72.75410813 -76.58007812 73.37890625 C-73.04577505 74.90232739 -69.52075441 76.44553811 -66 78 C-65.08464329 75.25563737 -65.08464329 75.25563737 -65 72 C-66.83462993 69.24762736 -66.83462993 69.24762736 -69.609375 66.8125 C-70.33329437 66.11411011 -70.33329437 66.11411011 -71.07183838 65.40161133 C-72.61553841 63.9168416 -74.18065212 62.45759567 -75.75 61 C-77.30148983 59.53926315 -78.84752755 58.07354676 -80.38531494 56.59838867 C-81.78758288 55.25621544 -83.20542136 53.93036592 -84.62402344 52.60546875 C-88.12792175 48.7631339 -90.02959736 45.6870498 -89.9375 40.4375 C-88.86456731 36.50341347 -88.11770052 34.65004544 -85 32 C-80.94548869 30.77227882 -77.53196051 30.20766796 -73.68652344 32.1965332 C-70.65100017 34.23428406 -68.26936968 36.50525758 -65.69921875 39.10546875 C-65.2179805 39.5895369 -64.73674225 40.07360504 -64.24092102 40.57234192 C-62.71831699 42.10606177 -61.20285057 43.64661658 -59.6875 45.1875 C-58.65085592 46.234185 -57.61375102 47.2804138 -56.57617188 48.32617188 C-54.04542981 50.87886 -51.52103721 53.43772272 -49 56 C-48.21625 55.505 -47.4325 55.01 -46.625 54.5 C-44 53 -44 53 -42 53 C-42.36351562 52.13834229 -42.72703125 51.27668457 -43.1015625 50.38891602 C-44.4562008 47.15667089 -45.79616486 43.91910092 -47.12695312 40.67700195 C-47.70330519 39.28108887 -48.28523344 37.88746348 -48.87304688 36.49633789 C-55.04320286 21.87369781 -55.04320286 21.87369781 -54 14 C-52.20606332 11.12970131 -51.01736724 9.50868362 -48 8 C-46.01171875 7.7265625 -46.01171875 7.7265625 -43.6875 7.625 C-42.92824219 7.57601562 -42.16898437 7.52703125 -41.38671875 7.4765625 C-37.79843687 8.26351794 -36.40072348 10.27023049 -34 13 C-32.33081055 16.22973633 -32.33081055 16.22973633 -30.88671875 19.83203125 C-30.62744095 20.46864182 -30.36816315 21.10525238 -30.10102844 21.76115417 C-29.28452454 23.77367425 -28.48582062 25.79270783 -27.6875 27.8125 C-27.13332794 29.18731973 -26.57800012 30.56167418 -26.02148438 31.93554688 C-24.66759075 35.28509192 -23.32955445 38.64070778 -22 42 C-20.02 41.67 -18.04 41.34 -16 41 C-15.9906543 40.03175293 -15.98130859 39.06350586 -15.97167969 38.06591797 C-15.93163217 34.45364353 -15.86583446 30.84220765 -15.79248047 27.23046875 C-15.76435587 25.6710085 -15.74309911 24.11140796 -15.72900391 22.55175781 C-15.70745458 20.30200827 -15.66074943 18.05393026 -15.609375 15.8046875 C-15.60814636 15.1138205 -15.60691772 14.42295349 -15.60565186 13.71115112 C-15.45655423 8.71896985 -14.13468038 5.84607195 -11 2 C-7.30751438 -0.46165708 -4.28488597 -0.80846905 0 0 Z M-43.9921875 82.375 C-53.210786 94.71921773 -57.36259552 109.36077798 -55.4375 124.6875 C-53.30545326 135.57713112 -49.47872393 144.75601129 -42 153 C-41.21625 153.86625 -40.4325 154.7325 -39.625 155.625 C-26.51016996 167.49079861 -13.59194114 172.70745987 4.0703125 172.24609375 C19.83317076 171.2589565 32.55187634 163.2566355 43 151.80859375 C51.24293159 141.87799298 55.40294917 130.15514482 55.375 117.3125 C55.37338867 116.53084473 55.37177734 115.74918945 55.37011719 114.94384766 C55.22142121 107.82247661 53.69710663 101.60229226 51 95 C50.71125 94.26652344 50.4225 93.53304687 50.125 92.77734375 C43.96734416 78.95010765 31.79109459 69.46345884 18 64 C-5.24867538 57.28539886 -28.14433426 63.481873 -43.9921875 82.375 Z " fill="#4C4C4C" transform="translate(359,89)"/>
</svg>
