<?xml version="1.0" encoding="UTF-8"?>
<svg version="1.1" xmlns="http://www.w3.org/2000/svg" width="512" height="512">
<path d="M0 0 C3.67308708 3.48943272 4.94286177 6.36748231 5.12025452 11.43583679 C5.12315505 12.88259771 5.12049202 14.329376 5.11352539 15.77612305 C5.11367142 16.56660034 5.11381744 17.35707764 5.1139679 18.17150879 C5.11327109 20.78494 5.10548955 23.39829999 5.09765625 26.01171875 C5.09579124 27.82347067 5.09436773 29.6352231 5.09336853 31.44697571 C5.08954985 36.21617016 5.07972508 40.98533418 5.06866455 45.7545166 C5.05843649 50.62084542 5.05386792 55.48717916 5.04882812 60.35351562 C5.03810226 69.90235713 5.0210336 79.45117603 5 89 C6.09441406 88.9896875 7.18882812 88.979375 8.31640625 88.96875 C11.41520887 88.99503889 14.00729941 89.27449683 17 90 C17.12955078 89.10087891 17.12955078 89.10087891 17.26171875 88.18359375 C18.40752331 80.79367996 19.82765205 73.4533686 21.3125 66.125 C21.50094482 65.12654053 21.68938965 64.12808105 21.88354492 63.09936523 C23.13734873 57.07837357 24.41770309 53.2079489 29 49 C31.67752185 47.81844206 34.09512418 47.74074131 37 48 C40.66584612 49.5478017 43.17308143 51.44231647 45 55 C45.61138023 62.69783287 43.73524363 69.89550101 42.0625 77.375 C41.78470703 78.65761719 41.50691406 79.94023438 41.22070312 81.26171875 C39.15472274 90.69055451 39.15472274 90.69055451 38 93 C41.3 93.66 44.6 94.32 48 95 C48.59784302 93.11607544 48.59784302 93.11607544 49.20776367 91.1940918 C51.06580208 85.62784644 53.34496038 80.27650711 55.67578125 74.89453125 C56.12342331 73.85286301 56.57106537 72.81119476 57.03227234 71.73796082 C58.45559409 68.42798905 59.88393403 65.12021126 61.3125 61.8125 C62.72588299 58.52959349 64.138265 55.24625776 65.55050659 51.96286011 C66.46057841 49.84971233 67.37243746 47.73733328 68.28616333 45.62576294 C70.177715 41.25311758 72.06190515 36.88028734 73.86474609 32.47021484 C74.1336113 31.81889084 74.4024765 31.16756683 74.67948914 30.49650574 C75.35147532 28.86104825 76.0126423 27.22115584 76.67260742 25.58081055 C78.459982 22.10567045 80.39866487 19.52422957 84.18359375 18.28515625 C87.94156462 17.91391823 90.38080778 17.74968825 93.9375 19.1875 C97.33570516 22.17380151 97.90370798 23.93153472 98.3125 28.4675293 C98.24951557 34.10646495 95.95692772 38.7579498 93.6875 43.83203125 C93.24035645 44.86325607 92.79321289 45.8944809 92.33251953 46.95695496 C90.90191931 50.24825721 89.45157224 53.53040097 88 56.8125 C87.05462843 58.975317 86.11060556 61.13872406 85.16796875 63.30273438 C83.32587341 67.52873431 81.47900347 71.75259545 79.62890625 75.97509766 C77.16053672 81.62068964 74.71947626 87.27717948 72.3125 92.94921875 C71.80372314 94.13787285 71.80372314 94.13787285 71.28466797 95.35054016 C69.59839428 99.04554103 69.59839428 99.04554103 69 103 C71.8331162 104.62507196 71.8331162 104.62507196 75 106 C78.87886046 104.70704651 79.48406671 103.15961404 81.6875 99.7578125 C82.73550781 98.15873047 82.73550781 98.15873047 83.8046875 96.52734375 C84.53698025 95.3935661 85.26874588 94.25944782 86 93.125 C87.43280723 90.91614173 88.87172514 88.71150689 90.3125 86.5078125 C90.94800781 85.52441895 91.58351563 84.54102539 92.23828125 83.52783203 C95.85459527 78.33890252 95.85459527 78.33890252 99.0859375 77.3828125 C102.91439756 76.95162075 105.33019809 76.71497791 108.9375 78.25 C111.22222375 80.18855349 112.74162813 81.90249115 113.44140625 84.875 C113.87525772 92.48839362 110.26941286 96.9898072 106 103 C104.63365281 105.03300674 103.28202798 107.07533921 101.93115234 109.11865234 C99.9669396 112.08774596 97.98301164 115.04343737 96 118 C97.81100367 120.00503978 99.39056045 121.69218535 101.81787109 122.91816711 C104.21740552 123.23886466 104.21740552 123.23886466 106.42822266 121.15959167 C107.3310498 120.23962906 108.23387695 119.31966644 109.1640625 118.37182617 C109.6654071 117.86799911 110.16675171 117.36417206 110.68328857 116.84507751 C112.34236238 115.17229498 113.98324747 113.48273967 115.625 111.79296875 C116.77431281 110.62925138 117.92488427 109.46677584 119.07666016 108.30549622 C122.11083638 105.24085241 125.13059039 102.16240346 128.14672852 99.08001709 C132.97119566 94.15338513 137.81497806 89.24581275 142.66278076 84.34215736 C144.35413683 82.62663007 146.03805759 80.90405603 147.72119141 79.1804657 C148.75923719 78.12556323 149.79747566 77.07085032 150.8359375 76.01635742 C151.73876465 75.09400803 152.6415918 74.17165863 153.57177734 73.22135925 C156.36421618 70.66681186 158.40854151 69.08405591 162.21875 68.8828125 C165.78142033 69.2610412 168.39711127 69.63826676 171.5 71.5 C173.67530961 75.12551601 174.54587705 78.78309975 174 83 C171.41350568 87.28193889 168.49465012 90.75027235 164.95605469 94.27099609 C164.46779205 94.75955078 163.97952942 95.24810547 163.47647095 95.75146484 C161.87963883 97.34691624 160.27586666 98.935187 158.671875 100.5234375 C157.55614217 101.63543572 156.4408534 102.74787964 155.32598877 103.86074829 C152.4041502 106.77498568 149.47635373 109.68316411 146.54724121 112.59008789 C143.55388768 115.56290698 140.56625537 118.54146377 137.578125 121.51953125 C131.72430905 127.35195936 125.86418137 133.17799392 120 139 C120.92838287 140.31896465 121.86805732 141.62998689 122.8125 142.9375 C123.33457031 143.66839844 123.85664063 144.39929688 124.39453125 145.15234375 C125.95867127 147.26883226 125.95867127 147.26883226 129 148 C131.23795255 146.95624846 131.23795255 146.95624846 133.5625 145.32421875 C134.44164062 144.74349609 135.32078125 144.16277344 136.2265625 143.56445312 C137.14179688 142.94505859 138.05703125 142.32566406 139 141.6875 C140.37285156 140.77581055 140.37285156 140.77581055 141.7734375 139.84570312 C144.18865364 138.23969063 146.59560262 136.62214103 149 135 C152.32500313 132.78333124 154.03723828 132.22862087 158 132 C162.25020788 133.22463617 164.38162201 134.14973026 167 137.75 C168.22859326 141.74292809 168.16697548 143.98852178 167 148 C163.34684459 152.17697844 159.18112304 155.08318883 154.5625 158.0625 C153.91990234 158.48337891 153.27730469 158.90425781 152.61523438 159.33789062 C151.35188506 160.16515998 150.08711484 160.99026427 148.82080078 161.81298828 C146.20003739 163.52150955 143.59994893 165.26000327 141 167 C142.32 169.64 143.64 172.28 145 175 C148.60709893 174.37609959 151.79385455 173.3997927 155.18237305 172.0222168 C156.19079758 171.6147673 157.19922211 171.20731781 158.23820496 170.78752136 C159.31846451 170.3458815 160.39872406 169.90424164 161.51171875 169.44921875 C162.63512161 168.99400345 163.75852448 168.53878815 164.91596985 168.06977844 C168.50816523 166.61313114 172.0978646 165.15044303 175.6875 163.6875 C178.08512099 162.71378518 180.48290571 161.7404734 182.88085938 160.76757812 C187.31182688 158.96957469 191.74166471 157.16883603 196.1706543 155.3659668 C197.15013031 154.96928802 198.12960632 154.57260925 199.13876343 154.16390991 C201.03863529 153.39106934 202.93520311 152.61005369 204.82827759 151.82070923 C205.70712616 151.45811005 206.58597473 151.09551086 207.49145508 150.72192383 C208.25968094 150.40113358 209.0279068 150.08034332 209.81941223 149.74983215 C213.4962073 148.4855037 216.13024886 148.47528798 220 149 C223.67552256 150.99756661 224.77375004 152.50036467 226.5 156.3125 C227.12063564 160.88968787 226.29065944 163.02952363 224 167 C221.26645121 169.36677063 218.54176262 170.75470765 215.1940918 172.08129883 C214.2417717 172.46212112 213.2894516 172.84294342 212.30827332 173.23530579 C211.28228531 173.63847519 210.2562973 174.04164459 209.19921875 174.45703125 C208.1306514 174.88247726 207.06208405 175.30792328 205.96113586 175.7462616 C202.53881769 177.10736292 199.11325314 178.46007056 195.6875 179.8125 C193.42360631 180.71102987 191.159932 181.61011268 188.89648438 182.50976562 C184.55243943 184.23555384 180.20722738 185.95834305 175.86083984 187.67822266 C168.8998096 190.43369199 161.94798675 193.21181807 155 196 C155.66 198.97 156.32 201.94 157 205 C163.87147813 204.46316577 170.47990878 203.41891178 177.20117188 201.9284668 C181.75157641 200.99138622 185.46802898 200.97378869 190 202 C193.17921096 204.41896486 194.6866752 206.09919119 196 209.875 C196 214.0430077 195.15607248 216.42900496 193 220 C187.3668249 222.99146155 181.55058082 224.07029668 175.3125 225.1875 C174.37599609 225.36474609 173.43949219 225.54199219 172.47460938 225.72460938 C168.54056488 226.45188812 165.0198717 227 161 227 C161.165 227.515625 161.33 228.03125 161.5 228.5625 C162.14971708 231.72987076 162.03011041 234.77442279 162 238 C163.32971581 237.99000725 163.32971581 237.99000725 164.68629456 237.97981262 C173.05757093 237.91959726 181.42877412 237.87397265 189.80021763 237.84456348 C194.10364109 237.82893543 198.40688496 237.80774972 202.71020508 237.77368164 C206.86640618 237.74098573 211.02243498 237.72312548 215.17875481 237.71536827 C216.76112516 237.70984307 218.34348653 237.69905373 219.92578316 237.68280983 C222.14937536 237.66089888 224.37226376 237.65803867 226.59594727 237.65942383 C227.85947525 237.65276199 229.12300323 237.64610016 230.42481995 237.63923645 C235.44181591 238.14549047 239.59323222 239.32095459 242.9375 243.3125 C244.22223005 246.56211129 244.49566337 248.5303564 244 252 C242.19490241 255.61019517 241.05683201 257.545645 237.30722046 259.15768433 C233.64401775 260.09066509 230.48889987 260.24031193 226.70947266 260.22705078 C225.6547728 260.22748886 225.6547728 260.22748886 224.57876587 260.22793579 C222.27373558 260.22655162 219.96903574 260.21103397 217.6640625 260.1953125 C216.05838192 260.19157912 214.45269906 260.18873368 212.84701538 260.18673706 C208.63512811 260.17912621 204.42338029 260.15949979 200.21154785 260.1373291 C195.90797817 260.1168156 191.6043858 260.1077236 187.30078125 260.09765625 C178.86711659 260.07625132 170.43359175 260.04109013 162 260 C161.67 264.62 161.34 269.24 161 274 C162.29550781 274.12890625 163.59101563 274.2578125 164.92578125 274.390625 C169.74165031 274.92980627 174.44812776 275.74798438 179.1875 276.75 C179.95513672 276.894375 180.72277344 277.03875 181.51367188 277.1875 C186.93907618 278.34045653 190.12560226 279.98121477 194 284 C195.18155794 286.67752185 195.25925869 289.09512418 195 292 C193.4521983 295.66584612 191.55768353 298.17308143 188 300 C181.03904599 300.47260792 174.76016748 299.06524529 168 297.5 C166.40865234 297.14228516 166.40865234 297.14228516 164.78515625 296.77734375 C162.18828644 296.19246316 159.59344265 295.59986124 157 295 C154.70954986 299.81209901 154.70954986 299.81209901 154 305 C155.13369019 305.47288452 155.13369019 305.47288452 156.2902832 305.95532227 C163.54176063 308.98242722 170.78876918 312.01996618 178.03111267 315.06886292 C181.96516973 316.72487269 185.9005865 318.37749442 189.83886719 320.0234375 C193.84906842 321.69998918 197.85486314 323.38670531 201.85800171 325.08004761 C203.40588475 325.7328583 204.95521967 326.38223751 206.50601196 327.02810669 C208.68897531 327.93800049 210.866396 328.86009929 213.04296875 329.78515625 C213.68958466 330.05138794 214.33620056 330.31761963 215.00241089 330.59191895 C218.73275826 332.19521689 221.39513499 333.86815745 224 337 C225.36623333 341.17335756 225.4558328 344.87241359 223.8125 348.9375 C220.83037681 352.33095052 219.07164718 352.9017518 214.54345703 353.31689453 C208.84528666 353.25340472 204.11981852 350.9067132 198.9921875 348.6171875 C197.94910431 348.1653006 196.90602112 347.7134137 195.83132935 347.24783325 C192.50644713 345.80378028 189.19075302 344.33987575 185.875 342.875 C183.66985616 341.91272007 181.46413168 340.95176955 179.2578125 339.9921875 C175.03731806 338.15425962 170.81944516 336.31056195 166.60449219 334.45996094 C161.97165383 332.4259797 157.3387302 330.39254406 152.6953125 328.3828125 C151.66680176 327.93566895 150.63829102 327.48852539 149.57861328 327.02783203 C147.38378211 326.15297507 145.30587962 325.49240494 143 325 C141.75837359 327.97990339 140.74438917 330.8614943 140 334 C140.65073486 334.43868408 141.30146973 334.87736816 141.97192383 335.3293457 C144.92111226 337.32030456 147.86683143 339.31633754 150.8125 341.3125 C151.83666016 342.00279297 152.86082031 342.69308594 153.91601562 343.40429688 C154.89892578 344.07138672 155.88183594 344.73847656 156.89453125 345.42578125 C157.80050049 346.03848877 158.70646973 346.65119629 159.63989258 347.2824707 C164.6920078 350.95906433 164.6920078 350.95906433 165.6171875 354.0859375 C166.04837925 357.91439756 166.28502209 360.33019809 164.75 363.9375 C162.05951241 367.1084318 160.27857236 367.95239048 156.16015625 368.65625 C148.92041264 368.49194376 143.15762871 363.4854452 137.4375 359.5 C136.22719862 358.67908866 135.01561849 357.8600593 133.80273438 357.04296875 C130.8534105 355.05015938 127.92227434 353.03233354 125 351 C124.5978125 351.86625 124.5978125 351.86625 124.1875 352.75 C122.98199197 355.03412048 121.56864477 356.95431531 120 359 C120.97052811 359.96386627 120.97052811 359.96386627 121.96066284 360.94720459 C128.0575304 367.00399683 134.1495743 373.06559053 140.23624992 379.13262558 C143.36563168 382.2515705 146.49684649 385.36862778 149.63232422 388.48144531 C152.65819919 391.48558857 155.67916142 394.49459204 158.69678116 397.50702667 C159.84887224 398.65542261 161.00272214 399.80205687 162.1583519 400.94689178 C163.77676453 402.55078532 165.38880839 404.16083065 166.99951172 405.77246094 C167.91884491 406.68735291 168.8381781 407.60224487 169.78536987 408.54486084 C172.31855207 411.35314686 173.91604834 413.41051526 174.1171875 417.21875 C173.7389588 420.78142033 173.36173324 423.39711127 171.5 426.5 C167.87448399 428.67530961 164.21690025 429.54587705 160 429 C155.71806111 426.41350568 152.24972765 423.49465012 148.72900391 419.95605469 C148.24044922 419.46779205 147.75189453 418.97952942 147.24853516 418.47647095 C145.65308376 416.87963883 144.064813 415.27586666 142.4765625 413.671875 C141.36456428 412.55614217 140.25212036 411.4408534 139.13925171 410.32598877 C136.22501432 407.4041502 133.31683589 404.47635373 130.40991211 401.54724121 C127.43709302 398.55388768 124.45853623 395.56625537 121.48046875 392.578125 C115.64804064 386.72430905 109.82200608 380.86418137 104 375 C100.64405806 376.2632842 98.36709704 377.25915079 96 380 C96.40839111 380.60996826 96.81678223 381.21993652 97.23754883 381.84838867 C99.09709194 384.62727427 100.95481206 387.40737391 102.8125 390.1875 C103.45509766 391.14720703 104.09769531 392.10691406 104.75976562 393.09570312 C105.38173828 394.02705078 106.00371094 394.95839844 106.64453125 395.91796875 C107.21534424 396.77156982 107.78615723 397.6251709 108.37426758 398.50463867 C112.09017192 404.20823655 114.37831448 408.08336735 113 415 C110.81840855 417.75569447 109.12822506 419.43588747 106 421 C104.046875 421.125 104.046875 421.125 101.75 421 C101.00234375 420.979375 100.2546875 420.95875 99.484375 420.9375 C92.18822616 418.18423629 87.68243446 408.25876995 83.625 402.0625 C82.98433594 401.09248047 82.34367187 400.12246094 81.68359375 399.12304688 C80.11811815 396.75146816 78.55705482 394.37711222 77 392 C72.93223538 393.2297893 69.60074162 394.761038 66 397 C66.39344101 397.98360252 66.39344101 397.98360252 66.79483032 398.98707581 C78.14794922 427.36987305 78.14794922 427.36987305 78.90243912 429.25621986 C79.40086957 430.50221487 79.89941168 431.74816521 80.39806747 432.99407005 C81.6168304 436.03957107 82.83326058 439.08597025 84.04644775 442.13369751 C86.00723433 447.05486802 87.97008314 451.97096963 90.04980469 456.84326172 C90.48176651 457.86902565 90.48176651 457.86902565 90.92245483 458.91551208 C91.6333085 460.59403961 92.35943421 462.26607963 93.08740234 463.93725586 C94.26414435 467.88648767 94.28246857 470.88141743 94 475 C92.20636089 477.8100346 90.98119065 479.50940468 88 481 C86.01171875 481.23828125 86.01171875 481.23828125 83.6875 481.3125 C82.92824219 481.34988281 82.16898437 481.38726562 81.38671875 481.42578125 C78.03510989 480.82786739 76.4897334 479.29312177 74 477 C72.56593323 474.45597839 72.56593323 474.45597839 71.41625977 471.55151367 C70.97552628 470.45904831 70.53479279 469.36658295 70.08070374 468.24101257 C69.62223557 467.06190811 69.1637674 465.88280365 68.69140625 464.66796875 C68.202202 463.44402908 67.71299774 462.22008942 67.20896912 460.95906067 C65.90783398 457.70328152 64.6243246 454.44083323 63.34448242 451.17663574 C62.05970808 447.90854365 60.75875128 444.64691693 59.45898438 441.38476562 C56.26460295 433.35819206 53.09646086 425.32132538 49.92987061 417.28375244 C49.06887565 415.10098946 48.20489864 412.91943748 47.33984375 410.73828125 C46.89890381 409.62106689 46.45796387 408.50385254 46.00366211 407.3527832 C45.2089694 405.08465293 45.2089694 405.08465293 44 404 C42.07860387 404.32743697 42.07860387 404.32743697 39.9375 404.9375 C38.83728516 405.22947266 38.83728516 405.22947266 37.71484375 405.52734375 C37.14894531 405.68332031 36.58304687 405.83929688 36 406 C36.18699463 406.8971875 36.37398926 407.794375 36.56665039 408.71875 C37.26069456 412.07897384 37.94325834 415.44112554 38.6184082 418.80517578 C38.91175717 420.25498733 39.2095277 421.70391207 39.51196289 423.15185547 C39.94830133 425.24483755 40.36813114 427.34059496 40.78515625 429.4375 C41.04176025 430.69433594 41.29836426 431.95117188 41.56274414 433.24609375 C42.19832655 438.70266276 42.12411468 443.25943533 39.0625 448 C35.32975584 450.43771047 32.86758097 450.59581905 28.5 450.6640625 C24.83318417 449.69006455 23.41759617 447.90030293 21 445 C20.10150736 442.21679354 19.47484009 439.77412121 18.98046875 436.92578125 C18.83217117 436.16073776 18.6838736 435.39569427 18.53108215 434.60746765 C18.06498366 432.17885406 17.62615905 429.74620257 17.1875 427.3125 C16.87478484 425.66568465 16.56034896 424.01919506 16.24414062 422.37304688 C14 410.56510469 14 410.56510469 14 408 C13.34 408.33 12.68 408.66 12 409 C9.6670134 409.04022391 7.33293334 409.04320247 5 409 C5.00999275 410.50217575 5.00999275 410.50217575 5.02018738 412.03469849 C5.08104906 421.48055926 5.12599694 430.92638016 5.15543652 440.37239265 C5.17108061 445.22848825 5.19229598 450.08442532 5.22631836 454.94042969 C5.25895655 459.62830027 5.27686247 464.31601854 5.28463173 469.00399399 C5.29016722 470.79093701 5.30097674 472.57787187 5.31719017 474.36474991 C5.33902385 476.87111562 5.34196447 479.376855 5.34057617 481.88330078 C5.35675491 482.98705803 5.35675491 482.98705803 5.3732605 484.1131134 C5.34513694 488.8171642 4.46689139 491.998849 2 496 C-0.36918322 498.16013764 -1.97850701 498.93969719 -5.18359375 499.12890625 C-9.37230916 498.90193152 -11.39251611 498.5771097 -14.5 495.625 C-17.08305179 491.10465937 -17.16672769 487.20144184 -17.20532227 482.13208008 C-17.21522186 481.33184921 -17.22512146 480.53161835 -17.23532104 479.70713806 C-17.26691603 477.06129925 -17.29168558 474.41544248 -17.31640625 471.76953125 C-17.3369775 469.93535393 -17.35797402 468.10118133 -17.37937927 466.26701355 C-17.43458223 461.4386884 -17.48399937 456.61032058 -17.53222656 451.78192139 C-17.58245452 446.85522666 -17.63813384 441.92859391 -17.69335938 437.00195312 C-17.80091924 427.33468836 -17.90236907 417.66736978 -18 408 C-21.63 407.34 -25.26 406.68 -29 406 C-29.16242188 408.04960938 -29.16242188 408.04960938 -29.328125 410.140625 C-29.99714227 416.77933482 -31.33712787 423.23508963 -32.75 429.75 C-32.98976562 430.94238281 -33.22953125 432.13476562 -33.4765625 433.36328125 C-34.87577519 439.81841196 -35.9507072 444.56250802 -41 449 C-43.67752185 450.18155794 -46.09512418 450.25925869 -49 450 C-52.66584612 448.4521983 -55.17308143 446.55768353 -57 443 C-57.25401427 437.47380313 -56.70576836 432.47358757 -55.50390625 427.0703125 C-55.35090561 426.35390594 -55.19790497 425.63749939 -55.04026794 424.89938354 C-54.71873764 423.4011724 -54.39334195 421.90378591 -54.06420898 420.40722656 C-53.55959798 418.111799 -53.06691097 415.81405424 -52.57617188 413.515625 C-52.26109926 412.05454014 -51.94536784 410.59359715 -51.62890625 409.1328125 C-51.48095108 408.44639679 -51.33299591 407.75998108 -51.18055725 407.05276489 C-50.1172529 402.23450581 -50.1172529 402.23450581 -49 400 C-51.97 399.34 -54.94 398.68 -58 398 C-58.40524902 399.27004883 -58.81049805 400.54009766 -59.22802734 401.84863281 C-61.00116895 407.16093449 -63.14035303 412.27940904 -65.3515625 417.421875 C-65.97905899 418.89288666 -65.97905899 418.89288666 -66.61923218 420.39361572 C-67.95117361 423.51383907 -69.28799779 426.63194234 -70.625 429.75 C-71.49902054 431.79543509 -72.3727209 433.84100702 -73.24609375 435.88671875 C-74.54512496 438.92923936 -75.84580967 441.97099034 -77.15216064 445.01037598 C-79.30263663 450.01398785 -81.43146096 455.02459959 -83.51464844 460.05664062 C-83.91638275 461.01830139 -84.31811707 461.97996216 -84.73202515 462.97076416 C-85.48807703 464.78235317 -86.23662855 466.59709792 -86.97622681 468.41546631 C-88.76318811 472.67422384 -90.26030599 476.08098939 -94 479 C-98.17335756 480.36623333 -101.87241359 480.4558328 -105.9375 478.8125 C-109.37982646 475.78742523 -109.92082332 474.03896295 -110.27197266 469.43115234 C-110.21586803 464.34571959 -108.42154807 460.35872831 -106.3359375 455.7890625 C-105.75947731 454.47755722 -105.75947731 454.47755722 -105.17137146 453.13955688 C-103.91868008 450.29553176 -102.64669139 447.4605728 -101.375 444.625 C-99.63055308 440.67718617 -97.89602238 436.72503025 -96.16015625 432.7734375 C-95.72392441 431.7844043 -95.28769257 430.79537109 -94.83824158 429.77636719 C-90.67897599 420.32869946 -86.71475673 410.8061792 -82.8125 401.25 C-82.51132263 400.51404602 -82.21014526 399.77809204 -81.89984131 399.01983643 C-80.26114977 395.01541468 -78.62757759 391.00895507 -77 387 C-79.31 386.34 -81.62 385.68 -84 385 C-90.40754449 393.99478324 -96.77489746 402.99911772 -102.78857422 412.26391602 C-107.58241582 419.58056498 -107.58241582 419.58056498 -111.0859375 420.6171875 C-114.91439756 421.04837925 -117.33019809 421.28502209 -120.9375 419.75 C-123.26027911 417.77915712 -124.79199375 416.09630515 -125.37219238 413.03834534 C-125.57248088 406.50983993 -123.65577908 402.73511217 -119.96875 397.46484375 C-119.45824097 396.70071671 -118.94773193 395.93658966 -118.42175293 395.14930725 C-116.80024328 392.73183361 -115.15095907 390.33493151 -113.5 387.9375 C-112.39002963 386.29359728 -111.28193601 384.64842572 -110.17578125 383.00195312 C-107.47200964 378.98629859 -104.7431735 374.98883057 -102 371 C-103.32 369.68 -104.64 368.36 -106 367 C-110.03940504 368.61059945 -112.7278612 371.47338683 -115.71484375 374.51953125 C-116.27470978 375.08231781 -116.83457581 375.64510437 -117.41140747 376.22494507 C-118.62384435 377.44498057 -119.8339655 378.66732079 -121.04202271 379.89169312 C-122.95420465 381.82942788 -124.872588 383.76082326 -126.79272461 385.69067383 C-130.86743255 389.7882283 -134.93426584 393.89354382 -139 398 C-143.71160957 402.75880061 -148.42638625 407.51436853 -153.14968872 412.26156616 C-155.03938962 414.16423108 -156.92296475 416.07282148 -158.80639648 417.98168945 C-159.96568601 419.14824451 -161.12525752 420.31451942 -162.28515625 421.48046875 C-162.8068338 422.01247894 -163.32851135 422.54448914 -163.86599731 423.09262085 C-169.64745086 428.87574564 -169.64745086 428.87574564 -174.21875 429.1171875 C-177.78142033 428.7389588 -180.39711127 428.36173324 -183.5 426.5 C-185.67530961 422.87448399 -186.54587705 419.21690025 -186 415 C-183.22191607 410.34398797 -179.95548819 406.67724148 -176.12988281 402.90283203 C-175.55383804 402.32649521 -174.97779327 401.75015839 -174.3842926 401.15635681 C-172.49527592 399.26872397 -170.59929377 397.38825843 -168.703125 395.5078125 C-167.38561041 394.1940314 -166.06853917 392.87980554 -164.75189209 391.56515503 C-161.29739901 388.11827191 -157.83694057 384.67743928 -154.37518311 381.237854 C-150.83893032 377.72211655 -147.30838299 374.20065979 -143.77734375 370.6796875 C-136.85711823 363.78086535 -129.93057388 356.88842501 -123 350 C-124.55194754 346.67240077 -126.30621949 344.51419515 -129 342 C-130.16402344 342.77863403 -130.16402344 342.77863403 -131.3515625 343.57299805 C-134.26580077 345.52154713 -137.18075892 347.46901009 -140.09619141 349.41577148 C-141.35135871 350.25421294 -142.60624811 351.0930706 -143.86083984 351.93237305 C-146.84578282 353.92907395 -149.83339795 355.92144685 -152.82885742 357.90234375 C-154.71749179 359.15164289 -156.60205653 360.40718455 -158.4777832 361.67578125 C-163.15324398 364.75934977 -166.21887219 365.79398343 -171.7265625 365.48046875 C-175.45787511 364.69189237 -176.93447307 363.13160534 -179 360 C-180.14344438 356.06940993 -180.33918007 353.90769897 -178.90234375 350.0625 C-176.66158736 346.4552043 -174.10010398 344.60990092 -170.5625 342.4375 C-169.92159424 342.02693359 -169.28068848 341.61636719 -168.62036133 341.19335938 C-167.20462712 340.28712885 -165.78506173 339.38686373 -164.36230469 338.49169922 C-160.85445749 336.27663655 -157.37560444 334.01751708 -153.89624023 331.75805664 C-152.10929358 330.5982727 -150.31978905 329.44241906 -148.52758789 328.29077148 C-147.70766357 327.76169189 -146.88773926 327.2326123 -146.04296875 326.6875 C-144.94505005 325.98173828 -144.94505005 325.98173828 -143.82495117 325.26171875 C-141.87371472 323.99338706 -141.87371472 323.99338706 -140 322 C-140.66 320.02 -141.32 318.04 -142 316 C-150.18176757 319.26802788 -158.36313893 322.53704528 -166.54403591 325.80725193 C-171.08928734 327.62411587 -175.63482794 329.44025364 -180.18060875 331.25579262 C-183.10898728 332.42565695 -186.03694037 333.59658435 -188.96492386 334.76743698 C-191.11152784 335.62508432 -193.25888928 336.48081347 -195.40634155 337.33633423 C-201.16584552 339.63442462 -206.9184601 341.93823808 -212.60986328 344.40185547 C-213.39216812 344.73813461 -214.17447296 345.07441376 -214.98048401 345.42088318 C-216.88599689 346.24797281 -218.78350815 347.09343897 -220.67993164 347.94116211 C-224.779079 349.24846427 -227.71085015 349.30199772 -232 349 C-235.67552256 347.00243339 -236.77375004 345.49963533 -238.5 341.6875 C-239.12063564 337.11031213 -238.29065944 334.97047637 -236 331 C-233.18787407 328.55152195 -230.34506161 327.16707106 -226.89379883 325.79858398 C-225.87365189 325.39063095 -224.85350494 324.98267792 -223.80244446 324.56236267 C-222.14646492 323.91080956 -222.14646492 323.91080956 -220.45703125 323.24609375 C-218.72328499 322.55556664 -218.72328499 322.55556664 -216.95451355 321.85108948 C-213.86690802 320.62255938 -210.77733409 319.39926282 -207.68664551 318.17852783 C-204.64037231 316.97404653 -201.59667029 315.76310781 -198.55273438 314.55273438 C-193.75287035 312.64506546 -188.95227887 310.73924906 -184.15087891 308.83544922 C-182.97430725 308.36886902 -181.7977356 307.90228882 -180.58551025 307.42156982 C-178.16145347 306.46048877 -175.73725531 305.49976422 -173.31292725 304.53936768 C-169.79483453 303.14469038 -166.27812155 301.7465879 -162.76171875 300.34765625 C-161.68904251 299.92326767 -160.61636627 299.49887909 -159.51118469 299.06163025 C-158.53513779 298.67270096 -157.55909088 298.28377167 -156.5534668 297.88305664 C-155.69472458 297.54214493 -154.83598236 297.20123322 -153.95121765 296.84999084 C-152.0347354 296.15669167 -152.0347354 296.15669167 -151 295 C-151.66 293.02 -152.32 291.04 -153 289 C-154.23564697 289.24758057 -155.47129395 289.49516113 -156.74438477 289.75024414 C-161.34728799 290.6693519 -165.95305344 291.57334638 -170.55981445 292.47290039 C-172.54988024 292.86366459 -174.5391562 293.25847457 -176.52758789 293.6574707 C-179.39269052 294.23163813 -182.26035705 294.79099775 -185.12890625 295.34765625 C-186.01147598 295.52780777 -186.89404572 295.70795929 -187.80335999 295.89356995 C-192.81118821 296.84849224 -196.9515681 297.21975266 -202 296 C-205.17921096 293.58103514 -206.6866752 291.90080881 -208 288.125 C-208 283.9569923 -207.15607248 281.57099504 -205 278 C-199.64827754 275.20285266 -194.25168044 274.05118013 -188.34765625 272.95703125 C-186.99745644 272.69704597 -186.99745644 272.69704597 -185.61997986 272.43180847 C-182.76885268 271.88457552 -179.91578075 271.34837825 -177.0625 270.8125 C-175.11900124 270.44148461 -173.17564018 270.06974715 -171.23242188 269.69726562 C-166.4898332 268.78981691 -161.74546987 267.89225364 -157 267 C-157 264.69 -157 262.38 -157 260 C-158.0994545 260.00666183 -159.198909 260.01332367 -160.3316803 260.02018738 C-170.7043502 260.08106168 -181.07698375 260.12600302 -191.44979191 260.15543652 C-196.78227764 260.17107738 -202.11461889 260.19228697 -207.44702148 260.22631836 C-212.59524896 260.2589679 -217.74333765 260.2768649 -222.89166069 260.28463173 C-224.8536135 260.29016518 -226.8155589 260.30097066 -228.77745247 260.31719017 C-231.5302674 260.33903871 -234.28251239 260.34196381 -237.03540039 260.34057617 C-238.24597359 260.35675491 -238.24597359 260.35675491 -239.48100281 260.3732605 C-244.72113913 260.34476902 -248.34339201 259.4485974 -253 257 C-255.23529288 254.62500132 -255.93889521 253.06742425 -256.125 249.81640625 C-255.90713757 245.67021186 -255.56343481 243.60911871 -252.6875 240.5 C-247.69407564 237.71297245 -242.99323374 237.86178063 -237.37597656 237.88647461 C-236.07299873 237.88625557 -236.07299873 237.88625557 -234.74369812 237.8860321 C-231.87598157 237.88672809 -229.00833019 237.89450585 -226.140625 237.90234375 C-224.1509403 237.90420904 -222.16125515 237.90563242 -220.17156982 237.90663147 C-214.93714121 237.91044788 -209.70274039 237.92027071 -204.46832275 237.93133545 C-199.12602108 237.94156838 -193.78371491 237.94613313 -188.44140625 237.95117188 C-177.9609253 237.96189374 -167.48046496 237.97895968 -157 238 C-156.67 234.7 -156.34 231.4 -156 228 C-157.04003174 227.80422363 -157.04003174 227.80422363 -158.10107422 227.60449219 C-164.94599915 226.3122283 -171.78589629 224.99599897 -178.62207031 223.65820312 C-180.71414257 223.25055447 -182.8070886 222.84732959 -184.90136719 222.45117188 C-187.35483696 221.98514968 -189.80255119 221.49652296 -192.25 221 C-192.95624512 220.87077148 -193.66249023 220.74154297 -194.39013672 220.60839844 C-199.57608194 219.5172867 -202.3582876 217.70231578 -206 214 C-207.18155794 211.32247815 -207.25925869 208.90487582 -207 206 C-205.4521983 202.33415388 -203.55768353 199.82691857 -200 198 C-193.78207375 197.65303284 -188.29393293 198.57800227 -182.25 199.96875 C-181.35128174 200.1685144 -180.45256348 200.36827881 -179.52661133 200.57409668 C-176.6825681 201.20815612 -173.84132308 201.85387244 -171 202.5 C-169.06137154 202.93436938 -167.12257087 203.36797094 -165.18359375 203.80078125 C-160.45369135 204.85831837 -155.72626098 205.92631128 -151 207 C-150.505 203.04 -150.505 203.04 -150 199 C-150.80506233 198.74524147 -150.80506233 198.74524147 -151.62638855 198.4853363 C-157.46355024 196.59466958 -163.09632219 194.37842175 -168.73828125 191.97265625 C-169.64966858 191.58730713 -170.56105591 191.20195801 -171.50006104 190.80493164 C-174.43910538 189.56110826 -177.37595357 188.31220815 -180.3125 187.0625 C-182.33645413 186.20291874 -184.36046158 185.34346302 -186.38452148 184.48413086 C-189.41244522 183.1982353 -192.44012575 181.91178235 -195.46705627 180.62355042 C-200.6262723 178.42844621 -205.78978631 176.24478382 -210.96479797 174.08717346 C-212.96574374 173.25258943 -214.96499531 172.41409243 -216.96362305 171.57397461 C-219.29799149 170.5935747 -221.63524491 169.62000519 -223.97583008 168.65454102 C-224.99572021 168.22326904 -226.01561035 167.79199707 -227.06640625 167.34765625 C-227.93209229 166.98679932 -228.79777832 166.62594238 -229.68969727 166.25415039 C-233.00223137 164.45593759 -235.52295628 162.45719912 -236.71484375 158.81640625 C-237.08608177 155.05843538 -237.25031175 152.61919222 -235.8125 149.0625 C-232.81610749 145.65281197 -231.06096296 145.09155819 -226.50610352 144.69848633 C-221.01110354 144.76024009 -216.53513618 146.91862379 -211.58984375 149.13671875 C-210.59609741 149.56824249 -209.60235107 149.99976624 -208.57849121 150.44436646 C-205.3589087 151.8456133 -202.14840095 153.26648813 -198.9375 154.6875 C-196.73059651 155.65158178 -194.52299164 156.61405957 -192.31469727 157.57495117 C-187.92378412 159.48615303 -183.53537915 161.40294403 -179.1484375 163.32324219 C-170.94679046 166.90439074 -162.69862315 170.37130357 -154.4375 173.8125 C-153.13723353 174.3555815 -151.83701989 174.89878953 -150.53686523 175.44213867 C-147.6920428 176.63002726 -144.84651135 177.8161658 -142 179 C-141.01 177.02 -140.02 175.04 -139 173 C-148.620313 166.13182718 -158.29563437 159.38201991 -168.19677734 152.92285156 C-169.27113037 152.21660645 -169.27113037 152.21660645 -170.3671875 151.49609375 C-171.31247314 150.88012329 -171.31247314 150.88012329 -172.27685547 150.25170898 C-174.79295003 148.42399337 -176.6957891 146.95635164 -177.65234375 143.94921875 C-178.20469359 139.5682522 -178.28221075 137.54495868 -176.1875 133.5 C-173.26001562 130.15430356 -172.56695816 130.07199469 -168.0625 129.5 C-163.85231334 129.55628592 -161.48908101 130.64726468 -158.0078125 132.97265625 C-157.0485083 133.60768066 -156.0892041 134.24270508 -155.10083008 134.89697266 C-154.07755615 135.59097168 -153.05428223 136.2849707 -152 137 C-150.93354248 137.71591309 -149.86708496 138.43182617 -148.76831055 139.16943359 C-145.44109398 141.4130908 -142.12523558 143.6725672 -138.8125 145.9375 C-137.65830952 146.72476539 -136.50401316 147.51187555 -135.34960938 148.29882812 C-132.56536748 150.19770439 -129.78218853 152.09811706 -127 154 C-125.68 152.68 -124.36 151.36 -123 150 C-124.61801826 145.9204281 -127.53874421 143.20729867 -130.61132812 140.19335938 C-131.18386826 139.62373978 -131.75640839 139.05412018 -132.34629822 138.46723938 C-133.58761484 137.23352209 -134.83123629 136.00212044 -136.07688904 134.77278137 C-138.04822695 132.82699308 -140.01322946 130.87500498 -141.97668457 128.92126465 C-146.14556905 124.77522829 -150.32221483 120.63706485 -154.5 116.5 C-159.34140543 111.70578311 -164.17958038 106.90840018 -169.00938416 102.10249329 C-170.94528772 100.17955515 -172.88711788 98.26274033 -174.82922363 96.34606934 C-176.01600164 95.16655677 -177.20249954 93.98676228 -178.38867188 92.80664062 C-178.93003281 92.27561234 -179.47139374 91.74458405 -180.02915955 91.19746399 C-185.87574622 85.35253826 -185.87574622 85.35253826 -186.1171875 80.78125 C-185.7389588 77.21857967 -185.36173324 74.60288873 -183.5 71.5 C-179.87448399 69.32469039 -176.21690025 68.45412295 -172 69 C-167.43122433 71.72984208 -163.71179198 75.00983248 -159.99462891 78.77832031 C-159.42804565 79.34461151 -158.8614624 79.91090271 -158.27770996 80.49435425 C-156.42254187 82.35090588 -154.57454234 84.21442056 -152.7265625 86.078125 C-151.43520171 87.37321939 -150.14339607 88.66787036 -148.85116577 89.96209717 C-145.46346563 93.35740643 -142.0818168 96.75868033 -138.70141602 100.16125488 C-135.24600265 103.6371854 -131.78486824 107.10740895 -128.32421875 110.578125 C-121.54388511 117.37986052 -114.76993406 124.18791454 -108 131 C-104.27385847 129.88145414 -104.27385847 129.88145414 -102 127 C-103.57167058 124.40615775 -105.19850027 121.94676814 -106.93359375 119.46484375 C-107.98576802 117.91782209 -109.0371756 116.37027875 -110.08789062 114.82226562 C-111.7560363 112.38285049 -113.43006026 109.94818794 -115.1184082 107.52270508 C-116.74234204 105.18239318 -118.33929191 102.82540599 -119.93359375 100.46484375 C-120.43982773 99.75198715 -120.94606171 99.03913055 -121.46763611 98.30467224 C-124.4927168 93.77987895 -125.54688486 90.41959976 -125.41004944 84.96412659 C-124.7073119 81.5980313 -122.64102854 80.01221222 -120 78 C-117.64274527 76.82137264 -116.36672421 76.85759324 -113.75 77 C-113.00234375 77.020625 -112.2546875 77.04125 -111.484375 77.0625 C-104.82936196 79.57382567 -100.77758596 88.09931335 -97.0625 93.8125 C-96.01780591 95.40031815 -94.97223745 96.98756137 -93.92578125 98.57421875 C-93.42643066 99.3326709 -92.92708008 100.09112305 -92.41259766 100.87255859 C-89.69031966 104.97244287 -86.85849768 108.99407719 -84 113 C-80.52276264 111.74433095 -77.90617542 110.26656844 -75 108 C-75.32937561 107.18282501 -75.65875122 106.36565002 -75.99810791 105.52371216 C-79.11681594 97.78618612 -82.23539731 90.04860906 -85.35383987 82.31097603 C-86.95669035 78.33391723 -88.55958813 74.35687751 -90.16259766 70.37988281 C-91.712372 66.53495702 -93.26201733 62.68997926 -94.81157684 58.84496689 C-95.39993538 57.38510193 -95.98833877 55.92525505 -96.57678986 54.4654274 C-96.9992461 53.41738749 -96.9992461 53.41738749 -97.43023682 52.34817505 C-97.70445339 51.66802275 -97.97866997 50.98787045 -98.26119614 50.28710747 C-98.79034237 48.97343335 -99.31878031 47.65947366 -99.84643936 46.34520149 C-100.9713361 43.54395254 -102.10489947 40.74725813 -103.26208496 37.95916748 C-103.62515747 37.07916077 -103.98822998 36.19915405 -104.36230469 35.29248047 C-104.67093445 34.55544891 -104.97956421 33.81841736 -105.29754639 33.05905151 C-106.53075943 29.44422323 -106.51529265 26.80028329 -106 23 C-104.00243339 19.32447744 -102.49963533 18.22624996 -98.6875 16.5 C-94.11031213 15.87936436 -91.97047637 16.70934056 -88 19 C-85.67663456 21.69127866 -84.28634163 24.35497982 -82.98217773 27.6472168 C-82.6142662 28.56725998 -82.24635468 29.48730316 -81.86729431 30.43522644 C-81.47667313 31.4298439 -81.08605194 32.42446136 -80.68359375 33.44921875 C-80.26763443 34.49406937 -79.85167511 35.53891998 -79.42311096 36.61543274 C-78.08888306 39.97056146 -76.76301924 43.32892248 -75.4375 46.6875 C-74.57282763 48.86675953 -73.70759839 51.0457982 -72.84179688 53.22460938 C-71.10912272 57.58666574 -69.37948753 61.94990925 -67.65185547 66.31396484 C-63.46278288 76.88722395 -59.23050218 87.44326465 -55 98 C-51.23312136 98 -50.08809695 97.76462683 -47 96 C-47.2172876 94.94611084 -47.4345752 93.89222168 -47.65844727 92.80639648 C-48.46590718 88.87447819 -49.25801411 84.93959429 -50.0456543 81.00366211 C-50.38786316 79.30457976 -50.73416201 77.60631561 -51.0847168 75.90893555 C-51.58954981 73.4608904 -52.07932148 71.01022404 -52.56640625 68.55859375 C-52.72468399 67.80726669 -52.88296173 67.05593964 -53.04603577 66.28184509 C-53.95864571 61.59439178 -54.09315567 57.73308844 -53 53 C-50.58103514 49.82078904 -48.90080881 48.3133248 -45.125 47 C-40.9569923 47 -38.57099504 47.84392752 -35 50 C-32.60435393 54.7127702 -31.39227175 59.14126192 -30.4296875 64.359375 C-30.30312775 65.03043274 -30.17656799 65.70149048 -30.0461731 66.3928833 C-29.64815188 68.51058438 -29.26109611 70.63009558 -28.875 72.75 C-28.47964971 74.88373584 -28.0820075 77.01702018 -27.68240356 79.14996338 C-27.32294798 81.07412678 -26.96965789 82.99943894 -26.61669922 84.92480469 C-26.06167345 88.02084578 -26.06167345 88.02084578 -25 91 C-21.535 90.505 -21.535 90.505 -18 90 C-17.99413376 88.98602142 -17.98826752 87.97204285 -17.98222351 86.92733765 C-17.92496807 77.36355775 -17.85219161 67.80000462 -17.76428509 58.23645592 C-17.71959023 53.31992614 -17.68033209 48.40347906 -17.65356445 43.48681641 C-17.62752275 38.74043506 -17.58711404 33.9943721 -17.53681374 29.24818802 C-17.52015092 27.43898102 -17.508633 25.62971896 -17.50238609 23.82044601 C-17.49273862 21.28279123 -17.46467209 18.74594989 -17.43237305 16.20849609 C-17.43380814 15.46330719 -17.43524323 14.71811829 -17.4367218 13.9503479 C-17.35215679 9.24119728 -16.46863035 6.0094571 -14 2 C-9.80829064 -1.82185265 -5.20232013 -1.61417784 0 0 Z M-88 144 C-88.79277344 144.65097656 -89.58554688 145.30195313 -90.40234375 145.97265625 C-95.09582289 149.92743042 -99.12299617 154.24908137 -103 159 C-104.16015625 160.40378906 -104.16015625 160.40378906 -105.34375 161.8359375 C-128.29397691 190.21467242 -139.09934517 226.26213832 -135.76123047 262.59912109 C-135.10835907 268.12002536 -134.14597966 273.56153619 -133 279 C-132.86078125 279.66580078 -132.7215625 280.33160156 -132.578125 281.01757812 C-126.37104996 309.49540853 -108.81412082 337.8752417 -86 356 C-85.49259277 356.40331543 -84.98518555 356.80663086 -84.46240234 357.22216797 C-54.58383884 380.70124586 -17.91817642 391.30713541 19.91894531 387.0546875 C56.97180716 382.26564787 90.61922451 362.26037172 113.54589844 332.95410156 C131.78745314 308.44009823 141.44765205 279.76302451 141.3125 249.25 C141.30758545 247.93177246 141.3026709 246.61354492 141.29760742 245.25537109 C140.92555012 214.25822782 129.39772785 183.47514134 109 160 C107.95392578 158.77216797 107.95392578 158.77216797 106.88671875 157.51953125 C81.80963084 128.7900078 47.55749997 113.38061982 10 110 C-25.91197913 107.70622089 -60.76074434 121.14407284 -88 144 Z " fill="#4C4C4C" transform="translate(262,7)"/>
</svg>
