<?xml version="1.0" encoding="UTF-8"?>
<svg version="1.1" xmlns="http://www.w3.org/2000/svg" width="256" height="256">
<path d="M0 0 C3.54307942 2.80841148 6.79894181 5.80992315 10 9 C10.95712891 9.92232422 10.95712891 9.92232422 11.93359375 10.86328125 C24.06773107 23.48386505 27.50682828 40.00870306 27.34741211 56.92797852 C26.9014079 74.15433914 20.33889746 88.89081606 8 101 C8.66 101.61875 9.32 102.2375 10 102.875 C21.78359354 114.82597413 27.30048964 126.87737027 27.31469727 143.50976562 C27.10618444 156.54860285 22.69965924 167.43285501 14.0390625 177.21484375 C0.47126512 190.35391891 -15.46185187 192.30624259 -33.47436523 192.2746582 C-35.12299835 192.27901246 -36.77162944 192.28419797 -38.42025757 192.29014587 C-42.87276437 192.3034693 -47.32518594 192.30412208 -51.77770877 192.30158257 C-55.50517294 192.30050849 -59.23262017 192.3054073 -62.96008068 192.310188 C-71.75831227 192.32125982 -80.55650115 192.32173348 -89.35473633 192.31567383 C-98.40930021 192.30963325 -107.46370873 192.32195254 -116.51824611 192.3432439 C-124.31389426 192.36089606 -132.10949311 192.36685563 -139.90516049 192.36360615 C-144.55165371 192.36179917 -149.19803604 192.36437097 -153.84451103 192.37832069 C-158.2153907 192.3909537 -162.58602913 192.38890353 -166.95690536 192.37590981 C-168.55356365 192.37355648 -170.15023922 192.3762337 -171.74687767 192.38453293 C-188.00000587 192.46287271 -200.64938756 189.70295217 -212.734375 178.359375 C-221.21643576 169.52633242 -224.3484146 158.01525626 -224.21875 145.97265625 C-223.30985091 133.62136688 -217.90337624 123.42810705 -209 115 C-207.94554687 114.401875 -206.89109375 113.80375 -205.8046875 113.1875 C-202.6903658 111.22474654 -202.6903658 111.22474654 -202.1875 107.671875 C-202.0946875 105.73054688 -202.0946875 105.73054688 -202 103.75 C-200.46200537 84.68193822 -190.57244883 68.03053769 -176.21484375 55.5859375 C-164.33101294 46.22291929 -150.21922583 39.95120161 -135 39 C-134.21625 38.94714844 -133.4325 38.89429688 -132.625 38.83984375 C-120.77012701 38.43409661 -108.71135976 40.92755319 -98 46 C-97.938125 44.783125 -97.87625 43.56625 -97.8125 42.3125 C-96.01692514 26.64426456 -86.71068163 13.05983665 -75 3 C-53.3341512 -13.51497836 -22.81182394 -15.4941756 0 0 Z " fill="#62B7C8" transform="translate(226,37)"/>
<path d="M0 0 C3.54307942 2.80841148 6.79894181 5.80992315 10 9 C10.63808594 9.61488281 11.27617187 10.22976562 11.93359375 10.86328125 C24.06773107 23.48386505 27.50682828 40.00870306 27.34741211 56.92797852 C26.88149132 74.92359231 19.75867242 89.44806533 7 102 C6.30519531 101.70480469 5.61039062 101.40960938 4.89453125 101.10546875 C2.01144446 99.93811682 2.01144446 99.93811682 -1.05078125 99.23828125 C-6.34193054 97.73648199 -10.46836467 96.33748818 -13.44921875 91.546875 C-14.84559354 88.98361853 -16.04500828 86.36234039 -17.21875 83.69140625 C-21.59465056 73.98182769 -31.11603764 67.43463178 -40.69140625 63.3125 C-50.40695555 59.74641725 -59.26367016 59.05600759 -69.484375 60.48828125 C-77.92708602 61.60684319 -77.92708602 61.60684319 -81.203125 59.75390625 C-83.125 58 -83.125 58 -84.9453125 56.05859375 C-88.71786344 52.27887066 -93.45171807 49.75070727 -98 47 C-97.59379386 30.64097102 -89.30250758 16.36558413 -77.66015625 5.28515625 C-56.03887018 -13.28819522 -23.86053686 -16.2064791 0 0 Z " fill="#F7CD56" transform="translate(226,37)"/>
</svg>
