<?xml version="1.0" encoding="UTF-8"?>
<svg version="1.1" xmlns="http://www.w3.org/2000/svg" width="256" height="256">
<path d="M0 0 C2.12630221 2.02810708 3.2518503 3.34167531 4.19921875 6.09765625 C4.19921875 7.41765625 4.19921875 8.73765625 4.19921875 10.09765625 C4.73289062 10.23300781 5.2665625 10.36835937 5.81640625 10.5078125 C13.59601637 12.75555452 20.70853681 16.58747238 25.4609375 23.28515625 C28.70408562 26.6162071 29.98765712 26.76698878 34.42919922 26.8269043 C35.19893066 26.81312744 35.96866211 26.79935059 36.76171875 26.78515625 C38.38040024 26.81854624 39.99893176 26.86022615 41.6171875 26.91015625 C42.79547119 26.94496094 42.79547119 26.94496094 43.99755859 26.98046875 C57.68511737 27.70901479 70.38957718 34.87521153 80.19921875 44.09765625 C81.32126018 45.50020803 82.42638731 46.91650841 83.51171875 48.34765625 C87.20955096 52.81985802 91.39810648 53.67584943 96.86328125 55.1328125 C108.63055094 58.53622657 118.44462934 66.44891559 124.59765625 77.015625 C128.38131841 84.01419606 131.61548249 91.07762764 132.19921875 99.09765625 C132.31910156 100.5671875 132.31910156 100.5671875 132.44140625 102.06640625 C133.08447763 117.65143038 127.89494933 130.53117131 118.01171875 142.28515625 C108.64442021 152.26336557 95.82187765 158.57284332 82.02956772 159.19562531 C79.40652294 159.24167375 76.78507163 159.25564262 74.16162109 159.25878906 C73.16564911 159.26375397 72.16967712 159.26871887 71.14352417 159.27383423 C67.85739442 159.28840567 64.57131297 159.29525029 61.28515625 159.30078125 C58.99077352 159.30653779 56.69639079 159.31229546 54.40200806 159.3180542 C49.59205909 159.3285506 44.78212677 159.33440185 39.97216797 159.33789062 C33.83257142 159.34336571 27.69319772 159.36737863 21.55367088 159.39586258 C16.81278864 159.41456151 12.07195924 159.41969847 7.33104324 159.4212265 C5.06900441 159.4242383 2.80696619 159.43221657 0.54496384 159.44541168 C-15.15482157 159.53044131 -28.52882785 159.48513548 -41.80078125 150.09765625 C-42.75597656 149.43636719 -42.75597656 149.43636719 -43.73046875 148.76171875 C-52.334904 142.14586409 -57.51752223 131.84034512 -59.265625 121.29296875 C-60.58768796 109.85489595 -58.67511887 100.75904301 -53.140625 90.69140625 C-51.46453503 87.53237343 -51.46453503 87.53237343 -50.80078125 84.09765625 C-51.88988068 81.74551511 -51.88988068 81.74551511 -53.55078125 79.41015625 C-61.09660628 67.53992569 -62.8241401 53.08864579 -60.046875 39.375 C-59.10222943 36.20765898 -58.03313699 33.16351688 -56.80078125 30.09765625 C-56.52363281 29.36289063 -56.24648438 28.628125 -55.9609375 27.87109375 C-50.70282533 15.70716606 -38.790744 6.06266285 -26.80078125 1.09765625 C-18.89273477 -1.83995389 -7.44914457 -5.05960029 0 0 Z " fill="#010100" transform="translate(113.80078125,70.90234375)"/>
<path d="M0 0 C0.76570313 0.4125 1.53140625 0.825 2.3203125 1.25 C7.82510577 4.53421565 11.45637393 8.61748854 15.2734375 13.73046875 C15.84320313 14.47941406 16.41296875 15.22835937 17 16 C17.41121094 16.55558594 17.82242188 17.11117187 18.24609375 17.68359375 C21.04373747 19.78338425 24.32850323 20.17768346 27.6875 20.875 C38.13108748 23.29285297 44.52642636 27.2769883 51 36 C55.79295262 44.14801946 56.01178969 52.49999783 53.875 61.5625 C51.3119469 70.09806287 45.84277452 76.70484562 38 81 C31.4774279 83.73403466 25.61481221 84.44219198 18.59008789 84.41992188 C17.59046524 84.42839142 16.59084259 84.43686096 15.56092834 84.44558716 C12.28137221 84.46884173 9.00228833 84.46998213 5.72265625 84.46875 C3.4277681 84.47585787 1.13288172 84.48355778 -1.16200256 84.49182129 C-5.96246283 84.50523915 -10.7627587 84.50684664 -15.56323242 84.50097656 C-21.69755202 84.49507925 -27.83108052 84.52568701 -33.96524715 84.56609344 C-38.70178943 84.59201125 -43.43814215 84.59484418 -48.17474556 84.59120178 C-50.43565422 84.59288879 -52.69657203 84.60249062 -54.95741081 84.62034607 C-58.12570255 84.64261899 -61.29240447 84.63279111 -64.46069336 84.61523438 C-65.383078 84.62849762 -66.30546265 84.64176086 -67.25579834 84.65542603 C-74.03112657 84.56871416 -79.36480499 82.81830411 -85 79 C-90.76871131 72.96618666 -93.56665546 67.08144385 -93.37890625 58.6953125 C-92.53128758 52.66586011 -89.64533022 47.10119471 -85.0625 43.0625 C-80.26603472 39.83222747 -76.72663261 37.94597762 -70.9375 37.5 C-66.86209357 37.16344241 -64.08977499 36.9025159 -61 34 C-59.47724706 30.6030896 -58.37673224 27.32665217 -57.36328125 23.7578125 C-54.25112356 13.35996772 -47.01251046 5.3608264 -37.8203125 -0.35546875 C-26.66389138 -6.18627753 -10.960811 -6.24103117 0 0 Z " fill="#FBEDAC" transform="translate(169,124)"/>
<path d="M0 0 C9.77761386 1.14774368 17.72855584 6.83294029 23.890625 14.30078125 C25 16 25 16 25 18 C24.29617187 18.13535156 23.59234375 18.27070312 22.8671875 18.41015625 C6.36568276 22.00774279 -7.60455318 30.17195178 -17.2421875 44.1796875 C-20.38084408 49.21548761 -23.12132025 54.36396076 -25 60 C-27.98611961 61.35732709 -30.34075436 62 -33.625 62 C-38.04544703 60.13875914 -39.48410717 56.23814279 -41.25 52 C-43.23832592 43.86593943 -43.2819835 34.51349339 -39.328125 27.0234375 C-34.14532765 19.1272933 -27.42975089 12.21876491 -18 10 C-16.33422067 9.86368418 -14.66741061 9.73965006 -13 9.625 C-8.36508466 9.22014294 -5.53979803 8.18581823 -2 5 C-0.58809436 2.39562767 -0.58809436 2.39562767 0 0 Z " fill="#FBCB5C" transform="translate(117,81)"/>
<path d="M0 0 C5.37853456 3.78518256 9.99083718 8.09594636 13 14 C13.53348798 18.97922113 13.16955197 22.06538376 10 26 C7.18564519 28.26711915 5.25888289 28.95603875 1.6875 29.5625 C-3.44927621 28.77892397 -6.22942485 26.44999993 -10 23 C-10.59554687 22.45859375 -11.19109375 21.9171875 -11.8046875 21.359375 C-15.44407979 17.63291591 -16.97937264 14.38017704 -17.23828125 9.1484375 C-16.84608682 5.61225824 -15.3406005 3.59363839 -13 1 C-8.58724028 -1.68602765 -4.83679479 -1.67485285 0 0 Z " fill="#000000" transform="translate(52,52)"/>
<path d="M0 0 C3.6578218 2.03993908 5.66946174 3.50419262 8 7 C8.4498953 11.57393555 8.53136727 13.95852016 6.4375 18.0625 C-3.109375 29.56770833 -3.109375 29.56770833 -10.375 30.375 C-14.7179218 29.92573223 -16.70673134 28.8337428 -20 26 C-21.84139786 23.03775127 -21.99660254 21.18006541 -22.0625 17.6875 C-19.96342207 10.40246483 -13.86603254 5.50183893 -8 1 C-5.13391871 -0.43304064 -3.18699217 -0.30644155 0 0 Z " fill="#000000" transform="translate(170,51)"/>
<path d="M0 0 C1.40572266 -0.02900391 1.40572266 -0.02900391 2.83984375 -0.05859375 C7.55306608 -0.02516664 9.78583518 0.06773503 13.59375 3.0390625 C16.63136935 7.15976744 17.21014488 10.55670568 16.5 15.625 C14.33688758 19.17868469 12.37324195 21.17729645 8.5 22.625 C5.66111358 22.8696335 2.96254244 22.9951245 0.125 23 C-0.6175 23.02449219 -1.36 23.04898438 -2.125 23.07421875 C-7.35982115 23.10196515 -10.40118887 22.15418783 -14.5 18.625 C-16.50542966 15.75604256 -16.76640265 13.63798782 -16.4375 10.1875 C-16.38464844 9.44628906 -16.33179688 8.70507812 -16.27734375 7.94140625 C-13.54374761 -0.20443552 -7.38428757 -0.15235807 0 0 Z " fill="#000000" transform="translate(26.5,111.375)"/>
<path d="M0 0 C3.9598821 2.13224421 6.47894751 3.74384394 8 8 C8.2446335 10.83888642 8.3701245 13.53745756 8.375 16.375 C8.39949219 17.1175 8.42398438 17.86 8.44921875 18.625 C8.47704848 23.87554311 7.47483269 26.84776311 4 31 C0.29825261 33.4678316 -2.70493475 33.68072732 -7 33 C-12.5 30 -12.5 30 -14 27 C-14.31877503 23.56973857 -14.32426215 20.13075474 -14.375 16.6875 C-14.41238281 15.73681641 -14.44976562 14.78613281 -14.48828125 13.80664062 C-14.57683197 6.76685855 -14.57683197 6.76685855 -11.6640625 2.89453125 C-7.7379051 0.10246917 -4.7498639 -0.46567293 0 0 Z " fill="#000000" transform="translate(110,26)"/>
</svg>
