<?xml version="1.0" encoding="UTF-8"?>
<svg version="1.1" xmlns="http://www.w3.org/2000/svg" width="512" height="512">
<path d="M0 0 C0.67627441 0.20898926 1.35254883 0.41797852 2.04931641 0.63330078 C29.5864054 9.33025224 52.74278963 29.4537189 66.21313477 54.84741211 C72.40603222 66.95761069 75.74571404 78.47428421 78 92 C67.11 92 56.22 92 45 92 C44.01 89.36 43.02 86.72 42 84 C33.54801397 62.04168413 20.1342102 45.57989458 -1.328125 35.46875 C-20.81261362 27.67495455 -42.0445505 26.80915374 -61.6640625 34.53125 C-83.72337055 44.24354488 -98.21482581 58.80458778 -107 81 C-107.92276202 83.73423579 -108.76433175 86.45053825 -109.4921875 89.2421875 C-110 91 -110 91 -111 92 C-113.44830426 92.08843793 -115.86820599 92.11528752 -118.31640625 92.09765625 C-119.04746078 92.0962413 -119.77851532 92.09482635 -120.53172302 92.09336853 C-122.87535632 92.08775408 -125.21889539 92.07519922 -127.5625 92.0625 C-129.14778508 92.05748686 -130.73307166 92.05292363 -132.31835938 92.04882812 C-136.2122761 92.03777997 -140.10612205 92.02050572 -144 92 C-142.93775913 84.87607486 -141.70417625 78.01079196 -139.375 71.1875 C-139.11557617 70.42542236 -138.85615234 69.66334473 -138.58886719 68.87817383 C-130.61355868 46.35565893 -114.46319031 25.52516418 -94 13 C-93.13761719 12.43152344 -92.27523437 11.86304688 -91.38671875 11.27734375 C-64.98590712 -5.33727491 -29.65745157 -9.56810242 0 0 Z " fill="#1C1C1A" transform="translate(289,196)"/>
<path d="M0 0 C1.25090675 -0.00935994 1.25090675 -0.00935994 2.52708435 -0.01890898 C5.31391906 -0.03482936 8.09987796 -0.0222386 10.88671875 -0.00964355 C12.88770049 -0.0150651 14.88867824 -0.02218794 16.88964844 -0.03088379 C22.3193745 -0.04911614 27.74879647 -0.04204986 33.17852783 -0.02936745 C38.86121438 -0.0192394 44.54387493 -0.02863259 50.2265625 -0.03491211 C59.76957879 -0.04218906 69.31247126 -0.03259948 78.85546875 -0.0135498 C89.88799463 0.00821896 100.92022482 0.00116763 111.95274353 -0.02085543 C121.42551708 -0.03900799 130.89820162 -0.04156843 140.37098694 -0.03110075 C146.02846117 -0.02486506 151.68579642 -0.02403236 157.34326172 -0.0372467 C162.66212809 -0.0488024 167.98061328 -0.04078433 173.29943848 -0.01766968 C175.25133633 -0.01238113 177.20326628 -0.01389885 179.15515137 -0.02272034 C181.82001297 -0.0336536 184.48365366 -0.01993932 187.1484375 0 C188.30671303 -0.01338433 188.30671303 -0.01338433 189.48838806 -0.02703905 C194.6676624 0.04811473 197.57125259 1.26427255 201.57421875 4.50793457 C205.20255538 8.32723629 205.88422333 11.39072463 206.07421875 16.50793457 C205.88422333 21.62514451 205.20255538 24.68863285 201.57421875 28.50793457 C196.83204604 32.35058647 193.08756051 33.08449805 187.1484375 33.01586914 C185.89753075 33.02522908 185.89753075 33.02522908 184.62135315 33.03477812 C181.83451844 33.0506985 179.04855954 33.03810774 176.26171875 33.0255127 C174.26073701 33.03093424 172.25975926 33.03805708 170.25878906 33.04675293 C164.829063 33.06498529 159.39964103 33.057919 153.96990967 33.04523659 C148.28722312 33.03510854 142.60456257 33.04450173 136.921875 33.05078125 C127.37885871 33.0580582 117.83596624 33.04846862 108.29296875 33.02941895 C97.26044287 33.00765018 86.22821268 33.01470151 75.19569397 33.03672457 C65.72292042 33.05487713 56.25023588 33.05743757 46.77745056 33.04696989 C41.11997633 33.0407342 35.46264108 33.0399015 29.80517578 33.05311584 C24.48630941 33.06467154 19.16782422 33.05665347 13.84899902 33.03353882 C11.89710117 33.02825027 9.94517122 33.02976799 7.99328613 33.03858948 C5.32842453 33.04952274 2.66478384 33.03580846 0 33.01586914 C-1.15827553 33.02925347 -1.15827553 33.02925347 -2.33995056 33.04290819 C-7.5192249 32.96775441 -10.42281509 31.75159659 -14.42578125 28.50793457 C-18.05411788 24.68863285 -18.73578583 21.62514451 -18.92578125 16.50793457 C-18.73578583 11.39072463 -18.05411788 8.32723629 -14.42578125 4.50793457 C-9.68360854 0.66528267 -5.93912301 -0.06862891 0 0 Z " fill="#1C1C1A" transform="translate(162.42578125,319.4920654296875)"/>
<path d="M0 0 C1.37045026 -0.00542487 2.74089468 -0.01254958 4.11132812 -0.02124023 C7.82214736 -0.03943355 11.53252041 -0.0324229 15.24334717 -0.01972389 C19.13229549 -0.00957537 23.02120638 -0.0189947 26.91015625 -0.02526855 C33.44017372 -0.03253959 39.97001005 -0.02297163 46.5 -0.00390625 C54.04255185 0.01786159 61.58467116 0.01080982 69.12721252 -0.01121187 C75.61063837 -0.02938147 82.09393423 -0.03191662 88.57737732 -0.0214572 C92.44635098 -0.01523078 96.31512153 -0.01436299 100.18408203 -0.02760315 C103.82206402 -0.03918392 107.45949 -0.03109613 111.09741211 -0.00802612 C113.06428265 -0.00024035 115.03120039 -0.01207597 116.99804688 -0.02453613 C127.73721866 0.0783295 127.73721866 0.0783295 132.5625 4.51757812 C136.19083663 8.33687985 136.87250458 11.40036819 137.0625 16.51757812 C136.87250458 21.63478806 136.19083663 24.6982764 132.5625 28.51757812 C126.80959292 33.81024048 120.62887603 33.08269404 113.125 33.03515625 C111.75454974 33.04058112 110.38410532 33.04770583 109.01367188 33.05639648 C105.30285264 33.0745898 101.59247959 33.06757915 97.88165283 33.05488014 C93.99270451 33.04473162 90.10379362 33.05415095 86.21484375 33.0604248 C79.68482628 33.06769584 73.15498995 33.05812788 66.625 33.0390625 C59.08244815 33.01729466 51.54032884 33.02434643 43.99778748 33.04636812 C37.51436163 33.06453772 31.03106577 33.06707287 24.54762268 33.05661345 C20.67864902 33.05038703 16.80987847 33.04951924 12.94091797 33.0627594 C9.30293598 33.07434017 5.66551 33.06625238 2.02758789 33.04318237 C0.06071735 33.0353966 -1.90620039 33.04723222 -3.87304688 33.05969238 C-14.61221866 32.95682675 -14.61221866 32.95682675 -19.4375 28.51757812 C-23.06583663 24.6982764 -23.74750458 21.63478806 -23.9375 16.51757812 C-23.74750458 11.40036819 -23.06583663 8.33687985 -19.4375 4.51757812 C-13.68459292 -0.77508423 -7.50387603 -0.04753779 0 0 Z " fill="#1C1C1A" transform="translate(199.4375,383.482421875)"/>
<path d="M0 0 C4.36906356 3.40786958 6.70880697 6.45320683 7.46875 11.90234375 C7.68261696 17.82824077 6.76564773 22.21783166 2.87672424 26.95948792 C1.38129546 28.55908361 -0.15321675 30.10559789 -1.71484375 31.640625 C-2.5598922 32.4864212 -2.5598922 32.4864212 -3.42201233 33.3493042 C-4.60774339 34.53270638 -5.7971405 35.71244554 -6.98999023 36.88867188 C-8.81220373 38.68720758 -10.62064304 40.49878389 -12.42773438 42.3125 C-13.58514637 43.46433717 -14.74332374 44.61540589 -15.90234375 45.765625 C-16.71033669 46.57498505 -16.71033669 46.57498505 -17.53465271 47.4006958 C-21.99609865 51.77884687 -24.92959069 53.72398643 -31.1875 53.8125 C-36.67525463 53.6881109 -39.56928289 52.86449933 -43.875 49.4375 C-47.84687041 44.44720128 -48.33314464 40.47979275 -48.40625 34.18359375 C-47.22578055 28.0816083 -42.45708715 23.71119049 -38.19140625 19.453125 C-37.65402328 18.91145691 -37.11664032 18.36978882 -36.56297302 17.81170654 C-35.43343727 16.67646363 -34.30132043 15.54378349 -33.16674805 14.41357422 C-31.43709718 12.68709792 -29.72124133 10.94767187 -28.00585938 9.20703125 C-26.90185267 8.10075257 -25.79706133 6.99525624 -24.69140625 5.890625 C-24.18291641 5.37292542 -23.67442657 4.85522583 -23.15052795 4.32183838 C-16.8680439 -1.88032992 -8.20432611 -4.11984479 0 0 Z " fill="#1C1C1A" transform="translate(400.875,153.5625)"/>
<path d="M0 0 C3.7533439 2.135851 6.42536902 4.61812641 9.43286133 7.67773438 C10.27865753 8.52278282 10.27865753 8.52278282 11.14154053 9.38490295 C12.32494271 10.57063402 13.50468187 11.76003113 14.6809082 12.95288086 C16.4794439 14.77509435 18.29102022 16.58353366 20.10473633 18.390625 C21.2565735 19.548037 22.40764222 20.70621436 23.55786133 21.86523438 C24.36722137 22.67322731 24.36722137 22.67322731 25.19293213 23.49754333 C29.5710832 27.95898928 31.51622276 30.89248132 31.60473633 37.15039062 C31.48034722 42.63814525 30.65673566 45.53217352 27.22973633 49.83789062 C22.23943761 53.80976103 18.27202908 54.29603527 11.97583008 54.36914062 C5.87384463 53.18867118 1.50342682 48.41997777 -2.75463867 44.15429688 C-3.29630676 43.61691391 -3.83797485 43.07953094 -4.39605713 42.52586365 C-5.53130004 41.39632789 -6.66398019 40.26421106 -7.79418945 39.12963867 C-9.52066575 37.39998781 -11.2600918 35.68413196 -13.00073242 33.96875 C-14.1070111 32.86474329 -15.21250743 31.75995195 -16.31713867 30.65429688 C-16.83483826 30.14580704 -17.35253784 29.6373172 -17.88592529 29.11341858 C-22.16884788 24.77503375 -24.04811916 21.04413715 -24.14526367 14.96289062 C-24.01294686 9.73248482 -22.99690879 6.97461514 -19.77026367 2.83789062 C-13.80283409 -1.81670445 -7.11823296 -2.98605701 0 0 Z " fill="#1C1C1A" transform="translate(127.770263671875,153.162109375)"/>
<path d="M0 0 C4.91709952 2.28293906 7.43806925 5.25568379 10 10 C11.41131185 16.49655162 11.18604549 23.07300474 11.18530273 29.68505859 C11.18748681 31.86185334 11.20567081 34.03813855 11.22460938 36.21484375 C11.30004271 54.22351981 11.30004271 54.22351981 6.625 59.375 C2.59012189 63.40987811 -0.18411141 64.30259684 -5.875 64.375 C-11.08266907 64.27363418 -14.10580633 63.69948398 -18 60 C-22.42898965 54.73573631 -22.58960225 50.57725694 -22.53125 44 C-22.5350769 43.04609375 -22.53890381 42.0921875 -22.54284668 41.109375 C-22.54556036 39.09894755 -22.53823737 37.08848447 -22.52148438 35.078125 C-22.50006709 32.00961213 -22.52130466 28.94344048 -22.546875 25.875 C-22.54423163 23.91666152 -22.53910645 21.9583245 -22.53125 20 C-22.53934692 19.08734375 -22.54744385 18.1746875 -22.55578613 17.234375 C-22.47405684 11.65276032 -21.72311686 8.42526862 -18 4 C-12.72867143 -1.00776214 -6.89190982 -0.92775709 0 0 Z " fill="#1C1C1A" transform="translate(262,96)"/>
</svg>
