<?xml version="1.0" encoding="UTF-8"?>
<svg version="1.1" xmlns="http://www.w3.org/2000/svg" width="512" height="512">
<path d="M0 0 C0.60634277 0.4522998 1.21268555 0.90459961 1.83740234 1.37060547 C10.34246241 7.76131078 18.33628968 14.62127426 26 22 C26.57282715 22.55091309 27.1456543 23.10182617 27.73583984 23.66943359 C35.35798428 31.04444014 42.58027811 38.53372248 49 47 C49.71639648 47.93440918 49.71639648 47.93440918 50.44726562 48.88769531 C59.41660903 60.65507175 67.05416921 72.94203901 74 86 C74.40702148 86.75796875 74.81404297 87.5159375 75.23339844 88.296875 C86.74058403 110.05731985 94.1914161 134.73754455 98 159 C98.27384521 160.72464478 98.27384521 160.72464478 98.55322266 162.48413086 C100.18327917 173.92283111 100.3989162 185.27052003 100.375 196.8125 C100.37418427 198.29742447 100.37418427 198.29742447 100.37335205 199.81234741 C100.33288453 215.87455569 99.3817153 231.24997413 96 247 C95.79632813 247.99580078 95.59265625 248.99160156 95.3828125 250.01757812 C90.78234832 272.04017053 82.75675181 293.25058279 72 313 C71.65114746 313.65613281 71.30229492 314.31226563 70.94287109 314.98828125 C63.64847086 328.69271347 54.94369699 341.0711086 45 353 C44.54866699 353.54156738 44.09733398 354.08313477 43.63232422 354.64111328 C35.09625683 364.84440333 26.24522792 374.47063952 16 383 C15.48195801 383.43183594 14.96391602 383.86367188 14.43017578 384.30859375 C-0.06515669 396.3249435 -15.32136395 406.27046616 -32 415 C-33.09707275 415.57814453 -33.09707275 415.57814453 -34.21630859 416.16796875 C-54.75520762 426.84509878 -77.25383232 433.88119965 -100 438 C-100.87994629 438.16226074 -101.75989258 438.32452148 -102.66650391 438.49169922 C-133.7814769 443.95076292 -167.75490157 442.82275861 -198.38574219 435.27050781 C-203.66291165 433.81513769 -203.66291165 433.81513769 -209 434 C-211.22825714 435.96524005 -213.14549035 437.87303784 -215.125 440.0625 C-226.88904551 452.40182484 -242.10317571 460.61301079 -259.3828125 461.3359375 C-280.76887979 461.67607376 -298.08742565 457.3709526 -313.83203125 442.19140625 C-314.54746094 441.46824219 -315.26289063 440.74507813 -316 440 C-316.62261719 439.41089844 -317.24523437 438.82179688 -317.88671875 438.21484375 C-330.44028168 425.37917828 -335.36685143 406.23004341 -335.21875 388.828125 C-334.68404532 379.47079309 -332.70962796 370.52128474 -328.671875 362.05078125 C-327.84467892 359.52590948 -328.16110486 358.49777172 -329 356 C-330.13721215 354.17548662 -330.13721215 354.17548662 -331.58984375 352.41796875 C-332.12174316 351.74145264 -332.65364258 351.06493652 -333.20166016 350.36791992 C-334.06090088 349.28861206 -334.06090088 349.28861206 -334.9375 348.1875 C-365.35485082 309.08483332 -385.79295676 260.30411476 -386.23828125 210.2265625 C-386.2480751 209.313302 -386.25786896 208.4000415 -386.26795959 207.45910645 C-386.43939427 187.320493 -386.34633177 167.76357103 -382 148 C-381.78569336 147.01531738 -381.57138672 146.03063477 -381.35058594 145.01611328 C-373.16774665 108.65786448 -357.13454623 75.15974045 -334 46 C-333.57315918 45.45601563 -333.14631836 44.91203125 -332.70654297 44.3515625 C-320.4153809 28.80756831 -306.02910041 14.64378049 -290 3 C-288.87437205 2.15708791 -287.74937792 1.31332881 -286.625 0.46875 C-252.09055725 -25.16821564 -210.66853456 -40.51008689 -168 -45 C-166.80246094 -45.13019531 -165.60492188 -45.26039062 -164.37109375 -45.39453125 C-106.78498278 -50.4936556 -46.4205158 -34.84982344 0 0 Z " fill="#29A7CF" transform="translate(399,51)"/>
<path d="M0 0 C13.11557302 11.30804867 21.96695952 24.53017551 26.625 41.1875 C26.625 42.5075 26.625 43.8275 26.625 45.1875 C27.27726563 44.84976563 27.92953125 44.51203125 28.6015625 44.1640625 C43.28478321 36.67085547 61.55259095 34.07962957 77.625 39.1875 C91.80628898 43.94025221 103.43971915 52.121322 110.375 65.5 C110.80256592 66.32032715 111.23013184 67.1406543 111.6706543 67.98583984 C121.08117083 86.58500035 127.62842766 106.85533446 131.8125 127.25 C131.96759033 128.00442383 132.12268066 128.75884766 132.2824707 129.53613281 C135.22463766 144.71675228 136.03196311 159.57457052 136 175 C135.99918427 176.48492447 135.99918427 176.48492447 135.99835205 177.99984741 C135.95788453 194.06205569 135.0067153 209.43747413 131.625 225.1875 C131.42132813 226.18330078 131.21765625 227.17910156 131.0078125 228.20507812 C126.40734832 250.22767053 118.38175181 271.43808279 107.625 291.1875 C107.27614746 291.84363281 106.92729492 292.49976563 106.56787109 293.17578125 C99.27347086 306.88021347 90.56869699 319.2586086 80.625 331.1875 C80.17366699 331.72906738 79.72233398 332.27063477 79.25732422 332.82861328 C70.72125683 343.03190333 61.87022792 352.65813952 51.625 361.1875 C51.10695801 361.61933594 50.58891602 362.05117188 50.05517578 362.49609375 C35.55984331 374.5124435 20.30363605 384.45796616 3.625 393.1875 C2.52792725 393.76564453 2.52792725 393.76564453 1.40869141 394.35546875 C-19.13020762 405.03259878 -41.62883232 412.06869965 -64.375 416.1875 C-65.25494629 416.34976074 -66.13489258 416.51202148 -67.04150391 416.67919922 C-80.61437841 419.06053461 -94.13171047 419.46975861 -107.875 419.5 C-108.67502441 419.50367584 -109.47504883 419.50735168 -110.29931641 419.51113892 C-121.1405278 419.53717275 -131.65271492 418.79235196 -142.375 417.1875 C-141.7678155 411.24031441 -140.58570568 405.72489599 -138.96875 399.9765625 C-138.72792191 399.1023616 -138.48709381 398.22816071 -138.2389679 397.32746887 C-137.45582953 394.48778001 -136.66534033 391.65019187 -135.875 388.8125 C-134.7826131 384.85877268 -133.69412051 380.90397592 -132.60546875 376.94921875 C-132.33248459 375.95956619 -132.05950043 374.96991364 -131.77824402 373.95027161 C-128.78736898 363.09169666 -125.91389254 352.20291611 -123.0546875 341.30908203 C-122.87898727 340.64083908 -122.70328705 339.97259613 -122.52226257 339.28410339 C-122.05515965 337.50666809 -121.58964784 335.72881486 -121.12426758 333.95092773 C-120.59888054 332.01320994 -120.00988438 330.09215315 -119.375 328.1875 C-120.47376465 328.21368408 -121.5725293 328.23986816 -122.70458984 328.2668457 C-126.8231937 328.35808366 -130.94171029 328.41501339 -135.06103516 328.4621582 C-136.83592809 328.48713627 -138.61071993 328.52113126 -140.38525391 328.56469727 C-152.02466038 328.84307362 -160.66719353 328.75567914 -169.99609375 321.01171875 C-176.87166554 312.92368054 -178.96116355 307.06470523 -178.65234375 296.3671875 C-177.91298688 287.89061714 -174.85943885 281.78215683 -168.375 276.1875 C-162.02779872 271.89568437 -155.97816067 270.36544631 -148.375 270.1875 C-148.08367187 269.341875 -147.79234375 268.49625 -147.4921875 267.625 C-143.14127231 255.58473155 -137.038942 245.83439818 -125.2265625 240.01953125 C-120.29281266 237.91582601 -115.88269256 237.5306228 -110.5625 237.625 C-109.68883789 237.63523193 -108.81517578 237.64546387 -107.91503906 237.65600586 C-97.91736264 237.98266078 -89.51075743 241.05249919 -82.1953125 248.03125 C-77.17070731 253.98314285 -73.29045626 260.38873969 -72.375 268.1875 C-71.51777344 267.86265625 -70.66054688 267.5378125 -69.77734375 267.203125 C-62.49329856 265.02878315 -53.35831753 265.09872494 -46.375 268.1875 C-38.63128866 272.88854954 -33.24410885 279.08355033 -30.56640625 287.828125 C-30.08701339 289.93084128 -29.71841211 292.05834492 -29.375 294.1875 C-26.405 294.5175 -23.435 294.8475 -20.375 295.1875 C-20.47424271 294.43792526 -20.57348541 293.68835052 -20.67573547 292.9160614 C-23.32486373 272.83211587 -25.7556456 252.72938671 -28.03979492 232.60083008 C-28.48063288 228.71605549 -28.92524305 224.83172296 -29.37090588 220.94749928 C-29.72145785 217.88904743 -30.0702103 214.83039243 -30.41842079 211.7716732 C-30.5817513 210.3385405 -30.74557935 208.90546438 -30.90996361 207.47245216 C-31.8745005 199.05302257 -32.73127695 190.63782698 -33.375 182.1875 C-34.21612083 182.19416183 -34.21612083 182.19416183 -35.07423401 182.20095825 C-40.93072959 182.24533715 -46.7871771 182.27542673 -52.64379883 182.29736328 C-54.82708681 182.30739692 -57.01036143 182.3210269 -59.19360352 182.33837891 C-62.33873805 182.36274313 -65.48369429 182.37400971 -68.62890625 182.3828125 C-69.5989711 182.39313507 -70.56903595 182.40345764 -71.5684967 182.41409302 C-80.7669869 182.41560269 -86.5157729 180.90062753 -93.35546875 174.46875 C-98.02047075 169.19919262 -99.89499239 163.14761034 -100.375 156.1875 C-100.50455078 154.9190625 -100.50455078 154.9190625 -100.63671875 153.625 C-101.0347165 147.25703598 -100.08918796 143.30107818 -96.22265625 138.19140625 C-91.92475738 133.5300487 -86.79050394 130.39738275 -81.375 127.1875 C-82.05304688 126.78660156 -82.73109375 126.38570312 -83.4296875 125.97265625 C-102.0848764 114.57800486 -114.34796998 98.86166255 -120.875 78.0625 C-125.74126241 57.51123109 -122.13973759 37.23183983 -111.375 19.1875 C-100.0079269 1.62065646 -83.44748144 -9.45688753 -63.375 -14.8125 C-40.71569349 -18.91101512 -18.37915116 -13.98538534 0 0 Z " fill="#26A6D0" transform="translate(363.375,72.8125)"/>
<path d="M0 0 C8.6106657 0.13913104 16.83377542 4.56331444 22.94140625 10.4296875 C28.3255606 16.42814134 31.59474037 22.60976033 33.6875 30.375 C34.450625 30.045 35.21375 29.715 36 29.375 C44.16640167 27.1603826 53.04149202 27.60008411 60.6875 31.375 C67.85170115 36.33966571 72.75547093 42.1380439 75.6875 50.375 C75.78417969 51.25800781 75.88085938 52.14101562 75.98046875 53.05078125 C76.21378906 53.81777344 76.44710937 54.58476562 76.6875 55.375 C79.04943265 56.63867649 79.04943265 56.63867649 81.9375 57.3125 C87.42215894 59.09803748 89.72433224 60.40452504 92.6875 65.375 C93.04064105 66.74012734 93.35242093 68.11653265 93.625 69.5 C94.32167083 73.02354668 94.52598966 73.25128995 97.625 75.625 C98.635625 76.2025 99.64625 76.78 100.6875 77.375 C103.36884052 79.93048526 103.68364016 81.33621403 104.05664349 85.08436966 C104.06924508 86.61505535 104.06519714 88.14593081 104.04826355 89.67657471 C104.05082682 90.52120419 104.0533901 91.36583368 104.05603105 92.236058 C104.06097857 95.07065118 104.04446006 97.90471357 104.02807617 100.73925781 C104.02723011 102.76937853 104.02770463 104.79950017 104.02940369 106.82962036 C104.03026587 112.34581661 104.01260385 117.86181792 103.99168181 123.37796879 C103.97295231 129.14086486 103.97116751 134.9037652 103.96760559 140.66668701 C103.95827417 151.58179811 103.93364551 162.49681928 103.90355712 173.41189075 C103.87004727 185.83736927 103.85353569 198.26285205 103.83847082 210.68836451 C103.80709695 236.25062624 103.7543151 261.81280808 103.6875 287.375 C104.45932617 287.66600586 105.23115234 287.95701172 106.02636719 288.25683594 C118.46843887 293.48478899 126.51156815 307.94289206 131.625 319.75 C134.72410306 327.45888001 136.03512669 334.44179978 135.9375 342.6875 C135.93000732 343.52490723 135.92251465 344.36231445 135.91479492 345.22509766 C135.67430824 359.09808936 132.34949908 371.98326074 124.1171875 383.375 C122.62310912 385.38798693 122.62310912 385.38798693 121.3515625 387.7578125 C112.40220003 401.8331009 96.42303053 411.52117054 80.515625 415.48828125 C62.10118305 419.36227379 42.83111218 416.55811395 26.9140625 406.58203125 C22.05409137 403.25771686 17.82296251 399.55517021 13.6875 395.375 C13.06488281 394.78589844 12.44226563 394.19679688 11.80078125 393.58984375 C-0.75278168 380.75417828 -5.67935143 361.60504341 -5.53125 344.203125 C-4.99654532 334.84579309 -3.02212796 325.89628474 1.015625 317.42578125 C1.84282108 314.90090948 1.52639514 313.87277172 0.6875 311.375 C-0.44971215 309.55048662 -0.44971215 309.55048662 -1.90234375 307.79296875 C-2.43424316 307.11645264 -2.96614258 306.43993652 -3.51416016 305.74291992 C-4.37340088 304.66361206 -4.37340088 304.66361206 -5.25 303.5625 C-35.66735082 264.45983332 -56.10545676 215.67911476 -56.55078125 165.6015625 C-56.5605751 164.688302 -56.57036896 163.7750415 -56.58045959 162.83410645 C-56.75189427 142.695493 -56.65883177 123.13857103 -52.3125 103.375 C-52.09819336 102.39031738 -51.88388672 101.40563477 -51.66308594 100.39111328 C-46.99030878 79.62888289 -25.93780928 2.93635577 0 0 Z " fill="#74CAE7" transform="translate(69.3125,95.625)"/>
<path d="M0 0 C13.11557302 11.30804867 21.96695952 24.53017551 26.625 41.1875 C26.625 42.5075 26.625 43.8275 26.625 45.1875 C27.27726563 44.84976563 27.92953125 44.51203125 28.6015625 44.1640625 C43.28478321 36.67085547 61.55259095 34.07962957 77.625 39.1875 C91.80628898 43.94025221 103.43971915 52.121322 110.375 65.5 C110.80256592 66.32032715 111.23013184 67.1406543 111.6706543 67.98583984 C122.66697714 89.71922429 129.43268734 113.28175555 133.625 137.1875 C133.85316406 138.44304687 134.08132813 139.69859375 134.31640625 140.9921875 C135.71431566 150.08348645 135.71587539 159.0403947 135.671875 168.22265625 C135.66810542 169.58076893 135.66468472 170.93888262 135.66162109 172.29699707 C135.65283532 175.59385768 135.64053241 178.89066542 135.625 182.1875 C107.7133845 182.23421157 79.80177485 182.26948473 51.89012814 182.29112434 C38.93040091 182.30143885 25.97069797 182.31550256 13.01098633 182.33837891 C1.71589233 182.35830739 -9.57918408 182.37121517 -20.87429518 182.37567699 C-26.85547432 182.37828527 -32.83660316 182.3844196 -38.81776619 182.39896011 C-44.44750816 182.41253541 -50.0771791 182.41672271 -55.70693588 182.41371536 C-57.77291055 182.41426554 -59.83888759 182.41824327 -61.9048481 182.42591095 C-64.72698151 182.43587129 -67.54884724 182.43346482 -70.37098694 182.42800903 C-71.18715093 182.43383472 -72.00331493 182.4396604 -72.84421116 182.44566262 C-81.43490257 182.40082001 -87.00581517 180.43980414 -93.35546875 174.46875 C-98.02047075 169.19919262 -99.89499239 163.14761034 -100.375 156.1875 C-100.46136719 155.341875 -100.54773438 154.49625 -100.63671875 153.625 C-101.0347165 147.25703598 -100.08918796 143.30107818 -96.22265625 138.19140625 C-91.92475738 133.5300487 -86.79050394 130.39738275 -81.375 127.1875 C-82.05304688 126.78660156 -82.73109375 126.38570312 -83.4296875 125.97265625 C-102.0848764 114.57800486 -114.34796998 98.86166255 -120.875 78.0625 C-125.74126241 57.51123109 -122.13973759 37.23183983 -111.375 19.1875 C-100.0079269 1.62065646 -83.44748144 -9.45688753 -63.375 -14.8125 C-40.71569349 -18.91101512 -18.37915116 -13.98538534 0 0 Z " fill="#C3EFFE" transform="translate(363.375,72.8125)"/>
<path d="M0 0 C52.47 0 104.94 0 159 0 C159 10.12218696 158.93251933 19.16881257 157.375 29 C157.10550537 30.72947876 157.10550537 30.72947876 156.83056641 32.49389648 C152.4503848 59.38835889 144.05219424 85.03614604 131 109 C130.47672119 109.98419922 130.47672119 109.98419922 129.94287109 110.98828125 C122.64847086 124.69271347 113.94369699 137.0711086 104 149 C103.54866699 149.54156738 103.09733398 150.08313477 102.63232422 150.64111328 C94.09625683 160.84440333 85.24522792 170.47063952 75 179 C74.48195801 179.43183594 73.96391602 179.86367188 73.43017578 180.30859375 C66.46875721 186.07947485 59.39067625 191.59060696 51.875 196.625 C50.95255493 197.24532104 50.95255493 197.24532104 50.01147461 197.87817383 C46.76647316 200.00732822 43.61621771 201.6188431 40 203 C36.24469365 186.17081057 32.83325997 169.28399961 29.539258 152.35915375 C28.8538565 148.84017881 28.16571805 145.32173887 27.47796631 141.80322266 C26.31993843 135.87678311 25.16372315 129.94999242 24.00878906 124.02294922 C22.70147366 117.31393784 21.39195871 110.60535918 20.08103585 103.89705181 C18.65251685 96.58696597 17.22538134 89.27661054 15.79876995 81.96615219 C15.40393543 79.94319669 15.00890661 77.92027922 14.6138382 75.89736938 C9.67739805 50.61048663 4.84559295 25.30476317 0 0 Z " fill="#26A6D0" transform="translate(340,255)"/>
<path d="M0 0 C2.31803788 -0.00226715 4.63565393 -0.02078798 6.95361328 -0.03930664 C8.44189295 -0.04222832 9.9301748 -0.04422128 11.41845703 -0.04516602 C13.39217285 -0.05132935 13.39217285 -0.05132935 15.40576172 -0.05761719 C18.49658203 0.18530273 18.49658203 0.18530273 20.49658203 2.18530273 C20.12158203 4.81030273 20.12158203 4.81030273 19.49658203 7.18530273 C17.84658203 7.18530273 16.19658203 7.18530273 14.49658203 7.18530273 C14.49658203 14.44530273 14.49658203 21.70530273 14.49658203 29.18530273 C16.14658203 29.18530273 17.79658203 29.18530273 19.49658203 29.18530273 C19.8787697 30.84144931 20.21053305 32.50987298 20.49658203 34.18530273 C20.16658203 34.51530273 19.83658203 34.84530273 19.49658203 35.18530273 C17.84658203 35.18530273 16.19658203 35.18530273 14.49658203 35.18530273 C14.49658203 42.44530273 14.49658203 49.70530273 14.49658203 57.18530273 C16.14658203 57.18530273 17.79658203 57.18530273 19.49658203 57.18530273 C20.12158203 59.56030273 20.12158203 59.56030273 20.49658203 62.18530273 C19.50658203 63.17530273 19.50658203 63.17530273 18.49658203 64.18530273 C17.17658203 64.18530273 15.85658203 64.18530273 14.49658203 64.18530273 C14.49658203 71.11530273 14.49658203 78.04530273 14.49658203 85.18530273 C16.14658203 85.51530273 17.79658203 85.84530273 19.49658203 86.18530273 C20.12158203 88.06030273 20.12158203 88.06030273 20.49658203 90.18530273 C19.83658203 90.84530273 19.17658203 91.50530273 18.49658203 92.18530273 C17.17658203 92.18530273 15.85658203 92.18530273 14.49658203 92.18530273 C13.59793339 103.91344695 13.59793339 103.91344695 17.21533203 114.49780273 C19.43241835 115.86053628 19.43241835 115.86053628 21.89501953 116.94311523 C32.25437625 121.88947475 39.39419465 134.0657529 43.3684082 144.46704102 C45.445366 150.71207688 46.00657049 156.50354887 45.93408203 163.06030273 C45.92650879 164.02556885 45.91893555 164.99083496 45.91113281 165.98535156 C45.7418749 173.32089053 44.71984262 179.52791403 41.49658203 186.18530273 C41.07248047 187.11213867 40.64837891 188.03897461 40.21142578 188.99389648 C33.50210704 202.46860069 22.4290826 212.58848627 8.49658203 218.18530273 C-7.43861702 223.49703575 -23.39938093 222.48917753 -38.56591797 215.56030273 C-44.77078068 212.31703468 -49.60486859 208.14541377 -54.50341797 203.18530273 C-55.06673828 202.64389648 -55.63005859 202.10249023 -56.21044922 201.54467773 C-65.55396543 191.78205922 -70.41947989 177.18308891 -70.94091797 163.93530273 C-70.4645753 147.36254747 -64.27808219 133.53767327 -52.91748047 121.45483398 C-43.05763484 112.18530273 -43.05763484 112.18530273 -38.50341797 112.18530273 C-38.50341797 75.55530273 -38.50341797 38.92530273 -38.50341797 1.18530273 C-12.39684658 -0.0013596 -12.39684658 -0.0013596 0 0 Z " fill="#D41920" transform="translate(148.50341796875,276.814697265625)"/>
<path d="M0 0 C25.41 0 50.82 0 77 0 C77.24839659 25.66058354 77.45098818 51.32019244 77.56993389 76.98167324 C77.62663266 88.89699305 77.7039187 100.81151238 77.82983398 112.72631836 C77.93954181 123.11244385 78.01045615 133.49798961 78.03497344 143.88467842 C78.04930371 149.383728 78.0829289 154.88111926 78.16303062 160.37963676 C78.23786313 165.55855515 78.2606961 170.73513737 78.24418449 175.91454506 C78.24720356 177.81209908 78.26899283 179.70973353 78.31126022 181.60681915 C78.61509077 195.95076483 78.61509077 195.95076483 74.62098122 201.01851082 C71.85263392 203.28220176 69.02642176 205.10631483 66 207 C61.06916799 211.87613241 56.89640761 217.27715132 53 223 C39.14045867 209.40652317 29.1129564 193.00610125 20 176 C19.66258789 175.38108887 19.32517578 174.76217773 18.97753906 174.12451172 C8.42388495 154.64915878 1.49355219 133.63972782 -3 112 C-3.31541748 110.53675293 -3.31541748 110.53675293 -3.63720703 109.04394531 C-11.09058467 73.10485597 -8.18210016 35.45576734 0 0 Z " fill="#3AACC6" transform="translate(20,186)"/>
<path d="M0 0 C12.81833586 11.05177529 25.12327678 26.47884106 26.91015625 43.98046875 C26.81605469 44.70878906 26.72195313 45.43710938 26.625 46.1875 C24.125 48.0625 24.125 48.0625 22.45703125 49.0625 C9.03898594 57.30215256 2.71264158 71.94210358 -2.375 86.1875 C-5.43050014 85.72033675 -8.12655104 85.28806268 -11 84.125 C-22.97247414 80.79931274 -36.76903774 83.5560793 -47.48828125 89.37109375 C-60.59142424 97.61596721 -66.95276414 108.74686603 -70.6484375 123.44921875 C-71.375 126.1875 -71.375 126.1875 -72.375 127.1875 C-80.9499015 128.2939389 -85.6608075 125.32746092 -92.375 120.1875 C-107.80645744 107.81494093 -119.80626246 90.19332747 -122.375 70.1875 C-124.33638476 47.25505938 -118.84424411 27.11019319 -104.0390625 9.16015625 C-77.09497791 -20.90501732 -31.72232726 -24.1387084 0 0 Z " fill="#FEEC5F" transform="translate(363.375,72.8125)"/>
<path d="M0 0 C1.31049316 0.0153479 1.31049316 0.0153479 2.64746094 0.03100586 C12.64513736 0.35766078 21.05174257 3.42749919 28.3671875 10.40625 C33.39179269 16.35814285 37.27204374 22.76373969 38.1875 30.5625 C39.47333984 30.07523437 39.47333984 30.07523437 40.78515625 29.578125 C48.06920144 27.40378315 57.20418247 27.47372494 64.1875 30.5625 C71.93121134 35.26354954 77.31839115 41.45855033 79.99609375 50.203125 C80.47548661 52.30584128 80.84408789 54.43334492 81.1875 56.5625 C82.05375 56.48 82.92 56.3975 83.8125 56.3125 C89.2821888 56.71766213 92.12130087 59.58901384 96.0625 63.1875 C98.96578352 67.79859736 99.04988146 71.25246602 98.1875 76.5625 C96.51908642 82.25108034 94.36547882 86.37605149 89.1875 89.5625 C86.13354393 90.58048536 84.04281356 90.69793437 80.84483337 90.71640015 C79.73607849 90.72500061 78.62732361 90.73360107 77.48497009 90.74246216 C76.26781815 90.74672211 75.0506662 90.75098206 73.79663086 90.75537109 C72.51503082 90.76354858 71.23343079 90.77172607 69.91299438 90.78015137 C65.65946551 90.80635081 61.40592692 90.82168169 57.15234375 90.8359375 C55.68557797 90.84129894 54.21881225 90.84667645 52.75204659 90.85206985 C46.64673559 90.87369979 40.54142721 90.89243302 34.43608761 90.90369225 C25.70189165 90.9199076 16.96814224 90.95302471 8.23411459 91.01009309 C2.08532879 91.04889081 -4.06333809 91.06833678 -10.21224302 91.07361281 C-13.88031106 91.07725427 -17.54790262 91.08914457 -21.21583748 91.12171555 C-25.31611435 91.15760253 -29.41544171 91.15340053 -33.51586914 91.14599609 C-34.71885147 91.16240143 -35.9218338 91.17880676 -37.16127014 91.19570923 C-46.03663939 91.13028609 -52.56030376 89.09226647 -59.43359375 83.38671875 C-66.30916554 75.29868054 -68.39866355 69.43970523 -68.08984375 58.7421875 C-67.35048688 50.26561714 -64.29693885 44.15715683 -57.8125 38.5625 C-51.46529872 34.27068437 -45.41566067 32.74044631 -37.8125 32.5625 C-37.37550781 31.2940625 -37.37550781 31.2940625 -36.9296875 30 C-32.57877231 17.95973155 -26.476442 8.20939818 -14.6640625 2.39453125 C-9.73031266 0.29082601 -5.32019256 -0.0943772 0 0 Z " fill="#78CBE3" transform="translate(252.8125,310.4375)"/>
<path d="M0 0 C1.49080078 -0.0299707 1.49080078 -0.0299707 3.01171875 -0.06054688 C10.54584564 -0.05557057 16.12660739 1.09750513 21.57845688 6.49537945 C24.06291064 10.29938593 24.0460504 13.46683413 23.98101807 17.85932922 C23.98443577 18.70481313 23.98785347 19.55029704 23.99137473 20.42140168 C23.99796072 23.25304098 23.97596581 26.08373131 23.95410156 28.9152832 C23.95297324 30.94555133 23.95360665 32.97582108 23.95587158 35.00608826 C23.95702024 40.51815584 23.93348602 46.02987596 23.90557575 51.54186273 C23.88058763 57.30207579 23.87822214 63.06229664 23.87347412 68.82255554 C23.86103676 79.73058387 23.82820474 90.63845202 23.78807616 101.54640979 C23.74338222 113.96464656 23.72137737 126.38289094 23.70129442 138.80118811 C23.65947287 164.34671424 23.58910592 189.89209815 23.5 215.4375 C24.27182617 215.72850586 25.04365234 216.01951172 25.83886719 216.31933594 C38.28093887 221.54728899 46.32406815 236.00539206 51.4375 247.8125 C54.53660306 255.52138001 55.84762669 262.50429978 55.75 270.75 C55.73876099 272.00611084 55.73876099 272.00611084 55.72729492 273.28759766 C55.48680824 287.16058936 52.16199908 300.04576074 43.9296875 311.4375 C42.43688002 313.44716207 42.43688002 313.44716207 41.1796875 315.8046875 C39.05490484 319.13516079 36.53110704 321.7744402 33.75 324.5625 C33.24984375 325.08714844 32.7496875 325.61179687 32.234375 326.15234375 C28.6506789 329.7634661 25.33549143 331.64517339 20.5 333.4375 C19.47777344 333.87191406 18.45554688 334.30632812 17.40234375 334.75390625 C16.42394531 335.16511719 15.44554687 335.57632812 14.4375 336 C13.45652344 336.41378906 12.47554687 336.82757813 11.46484375 337.25390625 C1.84815986 341.09297768 -4.32916154 340.94385189 -13.86376953 336.95678711 C-23.29164745 332.8542051 -23.29164745 332.8542051 -24.5 330.4375 C-23.27925781 330.40011719 -22.05851562 330.36273438 -20.80078125 330.32421875 C-1.47249895 329.60937754 14.72888382 326.32436109 28.87109375 312.29296875 C41.627814 298.43685805 44.28920038 282.09648538 43.67480469 264.04785156 C43.31563041 258.6843161 41.87113134 254.22197867 39.5 249.4375 C38.77103516 247.93703125 38.77103516 247.93703125 38.02734375 246.40625 C33.1700546 237.31175117 26.88895053 229.37070401 17.375 225.0625 C15.15234375 223.75 15.15234375 223.75 13.5 221.4375 C12.35936114 214.86462318 12.95738714 208.05088415 13.5 201.4375 C15.975 200.4475 15.975 200.4475 18.5 199.4375 C18.17 198.1175 17.84 196.7975 17.5 195.4375 C16.18 195.1075 14.86 194.7775 13.5 194.4375 C13.5 187.5075 13.5 180.5775 13.5 173.4375 C15.975 172.4475 15.975 172.4475 18.5 171.4375 C18.5 170.1175 18.5 168.7975 18.5 167.4375 C16.85 167.1075 15.2 166.7775 13.5 166.4375 C13.5 159.1775 13.5 151.9175 13.5 144.4375 C15.15 144.1075 16.8 143.7775 18.5 143.4375 C18.5 142.1175 18.5 140.7975 18.5 139.4375 C16.85 139.1075 15.2 138.7775 13.5 138.4375 C13.5 131.1775 13.5 123.9175 13.5 116.4375 C15.975 115.9425 15.975 115.9425 18.5 115.4375 C18.17 113.7875 17.84 112.1375 17.5 110.4375 C3.64 110.4375 -10.22 110.4375 -24.5 110.4375 C-24.61297198 97.3723774 -24.70470006 84.30757932 -24.75906086 71.24207878 C-24.78515164 65.17519862 -24.82054132 59.10867002 -24.87719727 53.04199219 C-24.93153389 47.18700837 -24.96142444 41.33236265 -24.97438622 35.47714615 C-24.983623 33.24359947 -25.00166037 31.01007125 -25.02865028 28.77666855 C-25.06496139 25.64741822 -25.06994433 22.51956391 -25.06762695 19.39013672 C-25.08560333 18.46728378 -25.10357971 17.54443085 -25.12210083 16.59361267 C-25.08715857 12.23135918 -24.88885501 9.34908923 -22.07914734 5.89213562 C-15.74168394 -0.13937842 -8.4058696 -0.05996405 0 0 Z " fill="#FDFDFD" transform="translate(149.5,167.5625)"/>
<path d="M0 0 C0.98608749 0.00636726 0.98608749 0.00636726 1.99209595 0.01286316 C4.07068641 0.02951898 6.14827024 0.06714255 8.2265625 0.10546875 C9.64451714 0.1205327 11.06248714 0.1342181 12.48046875 0.14648438 C15.9378214 0.17937837 19.39459353 0.2310671 22.8515625 0.29296875 C19.8515625 2.29296875 19.8515625 2.29296875 16.8515625 3.66796875 C13.60960314 5.42403007 12.56767141 6.08207965 10.8515625 9.29296875 C10.3910595 12.53176639 10.41414826 15.75149125 10.41918945 19.01855469 C10.4089978 20.00424942 10.39880615 20.98994415 10.38830566 22.00550842 C10.35811686 25.26284424 10.34890057 28.51988627 10.33984375 31.77734375 C10.32300146 34.03608177 10.30485184 36.29481038 10.28544617 38.55352783 C10.23789136 44.49811873 10.20811732 50.44267152 10.18200684 56.38739014 C10.15222906 62.45364915 10.10568916 68.51977681 10.06054688 74.5859375 C9.97445132 86.48821262 9.90713374 98.39051473 9.8515625 110.29296875 C4.9015625 110.29296875 -0.0484375 110.29296875 -5.1484375 110.29296875 C-5.11956955 111.6635997 -5.0907016 113.03423065 -5.06095886 114.44639587 C-4.79715084 127.37857476 -4.60242473 140.31020634 -4.47487926 153.24446774 C-4.40709723 159.89417674 -4.31521838 166.54113172 -4.16772461 173.18969727 C-4.02621273 179.6089715 -3.94869208 186.02615694 -3.91503334 192.4468708 C-3.89105675 194.89313205 -3.84423045 197.33928188 -3.77394676 199.7846508 C-3.2573022 218.50909158 -3.2573022 218.50909158 -6.42401505 223.17070389 C-9.848784 226.53741279 -13.8037522 228.30143994 -18.1484375 230.29296875 C-29.6474062 240.386412 -34.88510887 254.89696305 -36.52734375 269.7109375 C-37.08308285 284.42906012 -31.4392953 299.51308857 -21.8359375 310.60546875 C-12.2041354 320.63926593 -1.91619577 326.81025824 11.8515625 329.29296875 C11.5215625 329.95296875 11.1915625 330.61296875 10.8515625 331.29296875 C26.36868978 339.06515096 26.36868978 339.06515096 42.99804688 337.34838867 C47.41852462 335.70466053 51.67950012 334.01769132 55.70703125 331.52734375 C56.41472656 331.12 57.12242187 330.71265625 57.8515625 330.29296875 C58.5115625 330.62296875 59.1715625 330.95296875 59.8515625 331.29296875 C43.15499742 343.5624143 24.85427746 346.42894896 4.55517578 344.02050781 C-9.87424704 341.58629694 -22.01741328 333.53351756 -32.1484375 323.29296875 C-32.77105469 322.70386719 -33.39367187 322.11476563 -34.03515625 321.5078125 C-46.58516035 308.67578584 -51.52952335 289.51328775 -51.36328125 272.11328125 C-50.23291747 252.01335805 -42.04202381 236.77232121 -28.01171875 222.85546875 C-26.1484375 221.29296875 -26.1484375 221.29296875 -24.46497214 220.34262604 C-22.44246201 219.13661271 -20.80270668 217.97376077 -19.1484375 216.29296875 C-18.4391798 213.14417781 -18.22277563 211.01761877 -18.30233765 207.87355042 C-18.29580095 207.02821635 -18.28926425 206.18288228 -18.28252947 205.31193203 C-18.26899781 202.47979965 -18.30531899 199.65050712 -18.34130859 196.81860352 C-18.34160614 194.78821631 -18.33875636 192.75782656 -18.33299255 190.72744751 C-18.32713087 186.35537055 -18.34314697 181.98411022 -18.37595749 177.61215401 C-18.42727883 170.69994903 -18.42761973 163.7883186 -18.42056274 156.8759613 C-18.41386695 143.45049139 -18.45908225 130.02543791 -18.50980377 116.6000824 C-18.57200968 99.51472562 -18.61136067 82.42944426 -18.60322058 65.34396976 C-18.60166903 58.47189018 -18.62585125 51.60052132 -18.67010093 44.72859013 C-18.69290916 40.4541058 -18.69529927 36.17978332 -18.69232368 31.90524673 C-18.69525859 29.92267193 -18.70682029 27.94008835 -18.72763252 25.95762062 C-18.75492435 23.25099839 -18.75148999 20.54606932 -18.74057007 17.83937073 C-18.75601817 17.05483208 -18.77146626 16.27029343 -18.78738248 15.46198088 C-18.71598343 9.74860037 -17.23844422 7.2897751 -13.1484375 3.29296875 C-8.67910732 0.39730884 -5.27595198 -0.06764041 0 0 Z " fill="#CBCBCB" transform="translate(115.1484375,167.70703125)"/>
<path d="M0 0 C0.22304079 5.72890742 0.38603876 11.45527398 0.49438477 17.1875 C0.53955622 19.135539 0.6009115 21.08327431 0.67895508 23.03027344 C1.30676423 39.09890512 1.30676423 39.09890512 -1.67211914 43.43261719 C-4.05154908 45.04966965 -6.30442506 46.00522528 -9 47 C-10.70291928 47.95440335 -12.39157829 48.93461858 -14.06640625 49.9375 C-15.89678242 50.96129796 -17.72889235 51.98200089 -19.5625 53 C-27.83616879 57.63427629 -36.06477503 62.33620787 -44.25 67.125 C-45.24032227 67.70258057 -46.23064453 68.28016113 -47.25097656 68.87524414 C-52.05783933 71.68135917 -56.85269643 74.50528195 -61.62890625 77.36328125 C-62.50579102 77.88325684 -63.38267578 78.40323242 -64.28613281 78.93896484 C-65.92983148 79.91393802 -67.56880399 80.89693845 -69.20214844 81.88916016 C-69.92563477 82.31632324 -70.64912109 82.74348633 -71.39453125 83.18359375 C-72.33582886 83.74904907 -72.33582886 83.74904907 -73.29614258 84.32592773 C-75 85 -75 85 -78 84 C-78.6505237 80.35498776 -79.29454906 76.708855 -79.9375 73.0625 C-80.11990234 72.04091797 -80.30230469 71.01933594 -80.49023438 69.96679688 C-82.14749373 60.53548452 -83.15911327 51.51707729 -83.0625 41.9375 C-83.05798828 41.07189453 -83.05347656 40.20628906 -83.04882812 39.31445312 C-83.03719913 37.20960461 -83.01927073 35.10479242 -83 33 C-76.61938004 29.61969637 -70.0613492 26.98988246 -63.31561279 24.42547607 C-59.91532062 23.13241325 -56.52040444 21.82536302 -53.125 20.51953125 C-52.40291351 20.24214111 -51.68082703 19.96475098 -50.93685913 19.67895508 C-41.72699774 16.13515052 -32.55160131 12.50385168 -23.375 8.875 C-22.54168152 8.54567474 -21.70836304 8.21634949 -20.84979248 7.87704468 C-11.95217448 4.37547628 -11.95217448 4.37547628 -3.08056641 0.80908203 C-1 0 -1 0 0 0 Z " fill="#26A6D0" transform="translate(96,219)"/>
<path d="M0 0 C3.3 0 6.6 0 10 0 C11.48443702 4.20333362 12.55889426 8.32790757 13.41497803 12.70103455 C13.54312716 13.34990759 13.67127629 13.99878063 13.80330873 14.6673165 C14.22907663 16.82819124 14.6492022 18.99012295 15.06933594 21.15209961 C15.37482384 22.70864403 15.68065982 24.26512017 15.98681641 25.8215332 C16.81708401 30.047639 17.6424489 34.27468907 18.46692944 38.50192714 C19.33682033 42.95760988 20.2111752 47.41241655 21.08502197 51.86732483 C22.74556511 60.33648404 24.40200811 68.80643988 26.05702996 77.27667958 C27.91652804 86.79224802 29.7808835 96.30686258 31.64553404 105.82142246 C35.33007978 124.6237343 39.01362227 143.426246 42.67835355 162.23243123 C43.56618492 166.78554111 44.45946885 171.33754281 45.3569324 175.88876361 C45.92914008 178.79329561 46.49843161 181.69839443 47.06714678 184.60361207 C47.33229906 185.95442131 47.59876186 187.30497408 47.86663389 188.65524662 C48.23175272 190.49638199 48.59186542 192.33850803 48.95172119 194.18067932 C49.15525333 195.21359384 49.35878548 196.24650835 49.56848526 197.3107233 C50 200 50 200 50 204 C46.21179916 206.00661684 42.41888948 208.0041624 38.625 210 C37.54476562 210.57234375 36.46453125 211.1446875 35.3515625 211.734375 C33.8046875 212.54648437 33.8046875 212.54648437 32.2265625 213.375 C31.27346191 213.87773437 30.32036133 214.38046875 29.33837891 214.8984375 C27 216 27 216 25 216 C22.65877703 201.20214703 20.69682087 186.37143201 18.99047852 171.48706055 C18.70272629 169.0164623 18.40470035 166.5470411 18.09692383 164.07885742 C17.64622175 160.45728888 17.22795288 156.83323233 16.81640625 153.20703125 C16.6739296 152.11316605 16.53145294 151.01930084 16.38465881 149.89228821 C15.71443232 143.62291403 16.03075968 139.41733501 19.03755188 133.8150177 C21.04421488 130.03078373 20.91902765 126.09507909 20 122 C18.33771178 119.25317008 16.36336737 117.15519512 14 115 C11.30866054 112.30866054 11.71691032 110.92380518 11.58203125 107.140625 C11.2106156 99.67313577 10.40052664 92.28152292 9.51171875 84.859375 C9.29590401 83.05533958 9.29590401 83.05533958 9.07572937 81.21485901 C8.77194975 78.69151149 8.46682048 76.16832613 8.16043091 73.64529419 C7.68199254 69.70463783 7.20811255 65.76344936 6.73608398 61.82202148 C6.26434667 57.88420843 5.79248062 53.94641253 5.31929016 50.0087738 C4.12861404 40.09861303 2.95474279 30.18669013 1.8163147 20.27038574 C1.64845823 18.81023431 1.47967065 17.35018959 1.30990601 15.89025879 C1.080649 13.91798566 0.85467471 11.94533176 0.62890625 9.97265625 C0.4443689 8.36789429 0.4443689 8.36789429 0.25610352 6.73071289 C0 4 0 4 0 0 Z " fill="#3AACC6" transform="translate(330,255)"/>
<path d="M0 0 C12.85057421 11.0795707 25.04976502 26.45076223 26.921875 43.96484375 C26.625 46.1875 26.625 46.1875 23.9375 48.3125 C22.844375 48.93125 21.75125 49.55 20.625 50.1875 C18.95642434 51.18431143 17.28941076 52.18374973 15.625 53.1875 C15.29628906 51.66382812 15.29628906 51.66382812 14.9609375 50.109375 C10.79030172 31.64778099 2.55979782 17.07488804 -13.375 6.1875 C-29.43328446 -2.87000528 -47.28753956 -5.70230192 -65.1875 -0.9140625 C-82.90854503 5.21012218 -94.90638181 15.61994984 -103.6875 32.125 C-110.81315904 47.28886842 -111.57680676 63.68045059 -106.6953125 79.65625 C-100.41847552 96.44400333 -89.74616174 107.64231516 -74.35546875 116.3046875 C-72.27970414 117.39107056 -72.27970414 117.39107056 -69.375 117.1875 C-69.68298326 118.66761371 -69.996518 120.14657325 -70.3125 121.625 C-70.48652344 122.44871094 -70.66054688 123.27242187 -70.83984375 124.12109375 C-71.375 126.1875 -71.375 126.1875 -72.375 127.1875 C-80.9499015 128.2939389 -85.6608075 125.32746092 -92.375 120.1875 C-107.80645744 107.81494093 -119.80626246 90.19332747 -122.375 70.1875 C-124.33638476 47.25505938 -118.84424411 27.11019319 -104.0390625 9.16015625 C-77.09497791 -20.90501732 -31.72232726 -24.1387084 0 0 Z " fill="#FCEB6D" transform="translate(363.375,72.8125)"/>
<path d="M0 0 C4.94790177 -0.0493651 9.89566083 -0.08570269 14.84375 -0.10986328 C16.52769466 -0.11993317 18.21162179 -0.13358988 19.89550781 -0.15087891 C22.31319501 -0.17508426 24.73065143 -0.18647296 27.1484375 -0.1953125 C27.9036972 -0.20563507 28.65895691 -0.21595764 29.43710327 -0.22659302 C31.2929398 -0.22699318 33.1481928 -0.12222716 35 0 C35.66 0.66 36.32 1.32 37 2 C36.625 4.625 36.625 4.625 36 7 C34.35 7 32.7 7 31 7 C31 14.26 31 21.52 31 29 C32.65 29 34.3 29 36 29 C36.38218767 30.65614657 36.71395102 32.32457024 37 34 C36.67 34.33 36.34 34.66 36 35 C34.35 35 32.7 35 31 35 C31 42.26 31 49.52 31 57 C32.65 57 34.3 57 36 57 C36.625 59.375 36.625 59.375 37 62 C36.34 62.66 35.68 63.32 35 64 C33.68 64 32.36 64 31 64 C31 70.93 31 77.86 31 85 C32.65 85.33 34.3 85.66 36 86 C36.625 87.875 36.625 87.875 37 90 C36.34 90.66 35.68 91.32 35 92 C33.68 92 32.36 92 31 92 C30.10135136 103.72814422 30.10135136 103.72814422 33.71875 114.3125 C35.93583632 115.67523355 35.93583632 115.67523355 38.3984375 116.7578125 C48.75779422 121.70417202 55.89761262 133.88045017 59.87182617 144.28173828 C61.94878397 150.52677414 62.50998846 156.31824614 62.4375 162.875 C62.42992676 163.84026611 62.42235352 164.80553223 62.41455078 165.80004883 C62.24529287 173.1355878 61.22326059 179.3426113 58 186 C57.57589844 186.92683594 57.15179688 187.85367188 56.71484375 188.80859375 C49.97717315 202.3402386 38.93526127 212.29404473 25 218 C23.34261556 218.37678335 21.67694806 218.72299082 20 219 C20.9590625 218.071875 20.9590625 218.071875 21.9375 217.125 C22.96297618 216.08790369 23.98295301 215.04536384 25 214 C25.68964844 213.29488281 26.37929687 212.58976563 27.08984375 211.86328125 C41.47712801 196.59062565 47.68718016 178.70131856 47.3046875 157.85546875 C45.68094743 137.30891166 34.91757941 121.40398232 19.62890625 108.27734375 C18.01531587 106.9243206 18.01531587 106.9243206 16 106 C16 101.38 16 96.76 16 92 C14.86820313 92.02320313 13.73640625 92.04640625 12.5703125 92.0703125 C11.08854825 92.08906901 9.60677688 92.10726934 8.125 92.125 C7.37863281 92.14175781 6.63226563 92.15851563 5.86328125 92.17578125 C3.90805539 92.1933959 1.95257979 92.10320189 0 92 C-0.66 91.34 -1.32 90.68 -2 90 C-1.67 88.68 -1.34 87.36 -1 86 C4.61 86 10.22 86 16 86 C16 78.41 16 70.82 16 63 C10.39 63 4.78 63 -1 63 C-1.33 61.68 -1.66 60.36 -2 59 C0 57 0 57 3.6953125 56.8046875 C5.17201668 56.8161291 6.64861801 56.84210093 8.125 56.875 C10.72375 56.91625 13.3225 56.9575 16 57 C16 49.74 16 42.48 16 35 C10.39 35 4.78 35 -1 35 C-1.33 33.35 -1.66 31.7 -2 30 C-1 29 -1 29 2.81640625 28.90234375 C4.39847047 28.90808862 5.98051031 28.92110407 7.5625 28.9375 C10.346875 28.958125 13.13125 28.97875 16 29 C16 19.76 16 10.52 16 1 C10.72 1 5.44 1 0 1 C0 0.67 0 0.34 0 0 Z " fill="#E67579" transform="translate(132,277)"/>
<path d="M0 0 C2.70612542 2.57880598 4.26657091 5.11058011 6 8.4375 C7.78694528 11.85782494 9.59754604 14.97548206 12 18 C10.46078927 22.21821674 7.34381024 24.34158512 3.875 26.9375 C2.60050794 27.91398974 1.32711296 28.89191263 0.0546875 29.87109375 C-0.61079102 30.38140137 -1.27626953 30.89170898 -1.96191406 31.41748047 C-5.35587497 34.05280086 -8.67543924 36.77803103 -12 39.5 C-17.52260128 44.00855684 -23.09186524 48.44844272 -28.7109375 52.8359375 C-33.18437188 56.33776622 -37.5984999 59.90831683 -42 63.5 C-47.15748049 67.70530147 -52.33469815 71.88232726 -57.5625 76 C-58.10970703 76.43248047 -58.65691406 76.86496094 -59.22070312 77.31054688 C-63.07467013 80.33428353 -67.00390458 83.14564613 -71 86 C-71 66.86 -71 47.72 -71 28 C-63.554375 25.050625 -56.10875 22.10125 -48.4375 19.0625 C-46.14095459 18.15250244 -43.84440918 17.24250488 -41.47827148 16.30493164 C-27.66602109 10.83438499 -13.83941803 5.40144523 0 0 Z " fill="#3AACC6" transform="translate(245,160)"/>
<path d="M0 0 C3.63 0 7.26 0 11 0 C16.08837171 9.9595619 20.87649291 19.99749902 25.35400391 30.24560547 C31.55127183 44.41755437 37.9623647 58.48224074 44.5 72.5 C51.00071827 86.44141238 57.35774391 100.43622958 63.55957031 114.51315308 C67.94570341 124.46736298 72.42787361 134.35595476 77.26000977 144.10449219 C80 149.6936643 80 149.6936643 80 153 C78.68652344 154.77758789 78.68652344 154.77758789 76.859375 156.72265625 C76.20066406 157.42583984 75.54195313 158.12902344 74.86328125 158.85351562 C74.16589844 159.58248047 73.46851563 160.31144531 72.75 161.0625 C72.06808594 161.79533203 71.38617188 162.52816406 70.68359375 163.28320312 C67.57995016 166.56462825 65.0975139 169.05075297 61 171 C52.35155665 147.28898396 43.70762496 123.57638432 35.18359375 99.8203125 C34.94376518 99.15197325 34.70393661 98.483634 34.45684052 97.79504204 C32.27874253 91.7246374 30.10188825 85.65378723 27.92645264 79.58242798 C22.85190779 65.42176332 17.7530983 51.27163053 12.54296875 37.16015625 C12.11610779 36.00344421 11.68924683 34.84673218 11.24945068 33.65496826 C9.25083008 28.24374288 7.24533511 22.83519055 5.22998047 17.43017578 C4.52954364 15.5407193 3.82918085 13.65123537 3.12890625 11.76171875 C2.80826706 10.90876724 2.48762787 10.05581573 2.15727234 9.17701721 C1.87019913 8.40019089 1.58312592 7.62336456 1.28735352 6.82299805 C1.03695816 6.15221725 0.78656281 5.48143646 0.52857971 4.79032898 C0 3 0 3 0 0 Z " fill="#3AACC6" transform="translate(361,255)"/>
<path d="M0 0 C4.95 0 9.9 0 15 0 C15.25508799 13.55168727 15.45042993 27.10280183 15.56993389 40.65640259 C15.62729705 46.95034695 15.70507145 53.24264675 15.82983398 59.53564453 C15.94952942 65.61121722 16.01516131 71.68521045 16.04364967 77.76187134 C16.06394498 80.07769642 16.10358067 82.39343681 16.16303062 84.70858765 C16.61162984 102.90528583 16.61162984 102.90528583 12.57502747 108.15185547 C9.78475427 110.18939307 7.14650097 111.60291397 4 113 C-7.67494142 124.09697402 -15.58300616 140.96915976 -16.203125 157.046875 C-16.28400603 161.04072463 -16.16272178 165.00903414 -16 169 C-15.99226563 169.80953125 -15.98453125 170.6190625 -15.9765625 171.453125 C-15.06746263 189.77498394 -2.76401729 205.08066032 10 217 C9.34 217.33 8.68 217.66 8 218 C5.73885201 217.13079526 3.6568265 216.20909509 1.5 215.125 C0.87287109 214.80982422 0.24574219 214.49464844 -0.40039062 214.16992188 C-6.45153071 210.98673787 -11.24055571 206.90072649 -16 202 C-16.56074219 201.45988281 -17.12148437 200.91976562 -17.69921875 200.36328125 C-27.05424352 190.61539454 -31.91633295 175.9909004 -32.4375 162.75 C-31.96115733 146.17724473 -25.77466422 132.35237053 -14.4140625 120.26953125 C-4.55421687 111 -4.55421687 111 0 111 C0 74.37 0 37.74 0 0 Z " fill="#AB171C" transform="translate(110,278)"/>
<path d="M0 0 C0.89740577 8.0067098 1.79296192 16.01362353 2.68624783 24.02079391 C3.10122618 27.74003651 3.51680806 31.45920948 3.93383789 35.17822266 C4.33732258 38.77665301 4.73913228 42.37526702 5.13984871 45.97400665 C5.29194269 47.33736903 5.44460972 48.70066762 5.59789848 50.06389618 C6.53114775 58.36751915 7.35911808 66.66847447 8 75 C4.3383614 76.43001607 0.67043564 77.84270556 -3 79.25 C-4.010625 79.64574219 -5.02125 80.04148437 -6.0625 80.44921875 C-14.71215603 83.74690011 -22.840164 85.710041 -32 88 C-32 60.28 -32 32.56 -32 4 C-24.08 3.67 -16.16 3.34 -8 3 C-2 0 -2 0 0 0 Z " fill="#26A6D0" transform="translate(347,397)"/>
<path d="M0 0 C7.59 0 15.18 0 23 0 C21.08192446 11.88796548 18.87171288 23.72112369 16.6875 35.5625 C16.2818544 37.76447709 15.87625564 39.9664628 15.47070312 42.16845703 C14.67549765 46.48528674 13.87965479 50.80199835 13.08349609 55.11865234 C12.28849165 59.4309597 11.49655075 63.74381187 10.70796204 68.05729675 C10.14001113 71.163449 9.56975638 74.2691785 9 77.375 C8.80494873 78.44693604 8.60989746 79.51887207 8.40893555 80.62329102 C8.23273682 81.58033936 8.05653809 82.5373877 7.875 83.5234375 C7.72804687 84.32700684 7.58109375 85.13057617 7.4296875 85.95849609 C7 88 7 88 6 91 C-3.85816251 91.30384747 -13.27088552 90.39879438 -23 89 C-22.3928155 83.05281441 -21.21070568 77.53739599 -19.59375 71.7890625 C-19.35292191 70.9148616 -19.11209381 70.04066071 -18.8639679 69.13996887 C-18.08082953 66.30028001 -17.29034033 63.46269187 -16.5 60.625 C-15.4076131 56.67127268 -14.31912051 52.71647592 -13.23046875 48.76171875 C-12.82099251 47.27723991 -12.82099251 47.27723991 -12.40324402 45.76277161 C-9.41236898 34.90419666 -6.53889254 24.01541611 -3.6796875 13.12158203 C-3.50398727 12.45333908 -3.32828705 11.78509613 -3.14726257 11.09660339 C-2.68015965 9.31916809 -2.21464784 7.54131486 -1.74926758 5.76342773 C-1.22388054 3.82570994 -0.63488438 1.90465315 0 0 Z " fill="#3AACC6" transform="translate(244,401)"/>
<path d="M0 0 C5.92592013 0.95510961 11.77955158 2.3138555 17.63375854 3.62837219 C18.93569474 3.91791112 20.23770387 4.20712221 21.53977966 4.49603271 C25.05974248 5.27802438 28.57867312 6.06457159 32.09743261 6.85195756 C35.80263953 7.680231 39.50879274 8.50424862 43.21484375 9.32873535 C50.24511772 10.8934332 57.27454489 12.46190119 64.303671 14.03174657 C72.23494779 15.80288923 80.167137 17.56992764 88.0994184 19.33656466 C97.80047976 21.49717921 107.50138623 23.65848559 117.20159912 25.82290649 C118.22946677 26.05221748 118.22946677 26.05221748 119.27809942 26.28616101 C122.56927213 27.02047582 125.86029752 27.75543631 129.15112114 28.49131489 C134.59988576 29.70909941 140.04938719 30.92205512 145.50540161 32.10697937 C146.3637517 32.29426196 147.22210178 32.48154455 148.10646248 32.67450237 C149.6408087 33.00852755 151.17580035 33.33960899 152.71157646 33.66699696 C157.50729412 34.71308941 157.50729412 34.71308941 158.61862183 35.82441711 C158.65926015 37.49058827 158.66134283 39.15829806 158.61862183 40.82441711 C155.58287314 41.75688316 153.35907454 41.83076527 150.23092651 41.3429718 C149.36678635 41.21231827 148.50264618 41.08166473 147.61231995 40.947052 C146.68111832 40.79830124 145.74991669 40.64955048 144.79049683 40.49629211 C143.81824661 40.3476622 142.8459964 40.19903229 141.84428406 40.04589844 C139.76417152 39.72730996 137.68457839 39.40531504 135.60546875 39.08024597 C130.19953914 38.23545001 124.78985078 37.41544977 119.38034058 36.59394836 C118.32922592 36.4337471 117.27811127 36.27354584 116.19514465 36.10848999 C109.20236485 35.04785838 102.20734508 34.0755914 95.18112183 33.26191711 C83.73964823 31.92571798 72.36702972 30.15770545 60.98083496 28.42240906 C49.67030322 26.70071605 38.36177285 25.08411263 26.99972534 23.73335266 C21.25274905 23.04757726 15.5682289 22.18497153 9.87252808 21.14863586 C7.39954732 20.72526452 7.39954732 20.72526452 3.99362183 20.94941711 C-0.17157228 20.79515067 -3.14497376 19.42193615 -6.93606567 17.78144836 C-10.12071688 16.53505931 -12.98738602 16.11954687 -16.38137817 15.82441711 C-14.69959129 11.85192051 -12.0566566 8.73682792 -9.25637817 5.51191711 C-8.80778442 4.94924133 -8.35919067 4.38656555 -7.89700317 3.80683899 C-5.26634515 0.80509653 -4.04367702 -0.2099737 0 0 Z " fill="#3AACC6" transform="translate(83.38137817382813,80.17558288574219)"/>
<path d="M0 0 C6.93 0 13.86 0 21 0 C21 27.72 21 55.44 21 84 C2.42857143 88.64285714 2.42857143 88.64285714 -7 89 C-7.21270005 79.35521269 -6.54496733 69.85100084 -5.72265625 60.25390625 C-5.59017914 58.66880678 -5.45805996 57.08367737 -5.32627869 55.4985199 C-5.05110734 52.20129877 -4.77259898 48.90438314 -4.49145508 45.60766602 C-4.13186744 41.38949333 -3.77931086 37.17076913 -3.42903996 32.9518137 C-3.15763563 29.68909158 -2.88328544 26.4266226 -2.60796928 23.16422844 C-2.47686843 21.60820619 -2.34650497 20.05212162 -2.21690559 18.49597359 C-2.035586 16.32591732 -1.85047798 14.15621698 -1.66430664 11.98657227 C-1.5599379 10.75479752 -1.45556915 9.52302277 -1.34803772 8.25392151 C-1 5 -1 5 0 0 Z " fill="#3AACC5" transform="translate(294,401)"/>
<path d="M0 0 C5.09949598 -1.07914645 10.02625351 -1.82030091 15 0 C19.90372948 3.91983512 23.17013169 9.55188357 26.53613281 14.77294922 C28.59081862 17.89884048 30.86910619 20.81772549 33.1875 23.75 C34.39019531 25.31234375 34.39019531 25.31234375 35.6171875 26.90625 C36.40351563 27.9271875 37.18984375 28.948125 38 30 C44.07622653 37.88913346 50.13653234 45.79008003 56.18286133 53.70214844 C60.23342176 59.00127939 64.29786898 64.28947671 68.3671875 69.57421875 C73.5947476 76.37004689 78.79479153 83.18704781 84 90 C80.84693776 97.99426843 77.27191474 105.54249935 73 113 C69.61776299 108.95073249 66.76875828 104.68807871 63.9375 100.25 C62.95710387 98.72391168 61.97663303 97.19787135 60.99609375 95.671875 C60.49835449 94.89521484 60.00061523 94.11855469 59.48779297 93.31835938 C57.16916505 89.70534809 54.83420916 86.102956 52.5 82.5 C51.58324549 81.08339018 50.66657905 79.66672336 49.75 78.25 C49.069375 77.198125 49.069375 77.198125 48.375 76.125 C39.66666667 62.66666667 30.95833333 49.20833333 22.25 35.75 C21.79560547 35.04786377 21.34121094 34.34572754 20.87304688 33.62231445 C19.96248512 32.21486187 19.05232449 30.80714969 18.14257812 29.39916992 C15.76084108 25.71422632 13.37094699 22.0349257 10.96875 18.36328125 C10.47181641 17.60144531 9.97488281 16.83960938 9.46289062 16.0546875 C8.51625993 14.60377691 7.56719929 13.15444758 6.61523438 11.70703125 C4.14077234 7.90815701 1.94243447 4.10850449 0 0 Z " fill="#3AACC6" transform="translate(396,255)"/>
<path d="M0 0 C2.12449225 4.68949602 3.3855608 7.73066908 3 13 C-3.66405164 14.60324923 -10.22023718 15.60394122 -17.03125 16.33203125 C-18.08457016 16.44893311 -19.13789032 16.56583496 -20.22312927 16.6862793 C-22.47899883 16.93628815 -24.73510556 17.18416461 -26.99142456 17.43008423 C-32.94459674 18.07894784 -38.8961109 18.74265509 -44.84765625 19.40625 C-46.04395157 19.5393306 -47.24024689 19.67241119 -48.47279358 19.80952454 C-61.28842598 21.24241646 -74.08593307 22.81697452 -86.87890625 24.4387207 C-95.91348899 25.57322212 -104.90583786 26.4686002 -114 27 C-113.45713729 21.33340572 -111.89964708 16.79433143 -109.5625 11.625 C-109.09360352 10.54025391 -109.09360352 10.54025391 -108.61523438 9.43359375 C-106.26250753 4.13125377 -106.26250753 4.13125377 -104 3 C-101.41799676 2.81896968 -98.85733373 2.69453383 -96.27172852 2.61108398 C-95.47290253 2.58167725 -94.67407654 2.55227051 -93.8510437 2.52197266 C-91.19380707 2.42540456 -88.53638916 2.33560892 -85.87890625 2.24609375 C-84.02154974 2.18057123 -82.16420428 2.11473494 -80.30686951 2.04859924 C-76.39697705 1.91040025 -72.48699005 1.77543715 -68.5769043 1.64282227 C-63.61931635 1.47451282 -58.66200459 1.29928718 -53.70474339 1.12164211 C-49.85667071 0.98439193 -46.00848621 0.85051043 -42.16026115 0.7176075 C-40.33660683 0.65432621 -38.51298288 0.59016237 -36.689394 0.52502251 C-24.45425194 0.09084003 -12.24274203 -0.07771497 0 0 Z " fill="#82CDDA" transform="translate(142,139)"/>
<path d="M0 0 C25.08 0 50.16 0 76 0 C76 4.29 76 8.58 76 13 C71.25449726 15.11579869 66.51817795 16.87576182 61.53588867 18.36010742 C60.82606842 18.57512405 60.11624817 18.79014069 59.38491821 19.01167297 C57.06379199 19.7136216 54.74095421 20.40970006 52.41796875 21.10546875 C50.79600314 21.59414944 49.17412229 22.08311156 47.55232239 22.57234192 C44.16659066 23.59271396 40.78003261 24.61027986 37.39282227 25.62573242 C33.04565797 26.92912564 28.70036522 28.23863449 24.35563183 29.55010509 C21.01321642 30.5584664 17.66998049 31.56408333 14.32647133 32.56881142 C12.72302259 33.0509156 11.11979971 33.53377164 9.51680565 34.01738548 C7.28439108 34.69034353 5.05093326 35.35971551 2.81713867 36.02807617 C2.15272263 36.22907928 1.48830658 36.4300824 0.80375671 36.63717651 C-3.77125475 38 -3.77125475 38 -6 38 C-5.74448185 24.80597169 -2.75172086 13.20826011 0 0 Z " fill="#26A6D1" transform="translate(20,186)"/>
<path d="M0 0 C2.51922683 19.81226564 2.51922683 19.81226564 -1.34472656 26.23535156 C-4.9487898 30.13312453 -9.32383464 32.90431926 -13.83691406 35.64697266 C-17.09494472 37.68489657 -20.02100306 40.08086396 -23 42.5 C-24.1419173 43.39490566 -25.28516374 44.28811774 -26.4296875 45.1796875 C-30.37091003 48.2758908 -34.24574913 51.4517783 -38.125 54.625 C-42.98803455 58.59227415 -47.87482601 62.51889308 -52.875 66.3125 C-53.82117187 67.03050781 -54.76734375 67.74851562 -55.7421875 68.48828125 C-58 70 -58 70 -60 70 C-62.97 62.74 -65.94 55.48 -69 48 C-57.32046827 38.65637462 -44.95216698 30.21648821 -32.57373047 21.83251953 C-24.37582464 16.27668821 -16.25046308 10.62011497 -8.14770508 4.92651367 C-7.22626709 4.28174072 -6.3048291 3.63696777 -5.35546875 2.97265625 C-4.12799927 2.11039429 -4.12799927 2.11039429 -2.87573242 1.23071289 C-1 0 -1 0 0 0 Z " fill="#26A6D0" transform="translate(96,285)"/>
<path d="M0 0 C1.08909668 0.54043945 2.17819336 1.08087891 3.30029297 1.63769531 C3.90350372 1.93376678 4.50671448 2.22983826 5.12820435 2.53488159 C6.42584028 3.17256527 7.7218073 3.81365432 9.01623535 4.45782471 C12.49356065 6.18768877 15.98356992 7.89164899 19.47216797 9.59863281 C20.18252197 9.94699188 20.89287598 10.29535095 21.62475586 10.65426636 C28.42699462 13.98290382 35.28790283 17.17494513 42.16748047 20.34082031 C52.40501882 25.0609584 62.57946871 29.89686811 72.72119141 34.81933594 C78.69777311 37.71185387 84.69411754 40.55127111 90.72998047 43.31738281 C91.37559937 43.61388733 92.02121826 43.91039185 92.68640137 44.21588135 C95.81091712 45.64989638 98.93851046 47.0764201 102.07177734 48.49121094 C103.18617188 49.00103516 104.30056641 49.51085937 105.44873047 50.03613281 C106.43421875 50.48230957 107.41970703 50.92848633 108.43505859 51.38818359 C110.73790817 52.61978233 112.21724478 53.75968912 113.91748047 55.71582031 C113.25748047 57.36582031 112.59748047 59.01582031 111.91748047 60.71582031 C93.39355408 54.00820907 74.95332263 47.09706118 56.55078125 40.0637207 C54.74464567 39.37349129 52.93849316 38.68330618 51.13232422 37.99316406 C50.22649597 37.64703568 49.32066772 37.30090729 48.38739014 36.94429016 C35.7286136 32.11130434 23.04715928 27.3380803 10.36645508 22.56298828 C6.05521144 20.93882249 1.74672291 19.30752878 -2.56005859 17.67156982 C-4.27974272 17.01998897 -6.00049391 16.37121908 -7.72216797 15.72491455 C-10.26145682 14.77132779 -12.79726787 13.80898637 -15.33251953 12.84472656 C-16.10192871 12.55814682 -16.87133789 12.27156708 -17.6640625 11.9763031 C-22.96860743 9.94364452 -22.96860743 9.94364452 -24.08251953 7.71582031 C-21.72094703 6.00623412 -19.34629563 4.32412157 -16.95751953 2.65332031 C-15.95978516 1.92532227 -15.95978516 1.92532227 -14.94189453 1.18261719 C-13.95576172 0.50102539 -13.95576172 0.50102539 -12.94970703 -0.19433594 C-12.35270996 -0.61851807 -11.75571289 -1.0427002 -11.140625 -1.47973633 C-7.17261595 -3.03069597 -3.77751826 -1.57371662 0 0 Z " fill="#3AACC6" transform="translate(134.08251953125,45.2841796875)"/>
<path d="M0 0 C3.63458818 0.22716176 6.33513184 1.54424878 9.375 3.4375 C10.08398438 3.86933594 10.79296875 4.30117188 11.5234375 4.74609375 C14.07046367 8.63401465 12.74305429 12.58635602 12 17 C11.7215625 18.7161853 11.7215625 18.7161853 11.4375 20.46704102 C10.75863278 24.50458299 10.04051449 28.53361002 9.3125 32.5625 C9.04703697 34.04552909 8.78182322 35.52860283 8.5168457 37.01171875 C7.96452117 40.09826373 7.40953367 43.18431399 6.85253906 46.27001953 C6.13825749 50.22806535 5.43025441 54.18720391 4.72413635 58.14671326 C4.17912671 61.19937395 3.63110184 64.25148716 3.0821228 67.30343628 C2.81969825 68.76415333 2.55815804 70.22502954 2.29751587 71.68606567 C1.93444803 73.71835398 1.567392 75.74988129 1.19921875 77.78125 C0.99127686 78.93689453 0.78333496 80.09253906 0.5690918 81.28320312 C0 84 0 84 -1 86 C-8.26 86 -15.52 86 -23 86 C-22.31677419 80.53419349 -21.52156813 75.60690702 -20.08227539 70.36230469 C-19.89027054 69.64579742 -19.69826569 68.92929016 -19.5004425 68.19107056 C-18.87152264 65.84986099 -18.23484368 63.51084675 -17.59765625 61.171875 C-17.15512227 59.53388753 -16.71294355 57.89580403 -16.27110291 56.25762939 C-15.34735028 52.83747481 -14.41983003 49.41837166 -13.48950195 46 C-12.29812982 41.62153653 -11.11545852 37.24077956 -9.93547916 32.85923386 C-9.02502676 29.48176993 -8.11039602 26.10544877 -7.1944561 22.7294693 C-6.75669376 21.11427375 -6.32013604 19.4987512 -5.88481331 17.88289642 C-5.27642968 15.62747591 -4.66253168 13.37362839 -4.04711914 11.12011719 C-3.86886597 10.455112 -3.69061279 9.79010681 -3.50695801 9.10494995 C-2.61954551 5.87849844 -1.63995058 2.92425476 0 0 Z " fill="#82CDDA" transform="translate(268,314)"/>
<path d="M0 0 C1.32 0.33 2.64 0.66 4 1 C3.3818458 4.14768321 2.33474089 6.28295593 0.515625 8.9140625 C-0.00064453 9.66558594 -0.51691406 10.41710937 -1.04882812 11.19140625 C-1.61021484 11.99449219 -2.17160156 12.79757813 -2.75 13.625 C-3.33201172 14.46675781 -3.91402344 15.30851563 -4.51367188 16.17578125 C-8.96555592 22.58764438 -13.52662454 28.91765037 -18.12207031 35.22705078 C-22.01389552 40.58618981 -25.78086426 46.01987388 -29.5 51.5 C-33.678007 57.65416742 -37.93436245 63.73653292 -42.3125 69.75 C-48.02843207 77.60188104 -53.59003961 85.55430976 -59.1237793 93.53540039 C-63.56602108 99.94187329 -68.03514158 106.32775658 -72.54296875 112.68823242 C-75.29567101 116.57520219 -78.02921259 120.47460311 -80.74609375 124.38671875 C-81.3807959 125.2991333 -82.01549805 126.21154785 -82.66943359 127.15161133 C-83.90536545 128.92963814 -85.13887591 130.70935124 -86.36962891 132.4909668 C-87.20953369 133.69813354 -87.20953369 133.69813354 -88.06640625 134.9296875 C-88.56084229 135.64366699 -89.05527832 136.35764648 -89.56469727 137.09326172 C-90.92526442 138.90071698 -92.35883081 140.44738639 -94 142 C-96.00589857 117.99935353 -96.00589857 117.99935353 -90.62475586 111.30419922 C-88.66837705 109.27371263 -86.64567195 107.34467085 -84.54345703 105.46582031 C-81.91137399 102.96613246 -79.80677763 100.07794405 -77.625 97.1875 C-76.71338318 96.01242149 -75.79927869 94.83926907 -74.8828125 93.66796875 C-74.41649414 93.07161621 -73.95017578 92.47526367 -73.46972656 91.86083984 C-70.85001851 88.54399354 -68.1732491 85.27372738 -65.5 82 C-61.45008576 77.0377555 -57.44194641 72.04845768 -53.5 67 C-49.0179989 61.25989332 -44.44043443 55.60306754 -39.8359375 49.9609375 C-36.34469917 45.67548382 -32.90181112 41.35670547 -29.5 37 C-25.027295 31.27179886 -20.45966385 25.62635034 -15.86450195 19.99609375 C-10.48943385 13.39850228 -5.23244842 6.71095588 0 0 Z " fill="#26A6D0" transform="translate(268,192)"/>
<path d="M0 0 C2.27881013 2.21620546 3.92694347 3.95967315 5 7 C4.81469727 9.45532227 4.81469727 9.45532227 4 12 C2.15600586 13.53881836 2.15600586 13.53881836 -0.28515625 14.83984375 C-1.19563721 15.33790527 -2.10611816 15.8359668 -3.04418945 16.34912109 C-4.04023193 16.87328613 -5.03627441 17.39745117 -6.0625 17.9375 C-8.18326906 19.09326041 -10.30303102 20.25087038 -12.421875 21.41015625 C-13.51564453 22.00328613 -14.60941406 22.59641602 -15.73632812 23.20751953 C-20.81922598 25.99915897 -25.81483032 28.934312 -30.8125 31.875 C-32.7899989 33.03317669 -34.76786957 34.19071881 -36.74609375 35.34765625 C-37.75140137 35.93562988 -38.75670898 36.52360352 -39.79248047 37.12939453 C-45.64310246 40.54144094 -51.50864856 43.92759208 -57.375 47.3125 C-58.50526611 47.96524902 -59.63553223 48.61799805 -60.80004883 49.29052734 C-62.36468872 50.19279053 -62.36468872 50.19279053 -63.9609375 51.11328125 C-64.88696777 51.64735596 -65.81299805 52.18143066 -66.76708984 52.73168945 C-68.1590113 53.5223118 -69.56820979 54.28410489 -71 55 C-71 46.09 -71 37.18 -71 28 C-64.58538146 25.45845626 -58.17064102 22.91722411 -51.75561523 20.37670898 C-49.58464959 19.5168526 -47.41374855 18.65683311 -45.24291992 17.79663086 C-30.176604 11.82669487 -15.09688302 5.89222658 0 0 Z " fill="#26A6D0" transform="translate(245,160)"/>
<path d="M0 0 C4.94790177 -0.0493651 9.89566083 -0.08570269 14.84375 -0.10986328 C16.52769466 -0.11993317 18.21162179 -0.13358988 19.89550781 -0.15087891 C22.31319501 -0.17508426 24.73065143 -0.18647296 27.1484375 -0.1953125 C27.9036972 -0.20563507 28.65895691 -0.21595764 29.43710327 -0.22659302 C31.2929398 -0.22699318 33.1481928 -0.12222716 35 0 C35.66 0.66 36.32 1.32 37 2 C36.625 4.625 36.625 4.625 36 7 C34.35 7 32.7 7 31 7 C31 14.26 31 21.52 31 29 C32.65 29 34.3 29 36 29 C36.38218767 30.65614657 36.71395102 32.32457024 37 34 C36.67 34.33 36.34 34.66 36 35 C34.35 35 32.7 35 31 35 C31 42.26 31 49.52 31 57 C32.65 57 34.3 57 36 57 C36.625 59.375 36.625 59.375 37 62 C35 64 35 64 31.24609375 64.23046875 C29.64316745 64.22776652 28.0402316 64.21262857 26.4375 64.1875 C25.59791748 64.18105469 24.75833496 64.17460937 23.89331055 64.16796875 C15.57830626 64.06819182 7.29250186 63.5945968 -1 63 C-1.625 61.125 -1.625 61.125 -2 59 C0 57 0 57 3.6953125 56.8046875 C5.17201668 56.8161291 6.64861801 56.84210093 8.125 56.875 C10.72375 56.91625 13.3225 56.9575 16 57 C16 49.74 16 42.48 16 35 C10.39 35 4.78 35 -1 35 C-1.33 33.35 -1.66 31.7 -2 30 C-1 29 -1 29 2.81640625 28.90234375 C4.39847047 28.90808862 5.98051031 28.92110407 7.5625 28.9375 C10.346875 28.958125 13.13125 28.97875 16 29 C16 19.76 16 10.52 16 1 C10.72 1 5.44 1 0 1 C0 0.67 0 0.34 0 0 Z " fill="#E5777B" transform="translate(132,277)"/>
<path d="M0 0 C17.49 0 34.98 0 53 0 C53 10.5858789 52.76571604 20.02020685 51.125 30.3125 C50.95097656 31.50294922 50.77695312 32.69339844 50.59765625 33.91992188 C49.26881213 42.5967818 49.26881213 42.5967818 47 46 C46.33581055 45.32795532 46.33581055 45.32795532 45.65820312 44.64233398 C43.60823317 42.57129904 41.55414567 40.50439303 39.5 38.4375 C38.80390625 37.73302734 38.1078125 37.02855469 37.390625 36.30273438 C33.34555719 32.2389394 29.20148224 28.37821547 24.85742188 24.63696289 C22.1091365 22.21487385 19.55561542 19.62212489 17 17 C13.02606164 12.96505958 8.99267369 9.11007892 4.62109375 5.5 C3 4 3 4 0 0 Z " fill="#3AACC6" transform="translate(446,255)"/>
<path d="M0 0 C3.3 0 6.6 0 10 0 C10 28.38 10 56.76 10 86 C4.39 85.34 -1.22 84.68 -7 84 C-5.84328909 65.8579025 -4.44096106 47.74139951 -2.9375 29.625 C-2.84964233 28.55822021 -2.76178467 27.49144043 -2.67126465 26.39233398 C-2.41737021 23.31603681 -2.16040115 20.24001297 -1.90234375 17.1640625 C-1.82634445 16.24215118 -1.75034515 15.32023987 -1.67204285 14.37039185 C-1.26304846 9.54890783 -0.74050551 4.78210878 0 0 Z " fill="#3AACC6" transform="translate(306,255)"/>
<path d="M0 0 C1.7290774 -0.02725341 3.45828176 -0.04650987 5.1875 -0.0625 C6.15042969 -0.07410156 7.11335938 -0.08570313 8.10546875 -0.09765625 C11 0 11 0 16 1 C16 20.8 16 40.6 16 61 C9.07 61 2.14 61 -5 61 C-4.40499549 49.52899958 -3.6696809 38.09061432 -2.69775391 26.64575195 C-2.49683703 24.27518086 -2.30093231 21.9042295 -2.10546875 19.53320312 C-1.97685412 17.99737138 -1.84795861 16.46156313 -1.71875 14.92578125 C-1.661427 14.23092117 -1.604104 13.5360611 -1.54504395 12.82014465 C-1.17606102 8.51579125 -0.64659167 4.26910066 0 0 Z " fill="#82CDDA" transform="translate(299,339)"/>
<path d="M0 0 C1.90940301 25.20144922 1.90940301 25.20144922 -2.203125 30.9609375 C-4.99181055 33.62009394 -7.83726308 35.80711185 -11 38 C-12.9706626 40.03572256 -12.9706626 40.03572256 -14.625 42.125 C-17.87436452 45.93947139 -21.39264103 49.43060911 -24.984375 52.921875 C-26.85395167 54.84942304 -28.44491299 56.81500432 -30 59 C-34.5473235 57.44517744 -36.65203594 53.88410174 -39.3125 50.125 C-39.77978516 49.49980469 -40.24707031 48.87460937 -40.72851562 48.23046875 C-44.05814524 43.57784007 -44.05814524 43.57784007 -43.7956543 40.96923828 C-42.89817893 38.74799363 -41.99182728 37.7060322 -40.21875 36.109375 C-39.63246826 35.57272217 -39.04618652 35.03606934 -38.44213867 34.4831543 C-37.80123291 33.91121338 -37.16032715 33.33927246 -36.5 32.75 C-35.13091923 31.50195029 -33.76245368 30.25322545 -32.39453125 29.00390625 C-31.67604004 28.35180176 -30.95754883 27.69969727 -30.21728516 27.02783203 C-26.49800804 23.62634384 -22.84738555 20.15260631 -19.1875 16.6875 C-1.48548947 0 -1.48548947 0 0 0 Z " fill="#26A6D0" transform="translate(96,340)"/>
<path d="M0 0 C0.598125 0.20625 1.19625 0.4125 1.8125 0.625 C-1.64335441 8.55527645 -9.21501994 14.71717446 -15.29296875 20.69921875 C-17.15560699 22.59258092 -18.89584555 24.54714068 -20.625 26.5625 C-23.19415271 29.55301716 -25.88067256 32.35616684 -28.6875 35.125 C-31.47371141 37.8735599 -34.14058392 40.65359791 -36.6875 43.625 C-39.93914628 47.41858733 -43.44463094 50.89892647 -47 54.40625 C-48.98470342 56.41930632 -50.84846916 58.47946403 -52.6875 60.625 C-55.93914628 64.41858733 -59.44463094 67.89892647 -63 71.40625 C-65.58819453 74.03141873 -67.9736004 76.79184107 -70.37109375 79.58984375 C-73.12456703 82.67491811 -76.08958396 85.5372442 -79.03515625 88.4375 C-81.01932949 90.4540826 -82.86769124 92.52293131 -84.6875 94.6875 C-85.925 96.1415625 -85.925 96.1415625 -87.1875 97.625 C-87.5175 97.625 -87.8475 97.625 -88.1875 97.625 C-89.40590296 81.63346113 -89.40590296 81.63346113 -86.6875 77.15234375 C-84.61335568 75.43874404 -82.46575198 74.0528086 -80.1875 72.625 C-78.82042796 71.32628156 -77.48689585 69.99142818 -76.1875 68.625 C-73.62759866 66.02517817 -71.0197046 63.56231602 -68.25 61.1875 C-65.25948284 58.61834729 -62.45633316 55.93182744 -59.6875 53.125 C-56.30508601 49.6961721 -52.80679558 46.50451482 -49.15234375 43.37109375 C-47.07929676 41.52884325 -45.13314198 39.60098338 -43.1875 37.625 C-40.62759866 35.02517817 -38.0197046 32.56231602 -35.25 30.1875 C-32.25948284 27.61834729 -29.45633316 24.93182744 -26.6875 22.125 C-23.33279878 18.72434397 -19.86569672 15.56105211 -16.23828125 12.45703125 C-13.07140792 9.62795774 -10.12751424 6.58632438 -7.16796875 3.54296875 C-2.98173543 -0.51115464 -2.98173543 -0.51115464 0 0 Z " fill="#26A6D0" transform="translate(262.1875,185.375)"/>
<path d="M0 0 C2.1032777 1.67266235 3.9663937 3.31674058 5.875 5.1875 C7.02729672 6.28390359 8.17964246 7.38025568 9.33203125 8.4765625 C9.93096191 9.0530957 10.52989258 9.62962891 11.14697266 10.22363281 C14.25472629 13.20281798 17.41145936 16.12926019 20.5625 19.0625 C21.19591309 19.65442139 21.82932617 20.24634277 22.48193359 20.85620117 C27.26085264 25.32206104 32.07820964 29.74352494 36.90625 34.15625 C41.10075571 38.00121357 45.24984273 41.89489324 49.4050293 45.78222656 C54.47397205 50.52014435 59.58117182 55.21440236 64.70703125 59.890625 C66.16490425 61.23176881 67.59927512 62.59927512 69 64 C68.625 66.125 68.625 66.125 68 68 C66.37109375 68.80078125 66.37109375 68.80078125 64 69 C61.82918678 67.47035524 60.00124357 65.97451075 58.0625 64.1875 C56.89801867 63.15767985 55.73129288 62.13039289 54.5625 61.10546875 C53.96953125 60.58259277 53.3765625 60.0597168 52.765625 59.52099609 C50.11383953 57.23661785 47.35228081 55.11199399 44.5625 53 C43.47903632 52.1759526 42.39570424 51.35173215 41.3125 50.52734375 C40.76980469 50.11468262 40.22710937 49.70202148 39.66796875 49.27685547 C36.77877492 47.06513361 33.92083673 44.81387244 31.0625 42.5625 C30.48121338 42.10488281 29.89992676 41.64726563 29.30102539 41.17578125 C28.12257251 40.24774757 26.94426875 39.3195245 25.76611328 38.39111328 C22.84628962 36.0912577 19.92302356 33.79578631 17 31.5 C13.48654448 28.74047961 9.97385313 25.98001675 6.46484375 23.21484375 C5.88105957 22.7552124 5.29727539 22.29558105 4.69580078 21.82202148 C3.53351085 20.90681096 2.37171793 19.99096886 1.21044922 19.07446289 C-1.75967862 16.73633986 -4.7476262 14.42716291 -7.76953125 12.15625 C-8.37466553 11.69935791 -8.9797998 11.24246582 -9.60327148 10.77172852 C-10.76143902 9.89955192 -11.92357253 9.03261052 -13.09008789 8.17163086 C-14.42983259 7.16099782 -15.72059328 6.08600803 -17 5 C-17 4.34 -17 3.68 -17 3 C-15.1096624 2.29753005 -13.21243172 1.61359151 -11.3125 0.9375 C-10.25675781 0.55464844 -9.20101562 0.17179687 -8.11328125 -0.22265625 C-4.73111712 -1.06713638 -3.23820559 -1.23798697 0 0 Z " fill="#3AACC6" transform="translate(191,16)"/>
<path d="M0 0 C0.495 0.99 0.495 0.99 1 2 C0.04686059 4.37149247 -0.97139161 6.61917132 -2.09375 8.91015625 C-2.60137123 9.97132912 -2.60137123 9.97132912 -3.11924744 11.05393982 C-3.85446757 12.58932194 -4.59318028 14.12303532 -5.33493042 15.65527344 C-7.30322701 19.72209993 -9.24627334 23.80096331 -11.19140625 27.87890625 C-11.59077896 28.71463165 -11.99015167 29.55035706 -12.40162659 30.41140747 C-16.52418392 39.05757355 -20.49535135 47.77041127 -24.4375 56.5 C-24.91751465 57.56288742 -24.91751465 57.56288742 -25.40722656 58.64724731 C-25.71885742 59.33736908 -26.03048828 60.02749084 -26.3515625 60.73852539 C-26.80094933 61.73312523 -26.80094933 61.73312523 -27.25941467 62.74781799 C-28.06284838 64.52724915 -28.8643843 66.30753685 -29.66577148 68.08789062 C-30.73358158 70.41851073 -31.83294688 72.71800985 -33 75 C-38.16465746 72.97102743 -40.33308183 69.33383633 -42.75 64.5 C-45.38522804 56.84046356 -45.07427892 47.57890977 -42.09375 40.05859375 C-38.05956056 32.46567291 -32.10548433 27.75370959 -24 25 C-20.65947476 24.38931735 -17.3931331 24.07941375 -14 24 C-13.56300781 22.7315625 -13.56300781 22.7315625 -13.1171875 21.4375 C-10.01509027 12.85307999 -6.52115755 6.36681063 0 0 Z " fill="#74CAE7" transform="translate(229,319)"/>
<path d="M0 0 C0 1.98 0 3.96 0 6 C-7.98614139 7.85704472 -16.03198137 8.74663976 -24.17269897 9.57504272 C-28.22705865 9.98871384 -32.27950312 10.42037201 -36.33203125 10.8515625 C-37.18412674 10.94203354 -38.03622223 11.03250458 -38.91413879 11.12571716 C-48.40327993 12.13941825 -57.88272784 13.23392012 -67.35986328 14.35385132 C-69.24299034 14.57605202 -71.12629192 14.79677871 -73.00976562 15.01602173 C-75.6463028 15.32325375 -78.28220106 15.6354624 -80.91796875 15.94921875 C-81.70894455 16.04073212 -82.49992035 16.13224548 -83.31486511 16.22653198 C-87.28267828 16.65342492 -87.28267828 16.65342492 -91 18 C-93.51171875 17.4453125 -93.51171875 17.4453125 -96 16 C-97.14453125 13.1796875 -97.14453125 13.1796875 -97.8125 9.875 C-98.04582031 8.77929688 -98.27914062 7.68359375 -98.51953125 6.5546875 C-98.67808594 5.71164063 -98.83664063 4.86859375 -99 4 C-93.55487526 3.25605226 -88.19750179 2.79658164 -82.70727539 2.61108398 C-81.92077103 2.58167725 -81.13426666 2.55227051 -80.32392883 2.52197266 C-77.74861717 2.42657736 -75.17315685 2.33623145 -72.59765625 2.24609375 C-70.79218102 2.18052407 -68.98671545 2.11468815 -67.18125916 2.04859924 C-63.40647738 1.91115874 -59.63162156 1.77606858 -55.85668945 1.64282227 C-51.03736089 1.47264579 -46.2182101 1.29794589 -41.39910221 1.12164211 C-37.67322036 0.98560954 -33.94727743 0.85131764 -30.22131157 0.7176075 C-28.44523204 0.65379284 -26.6691659 0.58960418 -24.89311409 0.52502251 C-22.40283808 0.43486713 -19.91249424 0.34689134 -17.42211914 0.25952148 C-16.70028442 0.23304031 -15.97844971 0.20655914 -15.23474121 0.17927551 C-10.15403963 0.00424365 -5.08374199 -0.02075156 0 0 Z " fill="#3AACC6" transform="translate(241,135)"/>
<path d="M0 0 C2.66666667 3.33333333 5.33333333 6.66666667 8 10 C7.34 10 6.68 10 6 10 C5.75523926 11.24579834 5.51047852 12.49159668 5.25830078 13.77514648 C3.96546579 19.57480453 1.94530439 25.04002681 -0.1328125 30.59765625 C-0.72786087 32.20996376 -0.72786087 32.20996376 -1.33493042 33.85484314 C-2.5928587 37.25943351 -3.85879221 40.66098136 -5.125 44.0625 C-5.9836051 46.38196453 -6.84168349 48.7016241 -7.69921875 51.02148438 C-9.79339116 56.68326025 -11.89412946 62.3425655 -14 68 C-11.03 68.33 -8.06 68.66 -5 69 C-5 69.33 -5 69.66 -5 70 C-6.17175781 70.01417969 -7.34351563 70.02835937 -8.55078125 70.04296875 C-18.03573666 70.28630218 -25.64581582 71.01325129 -34 76 C-33.34426728 71.05096944 -31.27624625 66.92154177 -29.16796875 62.45703125 C-28.7796991 61.62348114 -28.39142944 60.78993103 -27.99139404 59.93112183 C-26.72842862 57.22254782 -25.45800471 54.51754459 -24.1875 51.8125 C-23.3198357 49.95509463 -22.4527316 48.09742747 -21.58618164 46.23950195 C-19.86232177 42.54440866 -18.13610646 38.85043062 -16.40820312 35.15722656 C-13.22433504 28.34636177 -10.07868471 21.51813984 -6.9375 14.6875 C-6.00973967 12.67028531 -5.081417 10.65332908 -4.15234375 8.63671875 C-3.78101318 7.82936279 -3.40968262 7.02200684 -3.02709961 6.19018555 C-2.05105999 4.10888024 -1.03795518 2.05102285 0 0 Z " fill="#3BADC6" transform="translate(266,241)"/>
<path d="M0 0 C0.625 2.5625 0.625 2.5625 1 5 C-9.1244827 9.86242559 -19.5950676 13.82485869 -30.0625 17.875 C-31.83539847 18.56351372 -33.6081856 19.25231421 -35.38085938 19.94140625 C-38.87148761 21.29803 -42.36334373 22.65142569 -45.85595703 24.00292969 C-49.32491932 25.34666316 -52.78887843 26.7023458 -56.24951172 28.06738281 C-57.08075058 28.39417023 -57.91198944 28.72095764 -58.76841736 29.05764771 C-60.34320246 29.67719059 -61.91695736 30.29936046 -63.48951721 30.92453003 C-68.77596278 33 -68.77596278 33 -71 33 C-71 97.35 -71 161.7 -71 228 C-71.33 228 -71.66 228 -72 228 C-72.33 159.69 -72.66 91.38 -73 21 C-44.3931512 11.84580838 -44.3931512 11.84580838 -30.1875 7.75 C-27.36764325 6.93518071 -24.54866248 6.11742734 -21.73046875 5.296875 C-21.06779999 5.10484497 -20.40513123 4.91281494 -19.72238159 4.71496582 C-14.50172124 3.18668149 -9.3686868 1.45251713 -4.2512207 -0.38964844 C-2 -1 -2 -1 0 0 Z " fill="#45B1CA" transform="translate(245,155)"/>
<path d="M0 0 C2.0625 0.4375 2.0625 0.4375 4 1 C4 5 4 5 2.75341797 6.47290039 C2.17221191 6.92656982 1.59100586 7.38023926 0.9921875 7.84765625 C0.3425 8.36457031 -0.3071875 8.88148438 -0.9765625 9.4140625 C-1.68554688 9.95804688 -2.39453125 10.50203125 -3.125 11.0625 C-3.85203125 11.63613281 -4.5790625 12.20976562 -5.328125 12.80078125 C-7.54343767 14.54524349 -9.77072075 16.27344083 -12 18 C-13.20667582 18.94540756 -14.41247574 19.8919347 -15.6171875 20.83984375 C-17.31227362 22.1735027 -19.00798592 23.50624007 -20.70751953 24.83422852 C-25.1831507 28.33527616 -29.59771116 31.9073275 -34 35.5 C-39.51734229 40.00265865 -45.07772935 44.44123963 -50.69335938 48.82055664 C-56.02847383 52.99298723 -61.27385937 57.27325079 -66.49609375 61.5859375 C-70.2070781 64.62909645 -73.95778164 67.41123361 -78 70 C-78.89690844 64.64512441 -79.63013694 59.27965828 -78 54 C-74.38050745 50.10122562 -70.13688368 47.94420043 -65.49121094 45.43310547 C-60.63299402 42.63834525 -56.13052971 39.30192835 -51.5625 36.0625 C-49.56497706 34.66628624 -47.5662947 33.27172962 -45.56640625 31.87890625 C-44.61137207 31.21262207 -43.65633789 30.54633789 -42.67236328 29.85986328 C-39.12533681 27.39126766 -35.56490603 24.94267286 -32 22.5 C-25.17051641 17.81611858 -18.36383287 13.09965368 -11.5625 8.375 C-10.53576172 7.66279297 -9.50902344 6.95058594 -8.45117188 6.21679688 C-7.49919922 5.55486328 -6.54722656 4.89292969 -5.56640625 4.2109375 C-4.70990479 3.61587402 -3.85340332 3.02081055 -2.97094727 2.40771484 C-1.09363692 1.14844814 -1.09363692 1.14844814 0 0 Z " fill="#26A6D0" transform="translate(252,176)"/>
<path d="M0 0 C6.27 0.33 12.54 0.66 19 1 C19 1.33 19 1.66 19 2 C16.36 2 13.72 2 11 2 C10.95432388 2.56842621 10.90864777 3.13685242 10.86158752 3.72250366 C10.21451368 10.97169852 9.01761335 18.06957662 7.71484375 25.2265625 C7.49429825 26.45539154 7.27375275 27.68422058 7.04652405 28.95028687 C6.46567308 32.18273583 5.8815283 35.41456554 5.29571533 38.64611816 C4.69627727 41.9575819 4.10126718 45.26984094 3.50585938 48.58203125 C2.34127338 55.05541975 1.17233396 61.52801042 0 68 C-0.73605469 67.51789063 -1.47210938 67.03578125 -2.23046875 66.5390625 C-3.69419922 65.59160156 -3.69419922 65.59160156 -5.1875 64.625 C-6.15042969 63.99851562 -7.11335938 63.37203125 -8.10546875 62.7265625 C-10.69803936 61.18011688 -13.16853116 60.02491925 -16 59 C-15.01 58.505 -15.01 58.505 -14 58 C-13.30792088 55.53308513 -12.7304559 53.11245284 -12.203125 50.609375 C-10.78319236 44.2306085 -9.20967373 37.92637402 -7.421875 31.640625 C-7.09394958 30.48161682 -7.09394958 30.48161682 -6.75939941 29.29919434 C-5.86282642 26.13923902 -4.96014128 22.98107974 -4.05273438 19.82421875 C-3.37849098 17.47291361 -2.71223501 15.11945668 -2.046875 12.765625 C-1.84068542 12.0573053 -1.63449585 11.3489856 -1.42205811 10.61920166 C-0.35599426 6.83128732 0 4.01353552 0 0 Z " fill="#3BADC6" transform="translate(282,254)"/>
<path d="M0 0 C0.33 0 0.66 0 1 0 C1.2570666 25.66027925 1.45098898 51.32036528 1.56993389 76.98167324 C1.62663266 88.89699305 1.7039187 100.81151238 1.82983398 112.72631836 C1.93954181 123.11244385 2.01045615 133.49798961 2.03497344 143.88467842 C2.04930371 149.383728 2.0829289 154.88111926 2.16303062 160.37963676 C2.23786313 165.55855515 2.2606961 170.73513737 2.24418449 175.91454506 C2.24720356 177.81209908 2.26899283 179.70973353 2.31126022 181.60681915 C2.61509077 195.95076483 2.61509077 195.95076483 -1.37901878 201.01851082 C-4.14736608 203.28220176 -6.97357824 205.10631483 -10 207 C-14.93083201 211.87613241 -19.10359239 217.27715132 -23 223 C-25.66666667 220.33333333 -28.33333333 217.66666667 -31 215 C-27.58000872 207.51567127 -20.97698325 201.92967735 -15.203125 196.234375 C-12.57300298 193.56694628 -10.1220416 190.78059462 -7.703125 187.921875 C-6 186 -6 186 -3.43350697 183.8469286 C-0.45856345 180.36658032 -0.29305228 177.90271514 -0.36076355 173.52726746 C-0.34823004 172.4121748 -0.34823004 172.4121748 -0.33544332 171.27455503 C-0.31352884 168.7882702 -0.32711459 166.3034647 -0.34057617 163.81713867 C-0.33212277 162.03316121 -0.32147857 160.24919297 -0.30880737 158.46524048 C-0.2806367 153.62465337 -0.28313696 148.78450901 -0.29110122 143.94386458 C-0.29422393 138.8842474 -0.26919881 133.82477182 -0.24714661 128.76521301 C-0.20967592 119.18533507 -0.19755682 109.60559908 -0.1945222 100.02565509 C-0.18983466 89.11878577 -0.15692109 78.21205896 -0.12162435 67.30525243 C-0.04965272 44.87018556 -0.01316713 22.43517299 0 0 Z " fill="#48ADC4" transform="translate(96,186)"/>
<path d="M0 0 C0.33 0.66 0.66 1.32 1 2 C0.13883732 4.07501997 -0.81526064 6.11183764 -1.8125 8.125 C-5.56918321 16.03838362 -7.36623981 23.27825266 -8 32 C-8.05414063 32.66257812 -8.10828125 33.32515625 -8.1640625 34.0078125 C-8.95678469 52.96107945 -1.03088089 69.79725428 10.75 84.12890625 C19.48989457 93.52009104 31.90792435 99.30519911 44 103 C44 103.33 44 103.66 44 104 C61.8312903 104.74312922 78.15555822 105.12603319 93.85546875 95.734375 C94.89316406 95.16203125 95.93085938 94.5896875 97 94 C97.66 94.33 98.32 94.66 99 95 C82.30343492 107.26944555 64.00271496 110.13598021 43.70361328 107.72753906 C29.27419046 105.29332819 17.13102422 97.24054881 7 87 C6.37738281 86.41089844 5.75476563 85.82179688 5.11328125 85.21484375 C-7.43672285 72.38281709 -12.38108585 53.220319 -12.21484375 35.8203125 C-11.49756162 23.06573215 -8.40791565 9.88956533 0 0 Z " fill="#B3B3B4" transform="translate(76,404)"/>
<path d="M0 0 C3.96 0 7.92 0 12 0 C17.32408979 10.4716313 22.40827804 21.0292204 27.2746582 31.72119141 C28.32539304 34.02830949 29.38216282 36.33259862 30.43945312 38.63671875 C31.12275234 40.13264971 31.80570788 41.62873771 32.48828125 43.125 C32.79768143 43.79909912 33.1070816 44.47319824 33.42585754 45.16772461 C35.48855241 49.7130439 37.28825128 54.31088548 39 59 C37.02 59.66 35.04 60.32 33 61 C24.11431837 45.34730296 15.3168979 29.647936 6.609375 13.89550781 C5.5667958 12.01975093 4.5152523 10.14893728 3.453125 8.28417969 C2.76476562 7.0722998 2.76476562 7.0722998 2.0625 5.8359375 C1.66160156 5.13774902 1.26070312 4.43956055 0.84765625 3.72021484 C0 2 0 2 0 0 Z " fill="#3AACC6" transform="translate(246,5)"/>
<path d="M0 0 C4.95 0 9.9 0 15 0 C15 7.26 15 14.52 15 22 C16.65 22 18.3 22 20 22 C20.625 24.375 20.625 24.375 21 27 C19 29 19 29 15.24609375 29.23046875 C13.64316745 29.22776652 12.0402316 29.21262857 10.4375 29.1875 C9.59791748 29.18105469 8.75833496 29.17460937 7.89331055 29.16796875 C-0.42169374 29.06819182 -8.70749814 28.5945968 -17 28 C-17.625 26.125 -17.625 26.125 -18 24 C-16 22 -16 22 -12.3046875 21.8046875 C-10.82798332 21.8161291 -9.35138199 21.84210093 -7.875 21.875 C-5.27625 21.91625 -2.6775 21.9575 0 22 C0 14.74 0 7.48 0 0 Z " fill="#E5777B" transform="translate(148,312)"/>
<path d="M0 0 C-0.54269531 0.25394531 -1.08539063 0.50789062 -1.64453125 0.76953125 C-2.71767578 1.28580078 -2.71767578 1.28580078 -3.8125 1.8125 C-4.52019531 2.14894531 -5.22789063 2.48539063 -5.95703125 2.83203125 C-9.35191711 4.77289334 -10.75480688 6.26442064 -12 10 C-12.10570287 12.71000148 -12.15484124 15.39494389 -12.15821838 18.10539246 C-12.16315636 18.94100041 -12.16809434 19.77660837 -12.17318195 20.63753778 C-12.18858326 23.4474027 -12.1969247 26.25724473 -12.20532227 29.06713867 C-12.21489872 31.0774099 -12.22490866 33.0876791 -12.23532104 35.09794617 C-12.26240138 40.56452341 -12.28339401 46.03110931 -12.30332303 51.49771667 C-12.32516329 57.20725957 -12.35256156 62.91677569 -12.37937927 68.626297 C-12.42933269 79.44221886 -12.47426169 90.25815557 -12.51740164 101.07410651 C-12.56675138 113.38593052 -12.6216779 125.69772764 -12.67708123 138.00952566 C-12.79094194 163.3396587 -12.89777207 188.66981752 -13 214 C-13.66 214 -14.32 214 -15 214 C-15.11675995 187.24461469 -15.20495234 160.48926751 -15.25906086 133.73367882 C-15.28485127 121.31080996 -15.32001804 108.88809933 -15.37719727 96.46533203 C-15.4270063 85.6386602 -15.45928492 74.81210295 -15.47044247 63.98531973 C-15.47696539 58.25164904 -15.49231397 52.51830616 -15.52865028 46.78474045 C-15.56256995 41.38881925 -15.57306095 35.99336113 -15.56553841 30.59734344 C-15.56691474 28.61639261 -15.57687103 26.6354264 -15.59602737 24.65456772 C-15.62090259 21.94983696 -15.61492565 19.24685489 -15.60127258 16.54208374 C-15.61583679 15.75802544 -15.630401 14.97396714 -15.64540654 14.1661495 C-15.56747667 8.45540398 -14.09396234 5.99120058 -10 2 C-6.15034912 -0.43549341 -4.31804869 -1.3464883 0 0 Z " fill="#B2B3B3" transform="translate(112,169)"/>
<path d="M0 0 C0.66644531 0.34933594 1.33289063 0.69867188 2.01953125 1.05859375 C8.76107985 4.38693872 14.4893431 5.84019879 22 6 C20.55932506 13.52792236 18.12995528 20.42113936 15.375 27.5625 C14.95476562 28.66658203 14.53453125 29.77066406 14.1015625 30.90820312 C13.07321024 33.60762781 12.0392595 36.30476001 11 39 C10.67 39 10.34 39 10 39 C9.72027344 37.77925781 9.44054687 36.55851562 9.15234375 35.30078125 C6.8933546 25.88529146 4.39361806 17.80479236 -0.64453125 9.46875 C-2 7 -2 7 -2 4 C-1 1.8125 -1 1.8125 0 0 Z " fill="#3DADC6" transform="translate(195,395)"/>
<path d="M0 0 C9.9 0 19.8 0 30 0 C30.14285714 17.14285714 30.14285714 17.14285714 29 24 C23.50286781 19.93291155 18.11962556 15.74922211 12.8125 11.4375 C12.12736328 10.88642578 11.44222656 10.33535156 10.73632812 9.76757812 C10.06666016 9.22423828 9.39699219 8.68089844 8.70703125 8.12109375 C8.1138208 7.6408374 7.52061035 7.16058105 6.90942383 6.66577148 C4.49790239 4.56197264 2.26289695 2.26289695 0 0 Z " fill="#26A6D0" transform="translate(469,255)"/>
<path d="M0 0 C4.95 0 9.9 0 15 0 C15 6.93 15 13.86 15 21 C10.05 21 5.1 21 0 21 C0 14.07 0 7.14 0 0 Z " fill="#E6777B" transform="translate(148,341)"/>
<path d="M0 0 C0.77070328 -0.0033284 1.54140656 -0.0066568 2.33546448 -0.01008606 C3.96883546 -0.01515835 5.60221685 -0.01749429 7.2355957 -0.01733398 C9.73991924 -0.01951905 12.24380146 -0.0376672 14.74804688 -0.05664062 C16.33202974 -0.05957472 17.9160147 -0.06155941 19.5 -0.0625 C20.25212265 -0.06968552 21.0042453 -0.07687103 21.77915955 -0.08427429 C27.08758346 -0.06085404 27.08758346 -0.06085404 29.31640625 2.16796875 C28.78069196 5.70368304 28.78069196 5.70368304 27.31640625 7.16796875 C24.7462114 7.28128968 22.20389148 7.3321436 19.6328125 7.3359375 C18.47675758 7.3409301 18.47675758 7.3409301 17.29734802 7.34602356 C15.66397704 7.35109585 14.03059565 7.35343179 12.3972168 7.35327148 C9.89289326 7.35545655 7.38901104 7.3736047 4.88476562 7.39257812 C3.30078276 7.39551222 1.7167978 7.39749691 0.1328125 7.3984375 C-0.61931015 7.40562302 -1.3714328 7.41280853 -2.14634705 7.42021179 C-7.45477096 7.39679154 -7.45477096 7.39679154 -9.68359375 5.16796875 C-8.74608107 -1.01961494 -5.4467155 0.0080372 0 0 Z " fill="#9A9A9A" transform="translate(139.68359375,248.83203125)"/>
<path d="M0 0 C1.51289503 0.00031716 3.0258126 0.01164445 4.53857422 0.03173828 C5.33480194 0.03456818 6.13102966 0.03739807 6.9513855 0.04031372 C9.49882935 0.05152438 12.04592383 0.07663016 14.59326172 0.10205078 C16.31851706 0.11207945 18.04377791 0.1212055 19.76904297 0.12939453 C24.00225086 0.15146656 28.23519702 0.18600212 32.46826172 0.22705078 C33.09326172 2.60205078 33.09326172 2.60205078 33.46826172 5.22705078 C31.46826172 7.22705078 31.46826172 7.22705078 27.71435547 7.45751953 C26.11142917 7.45481731 24.50849332 7.43967935 22.90576172 7.41455078 C22.0661792 7.40810547 21.22659668 7.40166016 20.36157227 7.39501953 C12.04656798 7.2952426 3.76076358 6.82164759 -4.53173828 6.22705078 C-5.15673828 4.35205078 -5.15673828 4.35205078 -5.53173828 2.22705078 C-3.53173828 0.22705078 -3.53173828 0.22705078 0 0 Z " fill="#9D9292" transform="translate(135.53173828125,333.77294921875)"/>
<path d="M0 0 C0.82218018 -0.01289063 1.64436035 -0.02578125 2.49145508 -0.0390625 C4.51654251 -0.04247641 6.54121549 0.06340449 8.5625 0.1875 C9.2225 0.8475 9.8825 1.5075 10.5625 2.1875 C10.02678571 5.72321429 10.02678571 5.72321429 8.5625 7.1875 C5.99230515 7.30082093 3.44998523 7.35167485 0.87890625 7.35546875 C-0.27714867 7.36046135 -0.27714867 7.36046135 -1.45655823 7.36555481 C-3.08992921 7.3706271 -4.7233106 7.37296304 -6.35668945 7.37280273 C-8.86101299 7.3749878 -11.36489521 7.39313595 -13.86914062 7.41210938 C-15.45312349 7.41504347 -17.03710845 7.41702816 -18.62109375 7.41796875 C-19.3732164 7.42515427 -20.12533905 7.43233978 -20.9002533 7.43974304 C-26.20867721 7.41632279 -26.20867721 7.41632279 -28.4375 5.1875 C-28.0625 3.0625 -28.0625 3.0625 -27.4375 1.1875 C-18.2944096 0.53191349 -9.16799153 0.0703809 0 0 Z " fill="#9B8F90" transform="translate(158.4375,361.8125)"/>
<path d="M0 0 C1.56047445 0.00015913 3.12095416 0.00585397 4.68139648 0.01586914 C5.91115456 0.01799156 5.91115456 0.01799156 7.16575623 0.02015686 C9.79470406 0.0257725 12.42356797 0.0383276 15.05249023 0.05102539 C16.8304838 0.05603838 18.60847869 0.06060163 20.38647461 0.06469727 C24.75434569 0.07574701 29.12215371 0.09302208 33.48999023 0.11352539 C33.87217791 1.76967196 34.20394125 3.43809563 34.48999023 5.11352539 C33.48999023 6.11352539 33.48999023 6.11352539 29.97998047 6.22705078 C28.41950602 6.22689165 26.85902631 6.22119681 25.29858398 6.21118164 C24.47874527 6.20976669 23.65890656 6.20835175 22.81422424 6.20689392 C20.18527641 6.20127828 17.5564125 6.18872318 14.92749023 6.17602539 C13.14949667 6.1710124 11.37150177 6.16644915 9.59350586 6.16235352 C5.22563478 6.15130378 0.85782676 6.1340287 -3.51000977 6.11352539 C-3.89219744 4.45737882 -4.22396078 2.78895515 -4.51000977 1.11352539 C-3.51000977 0.11352539 -3.51000977 0.11352539 0 0 Z " fill="#939393" transform="translate(134.510009765625,305.886474609375)"/>
<path d="M0 0 C1.56047445 0.00015913 3.12095416 0.00585397 4.68139648 0.01586914 C5.91115456 0.01799156 5.91115456 0.01799156 7.16575623 0.02015686 C9.79470406 0.0257725 12.42356797 0.0383276 15.05249023 0.05102539 C16.8304838 0.05603838 18.60847869 0.06060163 20.38647461 0.06469727 C24.75434569 0.07574701 29.12215371 0.09302208 33.48999023 0.11352539 C33.87217791 1.76967196 34.20394125 3.43809563 34.48999023 5.11352539 C33.48999023 6.11352539 33.48999023 6.11352539 29.97998047 6.22705078 C28.41950602 6.22689165 26.85902631 6.22119681 25.29858398 6.21118164 C24.47874527 6.20976669 23.65890656 6.20835175 22.81422424 6.20689392 C20.18527641 6.20127828 17.5564125 6.18872318 14.92749023 6.17602539 C13.14949667 6.1710124 11.37150177 6.16644915 9.59350586 6.16235352 C5.22563478 6.15130378 0.85782676 6.1340287 -3.51000977 6.11352539 C-3.89219744 4.45737882 -4.22396078 2.78895515 -4.51000977 1.11352539 C-3.51000977 0.11352539 -3.51000977 0.11352539 0 0 Z " fill="#939393" transform="translate(134.510009765625,192.886474609375)"/>
<path d="M0 0 C1.51289503 0.00031716 3.0258126 0.01164445 4.53857422 0.03173828 C5.33480194 0.03456818 6.13102966 0.03739807 6.9513855 0.04031372 C9.49882935 0.05152438 12.04592383 0.07663016 14.59326172 0.10205078 C16.31851706 0.11207945 18.04377791 0.1212055 19.76904297 0.12939453 C24.00225086 0.15146656 28.23519702 0.18600212 32.46826172 0.22705078 C32.85044939 1.88319735 33.18221274 3.55162102 33.46826172 5.22705078 C32.46826172 6.22705078 32.46826172 6.22705078 28.95825195 6.34057617 C27.3977775 6.34041704 25.83729779 6.33472221 24.27685547 6.32470703 C23.45701675 6.32329208 22.63717804 6.32187714 21.79249573 6.32041931 C19.1635479 6.31480367 16.53468398 6.30224857 13.90576172 6.28955078 C12.12776815 6.28453779 10.34977326 6.27997454 8.57177734 6.27587891 C4.20390627 6.26482917 -0.16390176 6.24755409 -4.53173828 6.22705078 C-5.15673828 4.35205078 -5.15673828 4.35205078 -5.53173828 2.22705078 C-3.53173828 0.22705078 -3.53173828 0.22705078 0 0 Z " fill="#959595" transform="translate(135.53173828125,220.77294921875)"/>
<path d="M0 0 C4.18750357 2.09375179 5.67792747 3.01930424 8 7 C9.03839155 13.62973067 7.68378362 18.96148685 5 25 C4.34 25 3.68 25 3 25 C2.01 16.75 1.02 8.5 0 0 Z " fill="#80CDD9" transform="translate(343,370)"/>
<path d="M0 0 C11.55 0 23.1 0 35 0 C35 0.33 35 0.66 35 1 C33.35 1 31.7 1 30 1 C30 2.98 30 4.96 30 7 C25.38 7 20.76 7 16 7 C16 5.02 16 3.04 16 1 C10.72 1 5.44 1 0 1 C0 0.67 0 0.34 0 0 Z " fill="#A29B9C" transform="translate(132,277)"/>
<path d="M0 0 C1.58206057 0.00667536 3.16410534 0.0186375 4.74609375 0.03515625 C5.55240234 0.03966797 6.35871094 0.04417969 7.18945312 0.04882812 C9.18753131 0.06065107 11.18557158 0.07858711 13.18359375 0.09765625 C13.18359375 2.07765625 13.18359375 4.05765625 13.18359375 6.09765625 C7.57359375 6.09765625 1.96359375 6.09765625 -3.81640625 6.09765625 C-4.14640625 4.44765625 -4.47640625 2.79765625 -4.81640625 1.09765625 C-3.81640625 0.09765625 -3.81640625 0.09765625 0 0 Z " fill="#504C4C" transform="translate(134.81640625,305.90234375)"/>
<path d="M0 0 C1.58206057 0.00667536 3.16410534 0.0186375 4.74609375 0.03515625 C5.55240234 0.03966797 6.35871094 0.04417969 7.18945312 0.04882812 C9.18753131 0.06065107 11.18557158 0.07858711 13.18359375 0.09765625 C13.18359375 2.07765625 13.18359375 4.05765625 13.18359375 6.09765625 C7.57359375 6.09765625 1.96359375 6.09765625 -3.81640625 6.09765625 C-4.14640625 4.44765625 -4.47640625 2.79765625 -4.81640625 1.09765625 C-3.81640625 0.09765625 -3.81640625 0.09765625 0 0 Z " fill="#505050" transform="translate(134.81640625,192.90234375)"/>
<path d="M0 0 C5.61 0 11.22 0 17 0 C17 1.98 17 3.96 17 6 C14.37472811 6.05382106 11.75055287 6.09358313 9.125 6.125 C8.37863281 6.14175781 7.63226563 6.15851563 6.86328125 6.17578125 C4.90805539 6.1933959 2.95257979 6.10320189 1 6 C0.34 5.34 -0.32 4.68 -1 4 C-0.67 2.68 -0.34 1.36 0 0 Z " fill="#554A4B" transform="translate(131,363)"/>
<path d="M0 0 C1.47668858 0.0133035 2.95331108 0.03716415 4.4296875 0.0703125 C5.18378906 0.07933594 5.93789062 0.08835937 6.71484375 0.09765625 C8.57826004 0.1212438 10.44151343 0.15711531 12.3046875 0.1953125 C12.3046875 2.1753125 12.3046875 4.1553125 12.3046875 6.1953125 C6.6946875 6.1953125 1.0846875 6.1953125 -4.6953125 6.1953125 C-5.0253125 4.8753125 -5.3553125 3.5553125 -5.6953125 2.1953125 C-3.6953125 0.1953125 -3.6953125 0.1953125 0 0 Z " fill="#514C4C" transform="translate(135.6953125,333.8046875)"/>
<path d="M0 0 C5.61 0 11.22 0 17 0 C17 1.98 17 3.96 17 6 C14.37472811 6.05382106 11.75055287 6.09358313 9.125 6.125 C8.37863281 6.14175781 7.63226563 6.15851563 6.86328125 6.17578125 C4.90805539 6.1933959 2.95257979 6.10320189 1 6 C0.34 5.34 -0.32 4.68 -1 4 C-0.67 2.68 -0.34 1.36 0 0 Z " fill="#514C4C" transform="translate(131,278)"/>
<path d="M0 0 C1.47668858 0.0133035 2.95331108 0.03716415 4.4296875 0.0703125 C5.18378906 0.07933594 5.93789062 0.08835938 6.71484375 0.09765625 C8.57826004 0.1212438 10.44151343 0.15711531 12.3046875 0.1953125 C12.3046875 2.1753125 12.3046875 4.1553125 12.3046875 6.1953125 C6.6946875 6.1953125 1.0846875 6.1953125 -4.6953125 6.1953125 C-5.0253125 4.8753125 -5.3553125 3.5553125 -5.6953125 2.1953125 C-3.6953125 0.1953125 -3.6953125 0.1953125 0 0 Z " fill="#505050" transform="translate(135.6953125,220.8046875)"/>
<path d="M0 0 C1.58206057 0.00667536 3.16410534 0.0186375 4.74609375 0.03515625 C5.55240234 0.03966797 6.35871094 0.04417969 7.18945312 0.04882812 C9.18753131 0.06065107 11.18557158 0.07858711 13.18359375 0.09765625 C13.18359375 1.74765625 13.18359375 3.39765625 13.18359375 5.09765625 C7.57359375 5.09765625 1.96359375 5.09765625 -3.81640625 5.09765625 C-4.14640625 3.77765625 -4.47640625 2.45765625 -4.81640625 1.09765625 C-3.81640625 0.09765625 -3.81640625 0.09765625 0 0 Z " fill="#4E4E4E" transform="translate(134.81640625,249.90234375)"/>
<path d="M0 0 C0 0.33 0 0.66 0 1 C-7.59 1 -15.18 1 -23 1 C-21.65728608 -1.68542784 -20.48442721 -1.86685718 -17.6875 -2.875 C-11.13471127 -4.8000595 -6.06742752 -2.61670843 0 0 Z " fill="#D8D8D8" transform="translate(148,508)"/>
<path d="M0 0 C1.98 0 3.96 0 6 0 C6.38218767 1.65614657 6.71395102 3.32457024 7 5 C6 6 6 6 2.9375 6.0625 C1.4834375 6.0315625 1.4834375 6.0315625 0 6 C0 4.02 0 2.04 0 0 Z " fill="#565555" transform="translate(162,334)"/>
<path d="M0 0 C1.98 0 3.96 0 6 0 C6.38218767 1.65614657 6.71395102 3.32457024 7 5 C6 6 6 6 2.9375 6.0625 C1.4834375 6.0315625 1.4834375 6.0315625 0 6 C0 4.02 0 2.04 0 0 Z " fill="#525252" transform="translate(162,306)"/>
<path d="M0 0 C1.98 0 3.96 0 6 0 C6.38218767 1.65614657 6.71395102 3.32457024 7 5 C6 6 6 6 2.9375 6.0625 C1.4834375 6.0315625 1.4834375 6.0315625 0 6 C0 4.02 0 2.04 0 0 Z " fill="#565555" transform="translate(162,278)"/>
<path d="M0 0 C1.98 0 3.96 0 6 0 C6.38218767 1.65614657 6.71395102 3.32457024 7 5 C6 6 6 6 2.9375 6.0625 C1.4834375 6.0315625 1.4834375 6.0315625 0 6 C0 4.02 0 2.04 0 0 Z " fill="#545454" transform="translate(162,221)"/>
<path d="M0 0 C1.98 0 3.96 0 6 0 C6.38218767 1.65614657 6.71395102 3.32457024 7 5 C6 6 6 6 2.9375 6.0625 C1.4834375 6.0315625 1.4834375 6.0315625 0 6 C0 4.02 0 2.04 0 0 Z " fill="#525252" transform="translate(162,193)"/>
<path d="M0 0 C0.66 0.33 1.32 0.66 2 1 C-8.38851351 8.13344595 -8.38851351 8.13344595 -13 10 C-13.99 9.67 -14.98 9.34 -16 9 C-14.49349158 5.98698315 -12.20776762 5.71240741 -9.125 4.5 C-5.78356378 3.17952882 -2.99693435 1.99795623 0 0 Z " fill="#BCBCBC" transform="translate(173,498)"/>
<path d="M0 0 C1.98 0 3.96 0 6 0 C6.5625 1.9375 6.5625 1.9375 7 4 C6 5 6 5 2.9375 5.0625 C1.4834375 5.0315625 1.4834375 5.0315625 0 5 C0 3.35 0 1.7 0 0 Z " fill="#4E4E4E" transform="translate(162,363)"/>
<path d="M0 0 C1.98 0 3.96 0 6 0 C6.5625 1.9375 6.5625 1.9375 7 4 C6 5 6 5 2.9375 5.0625 C1.4834375 5.0315625 1.4834375 5.0315625 0 5 C0 3.35 0 1.7 0 0 Z " fill="#4E4E4E" transform="translate(162,250)"/>
<path d="M0 0 C4.75 0.75 4.75 0.75 7 3 C0.375 6.125 0.375 6.125 -3 5 C-2.01 3.35 -1.02 1.7 0 0 Z " fill="#2CA8D1" transform="translate(277,198)"/>
<path d="M0 0 C-1.26691507 0.67408308 -2.53870749 1.33900497 -3.8125 2 C-4.52019531 2.37125 -5.22789063 2.7425 -5.95703125 3.125 C-8 4 -8 4 -11 4 C-7.51147246 0.16261971 -5.09041622 -1.48780432 0 0 Z " fill="#ADBABE" transform="translate(112,169)"/>
</svg>
